font.ufo
<glyph name="exclam" format="1">
  <advance width="263"/>
  <unicode hex="0021"/>
  <outline>
    <contour>
      <point x="50" y="636" type="line"/>
      <point x="75" y="222" type="line"/>
      <point x="189" y="222" type="line"/>
      <point x="213" y="636" type="line"/>
    </contour>
    <contour>
      <point x="59" y="0" type="line"/>
      <point x="204" y="0" type="line"/>
      <point x="204" y="148" type="line"/>
      <point x="59" y="148" type="line"/>
    </contour>
  </outline>
</glyph>
<glyph name="quotedbl" format="1">
  <advance width="380"/>
  <unicode hex="0022"/>
  <outline>
    <contour>
      <point x="39" y="636" type="line"/>
      <point x="39" y="386" type="line"/>
      <point x="165" y="386" type="line"/>
      <point x="165" y="636" type="line"/>
    </contour>
    <contour>
      <point x="215" y="636" type="line"/>
      <point x="215" y="386" type="line"/>
      <point x="342" y="386" type="line"/>
      <point x="342" y="636" type="line"/>
    </contour>
  </outline>
</glyph>
<glyph name="numbersign" format="1">
  <advance width="609"/>
  <unicode hex="0023"/>
  <outline>
    <contour>
      <point x="197" y="635" type="line"/>
      <point x="65" y="0" type="line"/>
      <point x="186" y="0" type="line"/>
      <point x="318" y="635" type="line"/>
    </contour>
    <contour>
      <point x="579" y="486" type="line"/>
      <point x="72" y="486" type="line"/>
      <point x="72" y="392" type="line"/>
      <point x="579" y="392" type="line"/>
    </contour>
    <contour>
      <point x="412" y="0" type="line"/>
      <point x="544" y="635" type="line"/>
      <point x="423" y="635" type="line"/>
      <point x="291" y="0" type="line"/>
    </contour>
    <contour>
      <point x="30" y="149" type="line"/>
      <point x="537" y="149" type="line"/>
      <point x="537" y="244" type="line"/>
      <point x="30" y="244" type="line"/>
    </contour>
  </outline>
</glyph>
<glyph name="ampersand" format="1">
  <advance width="563"/>
  <unicode hex="0026"/>
  <outline>
    <contour>
      <point x="606" y="-36" type="line"/>
      <point x="272" y="338" type="line" smooth="yes"/>
      <point x="224" y="391"/>
      <point x="204" y="404"/>
      <point x="204" y="440" type="curve" smooth="yes"/>
      <point x="204" y="515" type="line"/>
      <point x="204" y="534"/>
      <point x="211" y="540"/>
      <point x="230" y="540" type="curve" smooth="yes"/>
      <point x="262" y="540" type="line" smooth="yes"/>
      <point x="282" y="540"/>
      <point x="289" y="534"/>
      <point x="289" y="515" type="curve" smooth="yes"/>
      <point x="289" y="446" type="line" smooth="yes"/>
      <point x="289" y="414"/>
      <point x="271" y="402"/>
      <point x="233" y="378" type="curve" smooth="yes"/>
      <point x="114" y="306" type="line" smooth="yes"/>
      <point x="54" y="270"/>
      <point x="33" y="246"/>
      <point x="33" y="186" type="curve" smooth="yes"/>
      <point x="33" y="111" type="line" smooth="yes"/>
      <point x="33" y="42"/>
      <point x="69" y="0"/>
      <point x="160" y="0" type="curve" smooth="yes"/>
      <point x="403" y="0" type="line" smooth="yes"/>
      <point x="494" y="0"/>
      <point x="535" y="42"/>
      <point x="535" y="111" type="curve" smooth="yes"/>
      <point x="535" y="243" type="line"/>
      <point x="422" y="243" type="line"/>
      <point x="422" y="123" type="line" smooth="yes"/>
      <point x="422" y="105"/>
      <point x="414" y="98"/>
      <point x="395" y="98" type="curve" smooth="yes"/>
      <point x="196" y="98" type="line" smooth="yes"/>
      <point x="176" y="98"/>
      <point x="169" y="105"/>
      <point x="169" y="123" type="curve" smooth="yes"/>
      <point x="169" y="178" type="line" smooth="yes"/>
      <point x="169" y="203"/>
      <point x="177" y="213"/>
      <point x="194" y="223" type="curve" smooth="yes"/>
      <point x="331" y="305" type="line" smooth="yes"/>
      <point x="392" y="343"/>
      <point x="425" y="372"/>
      <point x="425" y="448" type="curve" smooth="yes"/>
      <point x="425" y="526" type="line" smooth="yes"/>
      <point x="425" y="594"/>
      <point x="391" y="636"/>
      <point x="300" y="636" type="curve" smooth="yes"/>
      <point x="191" y="636" type="line"/>
      <point x="100" y="636"/>
      <point x="64" y="594"/>
      <point x="64" y="526" type="curve" smooth="yes"/>
      <point x="64" y="447" type="line" smooth="yes"/>
      <point x="64" y="402"/>
      <point x="91" y="369"/>
      <point x="138" y="317" type="curve" smooth="yes"/>
      <point x="462" y="-36" type="line"/>
    </contour>
  </outline>
</glyph>
<glyph name="quotesingle" format="1">
  <advance width="212"/>
  <unicode hex="0027"/>
  <outline>
    <contour>
      <point x="39" y="636" type="line"/>
      <point x="39" y="386" type="line"/>
      <point x="173" y="386" type="line"/>
      <point x="173" y="636" type="line"/>
    </contour>
  </outline>
</glyph>
<glyph name="parenleft" format="1">
  <advance width="309"/>
  <unicode hex="0028"/>
  <outline>
    <contour>
      <point x="43" y="451" type="curve"/>
      <point x="43" y="180" type="line"/>
      <point x="43" y="-46"/>
      <point x="134" y="-170"/>
      <point x="299" y="-170" type="curve" smooth="yes"/>
      <point x="310" y="-170" type="line"/>
      <point x="310" y="-51" type="line"/>
      <point x="300" y="-51" type="line" smooth="yes"/>
      <point x="228" y="-48"/>
      <point x="185" y="25"/>
      <point x="185" y="178" type="curve" smooth="yes"/>
      <point x="185" y="453" type="line" smooth="yes"/>
      <point x="185" y="605"/>
      <point x="228" y="679"/>
      <point x="300" y="681" type="curve" smooth="yes"/>
      <point x="310" y="682" type="line"/>
      <point x="310" y="800" type="line"/>
      <point x="299" y="800" type="line" smooth="yes"/>
      <point x="134" y="800"/>
      <point x="43" y="677"/>
    </contour>
  </outline>
</glyph>
<glyph name="parenright" format="1">
  <advance width="309"/>
  <unicode hex="0029"/>
  <outline>
    <contour>
      <point x="266" y="180" type="curve"/>
      <point x="266" y="451" type="line"/>
      <point x="266" y="677"/>
      <point x="175" y="800"/>
      <point x="9" y="800" type="curve" smooth="yes"/>
      <point x="-2" y="800" type="line"/>
      <point x="-2" y="682" type="line"/>
      <point x="9" y="681" type="line" smooth="yes"/>
      <point x="81" y="679"/>
      <point x="123" y="605"/>
      <point x="123" y="453" type="curve" smooth="yes"/>
      <point x="123" y="178" type="line" smooth="yes"/>
      <point x="123" y="25"/>
      <point x="81" y="-48"/>
      <point x="9" y="-51" type="curve" smooth="yes"/>
      <point x="-2" y="-51" type="line"/>
      <point x="-2" y="-170" type="line"/>
      <point x="9" y="-170" type="line" smooth="yes"/>
      <point x="175" y="-170"/>
      <point x="266" y="-46"/>
    </contour>
  </outline>
</glyph>
<glyph name="asterisk" format="1">
  <advance width="364"/>
  <unicode hex="002A"/>
  <outline>
    <contour>
      <point x="198" y="480" type="line"/>
      <point x="198" y="480"/>
      <point x="235" y="525"/>
      <point x="235" y="612" type="curve" smooth="yes"/>
      <point x="235" y="636" type="line"/>
      <point x="129" y="636" type="line"/>
      <point x="129" y="613" type="line" smooth="yes"/>
      <point x="129" y="525"/>
      <point x="167" y="480"/>
      <point x="167" y="480" type="curve"/>
    </contour>
    <contour>
      <point x="187" y="495" type="line"/>
      <point x="187" y="495"/>
      <point x="156" y="544"/>
      <point x="73" y="571" type="curve" smooth="yes"/>
      <point x="50" y="578" type="line"/>
      <point x="17" y="478" type="line"/>
      <point x="39" y="471" type="line" smooth="yes"/>
      <point x="124" y="442"/>
      <point x="178" y="465"/>
      <point x="178" y="465" type="curve"/>
    </contour>
    <contour>
      <point x="170" y="489" type="line"/>
      <point x="170" y="489"/>
      <point x="113" y="474"/>
      <point x="62" y="404" type="curve" smooth="yes"/>
      <point x="47" y="384" type="line"/>
      <point x="133" y="322" type="line"/>
      <point x="147" y="341" type="line" smooth="yes"/>
      <point x="199" y="412"/>
      <point x="195" y="471"/>
      <point x="195" y="471" type="curve"/>
    </contour>
    <contour>
      <point x="170" y="471" type="line"/>
      <point x="170" y="471"/>
      <point x="167" y="412"/>
      <point x="217" y="342" type="curve" smooth="yes"/>
      <point x="232" y="322" type="line"/>
      <point x="318" y="385" type="line"/>
      <point x="304" y="404" type="line" smooth="yes"/>
      <point x="252" y="475"/>
      <point x="195" y="489"/>
      <point x="195" y="489" type="curve"/>
    </contour>
    <contour>
      <point x="187" y="465" type="line"/>
      <point x="187" y="465"/>
      <point x="242" y="443"/>
      <point x="324" y="471" type="curve" smooth="yes"/>
      <point x="347" y="478" type="line"/>
      <point x="315" y="579" type="line"/>
      <point x="292" y="572" type="line" smooth="yes"/>
      <point x="208" y="545"/>
      <point x="178" y="495"/>
      <point x="178" y="495" type="curve"/>
    </contour>
  </outline>
</glyph>
<glyph name="plus" format="1">
  <advance width="473"/>
  <unicode hex="002B"/>
  <outline>
    <contour>
      <point x="18" y="264" type="line"/>
      <point x="455" y="264" type="line"/>
      <point x="455" y="370" type="line"/>
      <point x="18" y="370" type="line"/>
    </contour>
    <contour>
      <point x="169" y="523" type="line"/>
      <point x="169" y="111" type="line"/>
      <point x="304" y="111" type="line"/>
      <point x="304" y="523" type="line"/>
    </contour>
  </outline>
</glyph>
<glyph name="comma" format="1">
  <advance width="219"/>
  <unicode hex="002C"/>
  <outline>
    <contour>
      <point x="37" y="148" type="line"/>
      <point x="37" y="-145" type="line"/>
      <point x="82" y="-145" type="line"/>
      <point x="182" y="68" type="line"/>
      <point x="182" y="148" type="line"/>
    </contour>
  </outline>
</glyph>
<glyph name="hyphen" format="1">
  <advance width="332"/>
  <unicode hex="002D"/>
  <outline>
    <contour>
      <point x="31" y="250" type="line"/>
      <point x="301" y="250" type="line"/>
      <point x="301" y="348" type="line"/>
      <point x="31" y="348" type="line"/>
    </contour>
  </outline>
</glyph>
<glyph name="period" format="1">
  <advance width="219"/>
  <unicode hex="002E"/>
  <outline>
    <contour>
      <point x="37" y="0" type="line"/>
      <point x="182" y="0" type="line"/>
      <point x="182" y="148" type="line"/>
      <point x="37" y="148" type="line"/>
    </contour>
  </outline>
</glyph>
<glyph name="zero" format="1">
  <advance width="459"/>
  <unicode hex="0030"/>
  <outline>
    <contour>
      <point x="418" y="526" type="line"/>
      <point x="418" y="594"/>
      <point x="382" y="636"/>
      <point x="292" y="636" type="curve" smooth="yes"/>
      <point x="168" y="636" type="line" smooth="yes"/>
      <point x="77" y="636"/>
      <point x="41" y="594"/>
      <point x="41" y="526" type="curve" smooth="yes"/>
      <point x="41" y="111" type="line" smooth="yes"/>
      <point x="41" y="42"/>
      <point x="77" y="0"/>
      <point x="168" y="0" type="curve"/>
      <point x="292" y="0" type="line" smooth="yes"/>
      <point x="382" y="0"/>
      <point x="418" y="42"/>
      <point x="418" y="111" type="curve" smooth="yes"/>
    </contour>
    <contour>
      <point x="275" y="130" type="line"/>
      <point x="275" y="112"/>
      <point x="268" y="105"/>
      <point x="248" y="105" type="curve" smooth="yes"/>
      <point x="211" y="105" type="line" smooth="yes"/>
      <point x="191" y="105"/>
      <point x="184" y="112"/>
      <point x="184" y="130" type="curve"/>
      <point x="184" y="506" type="line" smooth="yes"/>
      <point x="184" y="524"/>
      <point x="191" y="531"/>
      <point x="211" y="531" type="curve" smooth="yes"/>
      <point x="248" y="531" type="line" smooth="yes"/>
      <point x="268" y="531"/>
      <point x="275" y="524"/>
      <point x="275" y="506" type="curve" smooth="yes"/>
    </contour>
  </outline>
</glyph>
<glyph name="two" format="1">
  <advance width="415"/>
  <unicode hex="0032"/>
  <outline>
    <contour>
      <point x="167" y="506" type="line"/>
      <point x="167" y="524"/>
      <point x="174" y="531"/>
      <point x="193" y="531" type="curve"/>
      <point x="218" y="531" type="line" smooth="yes"/>
      <point x="238" y="531"/>
      <point x="245" y="524"/>
      <point x="245" y="506" type="curve" smooth="yes"/>
      <point x="245" y="447" type="line" smooth="yes"/>
      <point x="245" y="401"/>
      <point x="236" y="375"/>
      <point x="203" y="333" type="curve"/>
      <point x="27" y="97" type="line"/>
      <point x="27" y="0" type="line"/>
      <point x="388" y="0" type="line"/>
      <point x="388" y="105" type="line"/>
      <point x="201" y="105" type="line"/>
      <point x="329" y="292" type="line"/>
      <point x="367" y="342"/>
      <point x="386" y="381"/>
      <point x="386" y="445" type="curve" smooth="yes"/>
      <point x="386" y="526" type="line" smooth="yes"/>
      <point x="386" y="594"/>
      <point x="349" y="636"/>
      <point x="258" y="636" type="curve" smooth="yes"/>
      <point x="150" y="636" type="line" smooth="yes"/>
      <point x="59" y="636"/>
      <point x="24" y="594"/>
      <point x="24" y="526" type="curve" smooth="yes"/>
      <point x="24" y="422" type="line"/>
      <point x="167" y="422" type="line"/>
    </contour>
  </outline>
</glyph>
<glyph name="three" format="1">
  <advance width="431"/>
  <unicode hex="0033"/>
  <outline>
    <contour>
      <point x="169" y="506" type="line"/>
      <point x="169" y="524"/>
      <point x="177" y="531"/>
      <point x="196" y="531" type="curve" smooth="yes"/>
      <point x="223" y="531" type="line" smooth="yes"/>
      <point x="243" y="531"/>
      <point x="250" y="524"/>
      <point x="250" y="506" type="curve" smooth="yes"/>
      <point x="250" y="396" type="line" smooth="yes"/>
      <point x="250" y="378"/>
      <point x="243" y="372"/>
      <point x="223" y="372" type="curve" smooth="yes"/>
      <point x="145" y="372" type="line"/>
      <point x="145" y="273" type="line"/>
      <point x="223" y="273" type="line" smooth="yes"/>
      <point x="243" y="273"/>
      <point x="250" y="267"/>
      <point x="250" y="248" type="curve" smooth="yes"/>
      <point x="250" y="130" type="line" smooth="yes"/>
      <point x="250" y="112"/>
      <point x="243" y="105"/>
      <point x="223" y="105" type="curve" smooth="yes"/>
      <point x="196" y="105" type="line" smooth="yes"/>
      <point x="177" y="105"/>
      <point x="169" y="112"/>
      <point x="169" y="130" type="curve" smooth="yes"/>
      <point x="169" y="204" type="line"/>
      <point x="27" y="204" type="line"/>
      <point x="27" y="111" type="line" smooth="yes"/>
      <point x="27" y="42"/>
      <point x="62" y="0"/>
      <point x="153" y="0" type="curve" smooth="yes"/>
      <point x="264" y="0" type="line" smooth="yes"/>
      <point x="355" y="0"/>
      <point x="391" y="42"/>
      <point x="391" y="111" type="curve" smooth="yes"/>
      <point x="391" y="238" type="line" smooth="yes"/>
      <point x="391" y="282"/>
      <point x="381" y="311"/>
      <point x="346" y="324" type="curve"/>
      <point x="381" y="339"/>
      <point x="391" y="372"/>
      <point x="391" y="417" type="curve" smooth="yes"/>
      <point x="391" y="526" type="line" smooth="yes"/>
      <point x="391" y="594"/>
      <point x="355" y="636"/>
      <point x="264" y="636" type="curve"/>
      <point x="153" y="636" type="line" smooth="yes"/>
      <point x="62" y="636"/>
      <point x="27" y="594"/>
      <point x="27" y="526" type="curve" smooth="yes"/>
      <point x="27" y="431" type="line"/>
      <point x="169" y="431" type="line"/>
    </contour>
  </outline>
</glyph>
<glyph name="six" format="1">
  <advance width="451"/>
  <unicode hex="0036"/>
  <outline>
    <contour>
      <point x="277" y="130" type="line"/>
      <point x="277" y="112"/>
      <point x="270" y="105"/>
      <point x="250" y="105" type="curve" smooth="yes"/>
      <point x="224" y="105" type="line"/>
      <point x="224" y="0" type="line"/>
      <point x="290" y="0" type="line" smooth="yes"/>
      <point x="381" y="0"/>
      <point x="417" y="42"/>
      <point x="417" y="111" type="curve" smooth="yes"/>
      <point x="417" y="265" type="line" smooth="yes"/>
      <point x="417" y="333"/>
      <point x="381" y="375"/>
      <point x="290" y="375" type="curve" smooth="yes"/>
      <point x="143" y="375" type="line"/>
      <point x="143" y="274" type="line"/>
      <point x="250" y="274" type="line" smooth="yes"/>
      <point x="270" y="274"/>
      <point x="277" y="267"/>
      <point x="277" y="249" type="curve" smooth="yes"/>
    </contour>
    <contour>
      <point x="181" y="506" type="line"/>
      <point x="181" y="524"/>
      <point x="188" y="531"/>
      <point x="207" y="531" type="curve" smooth="yes"/>
      <point x="233" y="531" type="line"/>
      <point x="233" y="636" type="line"/>
      <point x="168" y="636" type="line" smooth="yes"/>
      <point x="77" y="636"/>
      <point x="41" y="594"/>
      <point x="41" y="526" type="curve" smooth="yes"/>
      <point x="41" y="111" type="line" smooth="yes"/>
      <point x="41" y="42"/>
      <point x="77" y="0"/>
      <point x="168" y="0" type="curve" smooth="yes"/>
      <point x="233" y="0" type="line"/>
      <point x="233" y="105" type="line"/>
      <point x="207" y="105" type="line" smooth="yes"/>
      <point x="188" y="105"/>
      <point x="181" y="112"/>
      <point x="181" y="130" type="curve" smooth="yes"/>
    </contour>
    <contour>
      <point x="270" y="440" type="line"/>
      <point x="410" y="440" type="line"/>
      <point x="410" y="526" type="line" smooth="yes"/>
      <point x="410" y="594"/>
      <point x="374" y="636"/>
      <point x="283" y="636" type="curve" smooth="yes"/>
      <point x="219" y="636" type="line"/>
      <point x="219" y="531" type="line"/>
      <point x="243" y="531" type="line" smooth="yes"/>
      <point x="263" y="531"/>
      <point x="270" y="524"/>
      <point x="270" y="506" type="curve" smooth="yes"/>
    </contour>
  </outline>
</glyph>
<glyph name="seven" format="1">
  <advance width="372"/>
  <unicode hex="0037"/>
  <outline>
    <contour>
      <point x="333" y="636" type="line"/>
      <point x="9" y="636" type="line"/>
      <point x="9" y="524" type="line"/>
      <point x="333" y="524" type="line"/>
    </contour>
    <contour>
      <point x="367" y="636" type="line"/>
      <point x="254" y="636" type="line"/>
      <point x="35" y="0" type="line"/>
      <point x="182" y="0" type="line"/>
      <point x="367" y="556" type="line"/>
    </contour>
  </outline>
</glyph>
<glyph name="colon" format="1">
  <advance width="219"/>
  <unicode hex="003A"/>
  <outline>
    <contour>
      <point x="37" y="234" type="line"/>
      <point x="182" y="234" type="line"/>
      <point x="182" y="383" type="line"/>
      <point x="37" y="383" type="line"/>
    </contour>
    <contour>
      <point x="37" y="112" type="line"/>
      <point x="182" y="112" type="line"/>
      <point x="182" y="260" type="line"/>
      <point x="37" y="260" type="line"/>
    </contour>
  </outline>
</glyph>
<glyph name="semicolon" format="1">
  <advance width="219"/>
  <unicode hex="003B"/>
  <outline>
    <contour>
      <point x="37" y="148" type="line"/>
      <point x="37" y="-145" type="line"/>
      <point x="82" y="-145" type="line"/>
      <point x="182" y="68" type="line"/>
      <point x="182" y="148" type="line"/>
    </contour>
    <contour>
      <point x="37" y="346" type="line"/>
      <point x="182" y="346" type="line"/>
      <point x="182" y="495" type="line"/>
      <point x="37" y="495" type="line"/>
    </contour>
  </outline>
</glyph>
<glyph name="less" format="1">
  <advance width="490"/>
  <unicode hex="003C"/>
  <outline>
    <contour>
      <point x="464" y="401" type="line"/>
      <point x="464" y="515" type="line"/>
      <point x="27" y="384" type="line"/>
      <point x="27" y="258" type="line"/>
      <point x="464" y="121" type="line"/>
      <point x="464" y="236" type="line"/>
      <point x="163" y="319" type="line"/>
    </contour>
  </outline>
</glyph>
<glyph name="equal" format="1">
  <advance width="490"/>
  <unicode hex="003D"/>
  <outline>
    <contour>
      <point x="27" y="363" type="line"/>
      <point x="464" y="363" type="line"/>
      <point x="464" y="471" type="line"/>
      <point x="27" y="471" type="line"/>
    </contour>
    <contour>
      <point x="27" y="163" type="line"/>
      <point x="464" y="163" type="line"/>
      <point x="464" y="271" type="line"/>
      <point x="27" y="271" type="line"/>
    </contour>
  </outline>
</glyph>
<glyph name="greater" format="1">
  <advance width="490"/>
  <unicode hex="003E"/>
  <outline>
    <contour>
      <point x="327" y="319" type="line"/>
      <point x="27" y="236" type="line"/>
      <point x="27" y="121" type="line"/>
      <point x="464" y="258" type="line"/>
      <point x="464" y="384" type="line"/>
      <point x="27" y="515" type="line"/>
      <point x="27" y="401" type="line"/>
    </contour>
  </outline>
</glyph>
<glyph name="question" format="1">
  <advance width="421"/>
  <unicode hex="003F"/>
  <outline>
    <contour>
      <point x="250" y="392" type="line"/>
      <point x="250" y="374"/>
      <point x="244" y="367"/>
      <point x="224" y="367" type="curve" smooth="yes"/>
      <point x="176" y="367" type="line"/>
      <point x="176" y="285" type="line"/>
      <point x="267" y="285" type="line" smooth="yes"/>
      <point x="358" y="285"/>
      <point x="393" y="328"/>
      <point x="393" y="395" type="curve" smooth="yes"/>
      <point x="393" y="526" type="line" smooth="yes"/>
      <point x="393" y="593"/>
      <point x="358" y="636"/>
      <point x="267" y="636" type="curve" smooth="yes"/>
      <point x="197" y="636" type="line"/>
      <point x="197" y="538" type="line"/>
      <point x="224" y="538" type="line" smooth="yes"/>
      <point x="244" y="538"/>
      <point x="250" y="531"/>
      <point x="250" y="513" type="curve" smooth="yes"/>
    </contour>
    <contour>
      <point x="127" y="367" type="line"/>
      <point x="140" y="222" type="line"/>
      <point x="259" y="222" type="line"/>
      <point x="272" y="367" type="line"/>
    </contour>
    <contour>
      <point x="125" y="0" type="line"/>
      <point x="270" y="0" type="line"/>
      <point x="270" y="148" type="line"/>
      <point x="125" y="148" type="line"/>
    </contour>
    <contour>
      <point x="163" y="513" type="line"/>
      <point x="163" y="531"/>
      <point x="170" y="538"/>
      <point x="189" y="538" type="curve" smooth="yes"/>
      <point x="208" y="538" type="line"/>
      <point x="208" y="636" type="line"/>
      <point x="147" y="636" type="line" smooth="yes"/>
      <point x="55" y="636"/>
      <point x="20" y="593"/>
      <point x="20" y="526" type="curve" smooth="yes"/>
      <point x="20" y="444" type="line"/>
      <point x="163" y="444" type="line"/>
    </contour>
  </outline>
</glyph>
<glyph name="at" format="1">
  <advance width="799"/>
  <unicode hex="0040"/>
  <outline>
    <contour>
      <point x="242" y="331" type="curve"/>
      <point x="242" y="183" type="line" smooth="yes"/>
      <point x="242" y="120"/>
      <point x="274" y="80"/>
      <point x="350" y="80" type="curve" smooth="yes"/>
      <point x="370" y="80" type="line" smooth="yes"/>
      <point x="414" y="80"/>
      <point x="441" y="100"/>
      <point x="448" y="138" type="curve"/>
      <point x="448" y="80" type="line"/>
      <point x="637" y="80" type="line" smooth="yes"/>
      <point x="719" y="80"/>
      <point x="753" y="122"/>
      <point x="753" y="191" type="curve" smooth="yes"/>
      <point x="753" y="491" type="line" smooth="yes"/>
      <point x="753" y="560"/>
      <point x="720" y="602"/>
      <point x="638" y="602" type="curve" smooth="yes"/>
      <point x="170" y="602" type="line" smooth="yes"/>
      <point x="88" y="602"/>
      <point x="54" y="560"/>
      <point x="54" y="491" type="curve" smooth="yes"/>
      <point x="54" y="19" type="line" smooth="yes"/>
      <point x="54" y="-49"/>
      <point x="88" y="-91"/>
      <point x="170" y="-91" type="curve" smooth="yes"/>
      <point x="561" y="-91" type="line"/>
      <point x="561" y="8" type="line"/>
      <point x="206" y="8" type="line" smooth="yes"/>
      <point x="186" y="8"/>
      <point x="179" y="14"/>
      <point x="179" y="32" type="curve" smooth="yes"/>
      <point x="179" y="478" type="line" smooth="yes"/>
      <point x="179" y="496"/>
      <point x="186" y="503"/>
      <point x="206" y="503" type="curve" smooth="yes"/>
      <point x="604" y="503" type="line" smooth="yes"/>
      <point x="624" y="503"/>
      <point x="631" y="496"/>
      <point x="631" y="478" type="curve" smooth="yes"/>
      <point x="631" y="196" type="line" smooth="yes"/>
      <point x="631" y="177"/>
      <point x="624" y="171"/>
      <point x="604" y="171" type="curve" smooth="yes"/>
      <point x="560" y="171" type="line"/>
      <point x="560" y="434" type="line"/>
      <point x="445" y="434" type="line"/>
      <point x="445" y="383" type="line"/>
      <point x="436" y="416"/>
      <point x="411" y="434"/>
      <point x="370" y="434" type="curve" smooth="yes"/>
      <point x="350" y="434" type="line" smooth="yes"/>
      <point x="274" y="434"/>
      <point x="242" y="395"/>
    </contour>
    <contour>
      <point x="365" y="320" type="line"/>
      <point x="365" y="337"/>
      <point x="371" y="343"/>
      <point x="389" y="343" type="curve" smooth="yes"/>
      <point x="416" y="343" type="line" smooth="yes"/>
      <point x="434" y="343"/>
      <point x="443" y="335"/>
      <point x="443" y="313" type="curve" smooth="yes"/>
      <point x="443" y="201" type="line" smooth="yes"/>
      <point x="443" y="180"/>
      <point x="434" y="172"/>
      <point x="416" y="172" type="curve" smooth="yes"/>
      <point x="389" y="172" type="line" smooth="yes"/>
      <point x="371" y="172"/>
      <point x="365" y="177"/>
      <point x="365" y="195" type="curve" smooth="yes"/>
    </contour>
  </outline>
</glyph>
<glyph name="A" format="1">
  <advance width="483"/>
  <unicode hex="0041"/>
  <outline>
    <contour>
      <point x="380" y="219" type="line"/>
      <point x="103" y="219" type="line"/>
      <point x="103" y="115" type="line"/>
      <point x="380" y="115" type="line"/>
    </contour>
    <contour>
      <point x="479" y="0" type="line"/>
      <point x="331" y="636" type="line"/>
      <point x="149" y="636" type="line"/>
      <point x="5" y="0" type="line"/>
      <point x="146" y="0" type="line"/>
      <point x="240" y="488" type="line"/>
      <point x="335" y="0" type="line"/>
    </contour>
  </outline>
</glyph>
<glyph name="B" format="1">
  <advance width="476"/>
  <unicode hex="0042"/>
  <outline>
    <contour>
      <point x="45" y="636" type="line"/>
      <point x="45" y="0" type="line"/>
      <point x="309" y="0" type="line" smooth="yes"/>
      <point x="400" y="0"/>
      <point x="436" y="42"/>
      <point x="436" y="111" type="curve"/>
      <point x="436" y="235" type="line" smooth="yes"/>
      <point x="436" y="279"/>
      <point x="426" y="308"/>
      <point x="391" y="321" type="curve"/>
      <point x="426" y="336"/>
      <point x="436" y="369"/>
      <point x="436" y="414" type="curve" smooth="yes"/>
      <point x="436" y="526" type="line" smooth="yes"/>
      <point x="436" y="594"/>
      <point x="400" y="636"/>
      <point x="309" y="636" type="curve" smooth="yes"/>
    </contour>
    <contour>
      <point x="295" y="123" type="line"/>
      <point x="295" y="105"/>
      <point x="288" y="98"/>
      <point x="268" y="98" type="curve" smooth="yes"/>
      <point x="186" y="98" type="line"/>
      <point x="186" y="271" type="line"/>
      <point x="268" y="271" type="line" smooth="yes"/>
      <point x="288" y="271"/>
      <point x="295" y="265"/>
      <point x="295" y="247" type="curve"/>
    </contour>
    <contour>
      <point x="295" y="394" type="line"/>
      <point x="295" y="376"/>
      <point x="288" y="369"/>
      <point x="268" y="369" type="curve" smooth="yes"/>
      <point x="186" y="369" type="line"/>
      <point x="186" y="538" type="line"/>
      <point x="268" y="538" type="line" smooth="yes"/>
      <point x="288" y="538"/>
      <point x="295" y="531"/>
      <point x="295" y="513" type="curve" smooth="yes"/>
    </contour>
  </outline>
</glyph>
<glyph name="C" format="1">
  <advance width="450"/>
  <unicode hex="0043"/>
  <outline>
    <contour>
      <point x="183" y="513" type="line"/>
      <point x="183" y="531"/>
      <point x="190" y="538"/>
      <point x="210" y="538" type="curve" smooth="yes"/>
      <point x="239" y="538" type="line"/>
      <point x="239" y="636" type="line"/>
      <point x="166" y="636" type="line" smooth="yes"/>
      <point x="75" y="636"/>
      <point x="40" y="594"/>
      <point x="40" y="526" type="curve" smooth="yes"/>
      <point x="40" y="110" type="line" smooth="yes"/>
      <point x="40" y="42"/>
      <point x="75" y="0"/>
      <point x="166" y="0" type="curve"/>
      <point x="236" y="0" type="line"/>
      <point x="236" y="98" type="line"/>
      <point x="210" y="98" type="line" smooth="yes"/>
      <point x="190" y="98"/>
      <point x="183" y="104"/>
      <point x="183" y="123" type="curve" smooth="yes"/>
    </contour>
    <contour>
      <point x="277" y="413" type="line"/>
      <point x="421" y="413" type="line"/>
      <point x="421" y="526" type="line" smooth="yes"/>
      <point x="421" y="594"/>
      <point x="385" y="636"/>
      <point x="294" y="636" type="curve" smooth="yes"/>
      <point x="222" y="636" type="line"/>
      <point x="222" y="538" type="line"/>
      <point x="251" y="538" type="line" smooth="yes"/>
      <point x="270" y="538"/>
      <point x="277" y="531"/>
      <point x="277" y="513" type="curve" smooth="yes"/>
    </contour>
    <contour>
      <point x="277" y="123" type="line"/>
      <point x="277" y="104"/>
      <point x="270" y="98"/>
      <point x="251" y="98" type="curve" smooth="yes"/>
      <point x="222" y="98" type="line"/>
      <point x="222" y="0" type="line"/>
      <point x="294" y="0" type="line" smooth="yes"/>
      <point x="385" y="0"/>
      <point x="421" y="42"/>
      <point x="421" y="110" type="curve" smooth="yes"/>
      <point x="421" y="220" type="line"/>
      <point x="277" y="220" type="line"/>
    </contour>
  </outline>
</glyph>
<glyph name="D" format="1">
  <advance width="485"/>
  <unicode hex="0044"/>
  <outline>
    <contour>
      <point x="301" y="381" type="line"/>
      <point x="444" y="381" type="line"/>
      <point x="444" y="526" type="line" smooth="yes"/>
      <point x="444" y="594"/>
      <point x="408" y="636"/>
      <point x="317" y="636" type="curve" smooth="yes"/>
      <point x="104" y="636" type="line"/>
      <point x="104" y="538" type="line"/>
      <point x="274" y="538" type="line" smooth="yes"/>
      <point x="293" y="538"/>
      <point x="301" y="531"/>
      <point x="301" y="513" type="curve" smooth="yes"/>
    </contour>
    <contour>
      <point x="301" y="123" type="line"/>
      <point x="301" y="105"/>
      <point x="293" y="98"/>
      <point x="274" y="98" type="curve" smooth="yes"/>
      <point x="104" y="98" type="line"/>
      <point x="104" y="0" type="line"/>
      <point x="317" y="0" type="line" smooth="yes"/>
      <point x="408" y="0"/>
      <point x="444" y="42"/>
      <point x="444" y="111" type="curve" smooth="yes"/>
      <point x="444" y="398" type="line"/>
      <point x="301" y="398" type="line"/>
    </contour>
    <contour>
      <point x="52" y="636" type="line"/>
      <point x="52" y="0" type="line"/>
      <point x="195" y="0" type="line"/>
      <point x="195" y="636" type="line"/>
    </contour>
  </outline>
</glyph>
<glyph name="E" format="1">
  <advance width="409"/>
  <unicode hex="0045"/>
  <outline>
    <contour>
      <point x="45" y="636" type="line"/>
      <point x="45" y="0" type="line"/>
      <point x="188" y="0" type="line"/>
      <point x="188" y="636" type="line"/>
    </contour>
    <contour>
      <point x="355" y="376" type="line"/>
      <point x="110" y="376" type="line"/>
      <point x="110" y="271" type="line"/>
      <point x="355" y="271" type="line"/>
    </contour>
    <contour>
      <point x="384" y="636" type="line"/>
      <point x="101" y="636" type="line"/>
      <point x="101" y="531" type="line"/>
      <point x="384" y="531" type="line"/>
    </contour>
    <contour>
      <point x="392" y="105" type="line"/>
      <point x="101" y="105" type="line"/>
      <point x="101" y="0" type="line"/>
      <point x="392" y="0" type="line"/>
    </contour>
  </outline>
</glyph>
<glyph name="F" format="1">
  <advance width="399"/>
  <unicode hex="0046"/>
  <outline>
    <contour>
      <point x="45" y="636" type="line"/>
      <point x="45" y="0" type="line"/>
      <point x="188" y="0" type="line"/>
      <point x="188" y="636" type="line"/>
    </contour>
    <contour>
      <point x="355" y="356" type="line"/>
      <point x="111" y="356" type="line"/>
      <point x="111" y="257" type="line"/>
      <point x="355" y="257" type="line"/>
    </contour>
    <contour>
      <point x="387" y="636" type="line"/>
      <point x="101" y="636" type="line"/>
      <point x="101" y="531" type="line"/>
      <point x="387" y="531" type="line"/>
    </contour>
  </outline>
</glyph>
<glyph name="G" format="1">
  <advance width="456"/>
  <unicode hex="0047"/>
  <outline>
    <contour>
      <point x="183" y="513" type="line"/>
      <point x="183" y="531"/>
      <point x="190" y="538"/>
      <point x="210" y="538" type="curve" smooth="yes"/>
      <point x="239" y="538" type="line"/>
      <point x="239" y="636" type="line"/>
      <point x="166" y="636" type="line" smooth="yes"/>
      <point x="75" y="636"/>
      <point x="40" y="594"/>
      <point x="40" y="526" type="curve" smooth="yes"/>
      <point x="40" y="110" type="line" smooth="yes"/>
      <point x="40" y="42"/>
      <point x="75" y="0"/>
      <point x="166" y="0" type="curve"/>
      <point x="234" y="0" type="line"/>
      <point x="234" y="98" type="line"/>
      <point x="210" y="98" type="line" smooth="yes"/>
      <point x="190" y="98"/>
      <point x="183" y="104"/>
      <point x="183" y="123" type="curve" smooth="yes"/>
    </contour>
    <contour>
      <point x="421" y="342" type="line"/>
      <point x="228" y="342" type="line"/>
      <point x="228" y="247" type="line"/>
      <point x="421" y="247" type="line"/>
    </contour>
    <contour>
      <point x="278" y="430" type="line"/>
      <point x="421" y="430" type="line"/>
      <point x="421" y="526" type="line" smooth="yes"/>
      <point x="421" y="594"/>
      <point x="385" y="636"/>
      <point x="295" y="636" type="curve" smooth="yes"/>
      <point x="222" y="636" type="line"/>
      <point x="222" y="538" type="line"/>
      <point x="251" y="538" type="line" smooth="yes"/>
      <point x="271" y="538"/>
      <point x="278" y="531"/>
      <point x="278" y="513" type="curve" smooth="yes"/>
    </contour>
    <contour>
      <point x="278" y="123" type="line"/>
      <point x="278" y="104"/>
      <point x="271" y="98"/>
      <point x="251" y="98" type="curve" smooth="yes"/>
      <point x="225" y="98" type="line"/>
      <point x="225" y="0" type="line"/>
      <point x="295" y="0" type="line" smooth="yes"/>
      <point x="385" y="0"/>
      <point x="421" y="42"/>
      <point x="421" y="110" type="curve" smooth="yes"/>
      <point x="421" y="277" type="line"/>
      <point x="278" y="277" type="line"/>
    </contour>
  </outline>
</glyph>
<glyph name="H" format="1">
  <advance width="500"/>
  <unicode hex="0048"/>
  <outline>
    <contour>
      <point x="338" y="367" type="line"/>
      <point x="156" y="367" type="line"/>
      <point x="156" y="262" type="line"/>
      <point x="338" y="262" type="line"/>
    </contour>
    <contour>
      <point x="45" y="636" type="line"/>
      <point x="45" y="0" type="line"/>
      <point x="186" y="0" type="line"/>
      <point x="186" y="636" type="line"/>
    </contour>
    <contour>
      <point x="314" y="636" type="line"/>
      <point x="314" y="0" type="line"/>
      <point x="455" y="0" type="line"/>
      <point x="455" y="636" type="line"/>
    </contour>
  </outline>
</glyph>
<glyph name="I" format="1">
  <advance width="238"/>
  <unicode hex="0049"/>
  <outline>
    <contour>
      <point x="48" y="636" type="line"/>
      <point x="48" y="0" type="line"/>
      <point x="190" y="0" type="line"/>
      <point x="190" y="636" type="line"/>
    </contour>
  </outline>
</glyph>
<glyph name="J" format="1">
  <advance width="410"/>
  <unicode hex="004A"/>
  <outline>
    <contour>
      <point x="12" y="238" type="line"/>
      <point x="12" y="111" type="line" smooth="yes"/>
      <point x="12" y="42"/>
      <point x="47" y="0"/>
      <point x="138" y="0" type="curve" smooth="yes"/>
      <point x="243" y="0" type="line" smooth="yes"/>
      <point x="334" y="0"/>
      <point x="369" y="42"/>
      <point x="369" y="111" type="curve" smooth="yes"/>
      <point x="369" y="636" type="line"/>
      <point x="226" y="636" type="line"/>
      <point x="226" y="130" type="line" smooth="yes"/>
      <point x="226" y="112"/>
      <point x="219" y="105"/>
      <point x="199" y="105" type="curve" smooth="yes"/>
      <point x="182" y="105" type="line" smooth="yes"/>
      <point x="162" y="105"/>
      <point x="155" y="112"/>
      <point x="155" y="130" type="curve" smooth="yes"/>
      <point x="155" y="238" type="line"/>
    </contour>
  </outline>
</glyph>
<glyph name="K" format="1">
  <advance width="475"/>
  <unicode hex="004B"/>
  <outline>
    <contour>
      <point x="190" y="322" type="line"/>
      <point x="313" y="0" type="line"/>
      <point x="467" y="0" type="line"/>
      <point x="339" y="322" type="line"/>
    </contour>
    <contour>
      <point x="339" y="322" type="line"/>
      <point x="467" y="636" type="line"/>
      <point x="313" y="636" type="line"/>
      <point x="190" y="322" type="line"/>
    </contour>
    <contour>
      <point x="45" y="636" type="line"/>
      <point x="45" y="0" type="line"/>
      <point x="187" y="0" type="line"/>
      <point x="187" y="636" type="line"/>
    </contour>
  </outline>
</glyph>
<glyph name="L" format="1">
  <advance width="371"/>
  <unicode hex="004C"/>
  <outline>
    <contour>
      <point x="45" y="636" type="line"/>
      <point x="45" y="0" type="line"/>
      <point x="187" y="0" type="line"/>
      <point x="187" y="636" type="line"/>
    </contour>
    <contour>
      <point x="97" y="0" type="line"/>
      <point x="370" y="0" type="line"/>
      <point x="370" y="105" type="line"/>
      <point x="97" y="105" type="line"/>
    </contour>
  </outline>
</glyph>
<glyph name="M" format="1">
  <advance width="612"/>
  <unicode hex="004D"/>
  <outline>
    <contour>
      <point x="359" y="138" type="line"/>
      <point x="441" y="427" type="line"/>
      <point x="441" y="0" type="line"/>
      <point x="567" y="0" type="line"/>
      <point x="567" y="636" type="line"/>
      <point x="411" y="636" type="line"/>
      <point x="306" y="276" type="line"/>
      <point x="201" y="636" type="line"/>
      <point x="45" y="636" type="line"/>
      <point x="45" y="0" type="line"/>
      <point x="171" y="0" type="line"/>
      <point x="171" y="426" type="line"/>
      <point x="253" y="138" type="line"/>
    </contour>
  </outline>
</glyph>
<glyph name="N" format="1">
  <advance width="486"/>
  <unicode hex="004E"/>
  <outline>
    <contour>
      <point x="311" y="636" type="line"/>
      <point x="311" y="256" type="line"/>
      <point x="174" y="636" type="line"/>
      <point x="45" y="636" type="line"/>
      <point x="45" y="0" type="line"/>
      <point x="175" y="0" type="line"/>
      <point x="175" y="381" type="line"/>
      <point x="314" y="0" type="line"/>
      <point x="442" y="0" type="line"/>
      <point x="442" y="636" type="line"/>
    </contour>
  </outline>
</glyph>
<glyph name="P" format="1">
  <advance width="456"/>
  <unicode hex="0050"/>
  <outline>
    <contour>
      <point x="290" y="352" type="line"/>
      <point x="290" y="334"/>
      <point x="283" y="327"/>
      <point x="264" y="327" type="curve" smooth="yes"/>
      <point x="97" y="327" type="line"/>
      <point x="97" y="222" type="line"/>
      <point x="307" y="222" type="line" smooth="yes"/>
      <point x="398" y="222"/>
      <point x="433" y="264"/>
      <point x="433" y="333" type="curve" smooth="yes"/>
      <point x="433" y="526" type="line" smooth="yes"/>
      <point x="433" y="594"/>
      <point x="398" y="636"/>
      <point x="307" y="636" type="curve" smooth="yes"/>
      <point x="85" y="636" type="line"/>
      <point x="85" y="531" type="line"/>
      <point x="264" y="531" type="line" smooth="yes"/>
      <point x="283" y="531"/>
      <point x="290" y="524"/>
      <point x="290" y="506" type="curve" smooth="yes"/>
    </contour>
    <contour>
      <point x="45" y="636" type="line"/>
      <point x="45" y="0" type="line"/>
      <point x="187" y="0" type="line"/>
      <point x="187" y="636" type="line"/>
    </contour>
  </outline>
</glyph>
<glyph name="Q" format="1">
  <advance width="469"/>
  <unicode hex="0051"/>
  <outline>
    <contour>
      <point x="285" y="304" type="line"/>
      <point x="428" y="304" type="line"/>
      <point x="428" y="526" type="line" smooth="yes"/>
      <point x="428" y="594"/>
      <point x="393" y="636"/>
      <point x="302" y="636" type="curve" smooth="yes"/>
      <point x="225" y="636" type="line"/>
      <point x="225" y="531" type="line"/>
      <point x="259" y="531" type="line" smooth="yes"/>
      <point x="278" y="531"/>
      <point x="285" y="524"/>
      <point x="285" y="506" type="curve" smooth="yes"/>
    </contour>
    <contour>
      <point x="285" y="130" type="line"/>
      <point x="285" y="112"/>
      <point x="278" y="105"/>
      <point x="259" y="105" type="curve" smooth="yes"/>
      <point x="223" y="105" type="line"/>
      <point x="223" y="0" type="line"/>
      <point x="302" y="0" type="line" smooth="yes"/>
      <point x="393" y="0"/>
      <point x="428" y="42"/>
      <point x="428" y="111" type="curve" smooth="yes"/>
      <point x="428" y="328" type="line"/>
      <point x="285" y="328" type="line"/>
    </contour>
    <contour>
      <point x="184" y="506" type="line"/>
      <point x="184" y="524"/>
      <point x="191" y="531"/>
      <point x="211" y="531" type="curve" smooth="yes"/>
      <point x="244" y="531" type="line"/>
      <point x="244" y="636" type="line"/>
      <point x="168" y="636" type="line" smooth="yes"/>
      <point x="77" y="636"/>
      <point x="41" y="594"/>
      <point x="41" y="526" type="curve" smooth="yes"/>
      <point x="41" y="304" type="line"/>
      <point x="184" y="304" type="line"/>
    </contour>
    <contour>
      <point x="184" y="331" type="line"/>
      <point x="41" y="331" type="line"/>
      <point x="41" y="111" type="line" smooth="yes"/>
      <point x="41" y="42"/>
      <point x="77" y="0"/>
      <point x="168" y="0" type="curve" smooth="yes"/>
      <point x="243" y="0" type="line"/>
      <point x="243" y="105" type="line"/>
      <point x="211" y="105" type="line" smooth="yes"/>
      <point x="191" y="105"/>
      <point x="184" y="112"/>
      <point x="184" y="130" type="curve" smooth="yes"/>
    </contour>
    <contour>
      <point x="158" y="98" type="line"/>
      <point x="309" y="-77" type="line"/>
      <point x="468" y="-77" type="line"/>
      <point x="315" y="98" type="line"/>
    </contour>
  </outline>
</glyph>
<glyph name="S" format="1">
  <advance width="442"/>
  <unicode hex="0053"/>
  <outline>
    <contour>
      <point x="266" y="130" type="line"/>
      <point x="266" y="112"/>
      <point x="259" y="105"/>
      <point x="239" y="105" type="curve"/>
      <point x="205" y="105" type="line" smooth="yes"/>
      <point x="185" y="105"/>
      <point x="178" y="112"/>
      <point x="178" y="130" type="curve" smooth="yes"/>
      <point x="178" y="193" type="line"/>
      <point x="35" y="193" type="line"/>
      <point x="35" y="111" type="line" smooth="yes"/>
      <point x="35" y="42"/>
      <point x="71" y="0"/>
      <point x="162" y="0" type="curve" smooth="yes"/>
      <point x="283" y="0" type="line" smooth="yes"/>
      <point x="374" y="0"/>
      <point x="409" y="42"/>
      <point x="409" y="111" type="curve" smooth="yes"/>
      <point x="409" y="261" type="line" smooth="yes"/>
      <point x="409" y="329"/>
      <point x="378" y="370"/>
      <point x="289" y="370" type="curve" smooth="yes"/>
      <point x="203" y="370" type="line" smooth="yes"/>
      <point x="183" y="370"/>
      <point x="176" y="376"/>
      <point x="176" y="394" type="curve" smooth="yes"/>
      <point x="176" y="506" type="line" smooth="yes"/>
      <point x="176" y="524"/>
      <point x="183" y="531"/>
      <point x="203" y="531" type="curve" smooth="yes"/>
      <point x="237" y="531" type="line" smooth="yes"/>
      <point x="257" y="531"/>
      <point x="264" y="524"/>
      <point x="264" y="506" type="curve" smooth="yes"/>
      <point x="264" y="443" type="line"/>
      <point x="407" y="443" type="line"/>
      <point x="407" y="526" type="line" smooth="yes"/>
      <point x="407" y="594"/>
      <point x="372" y="636"/>
      <point x="281" y="636" type="curve" smooth="yes"/>
      <point x="159" y="636" type="line" smooth="yes"/>
      <point x="68" y="636"/>
      <point x="33" y="594"/>
      <point x="33" y="526" type="curve" smooth="yes"/>
      <point x="33" y="381" type="line" smooth="yes"/>
      <point x="33" y="313"/>
      <point x="63" y="269"/>
      <point x="151" y="269" type="curve" smooth="yes"/>
      <point x="239" y="269" type="line" smooth="yes"/>
      <point x="259" y="269"/>
      <point x="266" y="263"/>
      <point x="266" y="245" type="curve" smooth="yes"/>
    </contour>
  </outline>
</glyph>
<glyph name="T" format="1">
  <advance width="386"/>
  <unicode hex="0054"/>
  <outline>
    <contour>
      <point x="121" y="594" type="line"/>
      <point x="121" y="0" type="line"/>
      <point x="264" y="0" type="line"/>
      <point x="264" y="594" type="line"/>
    </contour>
    <contour>
      <point x="381" y="636" type="line"/>
      <point x="5" y="636" type="line"/>
      <point x="5" y="531" type="line"/>
      <point x="381" y="531" type="line"/>
    </contour>
  </outline>
</glyph>
<glyph name="U" format="1">
  <advance width="475"/>
  <unicode hex="0055"/>
  <outline>
    <contour>
      <point x="288" y="130" type="line"/>
      <point x="288" y="112"/>
      <point x="281" y="105"/>
      <point x="261" y="105" type="curve" smooth="yes"/>
      <point x="226" y="105" type="line"/>
      <point x="226" y="0" type="line"/>
      <point x="304" y="0" type="line" smooth="yes"/>
      <point x="395" y="0"/>
      <point x="431" y="42"/>
      <point x="431" y="111" type="curve" smooth="yes"/>
      <point x="431" y="636" type="line"/>
      <point x="288" y="636" type="line"/>
    </contour>
    <contour>
      <point x="187" y="636" type="line"/>
      <point x="44" y="636" type="line"/>
      <point x="44" y="111" type="line" smooth="yes"/>
      <point x="44" y="42"/>
      <point x="79" y="0"/>
      <point x="170" y="0" type="curve" smooth="yes"/>
      <point x="246" y="0" type="line"/>
      <point x="246" y="105" type="line"/>
      <point x="213" y="105" type="line" smooth="yes"/>
      <point x="194" y="105"/>
      <point x="187" y="112"/>
      <point x="187" y="130" type="curve" smooth="yes"/>
    </contour>
  </outline>
</glyph>
<glyph name="V" format="1">
  <advance width="469"/>
  <unicode hex="0056"/>
  <outline>
    <contour>
      <point x="314" y="636" type="line"/>
      <point x="234" y="164" type="line"/>
      <point x="155" y="636" type="line"/>
      <point x="6" y="636" type="line"/>
      <point x="147" y="0" type="line"/>
      <point x="322" y="0" type="line"/>
      <point x="462" y="636" type="line"/>
    </contour>
  </outline>
</glyph>
<glyph name="W" format="1">
  <advance width="750"/>
  <unicode hex="0057"/>
  <outline>
    <contour>
      <point x="598" y="636" type="line"/>
      <point x="531" y="161" type="line"/>
      <point x="447" y="636" type="line"/>
      <point x="302" y="636" type="line"/>
      <point x="218" y="161" type="line"/>
      <point x="158" y="636" type="line"/>
      <point x="10" y="636" type="line"/>
      <point x="133" y="0" type="line"/>
      <point x="304" y="0" type="line"/>
      <point x="375" y="416" type="line"/>
      <point x="446" y="0" type="line"/>
      <point x="617" y="0" type="line"/>
      <point x="740" y="636" type="line"/>
    </contour>
  </outline>
</glyph>
<glyph name="X" format="1">
  <advance width="465"/>
  <unicode hex="0058"/>
  <outline>
    <contour>
      <point x="309" y="324" type="line"/>
      <point x="444" y="636" type="line"/>
      <point x="290" y="636" type="line"/>
      <point x="229" y="449" type="line"/>
      <point x="168" y="636" type="line"/>
      <point x="7" y="636" type="line"/>
      <point x="149" y="324" type="line"/>
      <point x="2" y="0" type="line"/>
      <point x="154" y="0" type="line"/>
      <point x="229" y="202" type="line"/>
      <point x="303" y="0" type="line"/>
      <point x="463" y="0" type="line"/>
    </contour>
  </outline>
</glyph>
<glyph name="Y" format="1">
  <advance width="459"/>
  <unicode hex="0059"/>
  <outline>
    <contour>
      <point x="297" y="182" type="line"/>
      <point x="458" y="636" type="line"/>
      <point x="312" y="636" type="line"/>
      <point x="233" y="337" type="line"/>
      <point x="148" y="636" type="line"/>
      <point x="2" y="636" type="line"/>
      <point x="171" y="182" type="line"/>
    </contour>
    <contour>
      <point x="162" y="259" type="line"/>
      <point x="162" y="0" type="line"/>
      <point x="305" y="0" type="line"/>
      <point x="305" y="259" type="line"/>
    </contour>
  </outline>
</glyph>
<glyph name="Z" format="1">
  <advance width="407"/>
  <unicode hex="005A"/>
  <outline>
    <contour>
      <point x="391" y="636" type="line"/>
      <point x="28" y="636" type="line"/>
      <point x="28" y="531" type="line"/>
      <point x="391" y="531" type="line"/>
    </contour>
    <contour>
      <point x="243" y="531" type="line"/>
      <point x="16" y="105" type="line"/>
      <point x="164" y="105" type="line"/>
      <point x="391" y="531" type="line"/>
    </contour>
    <contour>
      <point x="385" y="105" type="line"/>
      <point x="16" y="105" type="line"/>
      <point x="16" y="0" type="line"/>
      <point x="385" y="0" type="line"/>
    </contour>
  </outline>
</glyph>
<glyph name="bracketleft" format="1">
  <advance width="315"/>
  <unicode hex="005B"/>
  <outline>
    <contour>
      <point x="100" y="683" type="line"/>
      <point x="285" y="683" type="line"/>
      <point x="285" y="788" type="line"/>
      <point x="100" y="788" type="line"/>
    </contour>
    <contour>
      <point x="47" y="788" type="line"/>
      <point x="47" y="-160" type="line"/>
      <point x="190" y="-160" type="line"/>
      <point x="190" y="788" type="line"/>
    </contour>
    <contour>
      <point x="97" y="-160" type="line"/>
      <point x="285" y="-160" type="line"/>
      <point x="285" y="-55" type="line"/>
      <point x="97" y="-55" type="line"/>
    </contour>
  </outline>
</glyph>
<glyph name="backslash" format="1">
  <advance width="403"/>
  <unicode hex="005C"/>
  <outline>
    <contour>
      <point x="-1" y="701" type="line"/>
      <point x="293" y="-83" type="line"/>
      <point x="415" y="-83" type="line"/>
      <point x="121" y="701" type="line"/>
    </contour>
  </outline>
</glyph>
<glyph name="bracketright" format="1">
  <advance width="315"/>
  <unicode hex="005D"/>
  <outline>
    <contour>
      <point x="208" y="788" type="line"/>
      <point x="23" y="788" type="line"/>
      <point x="23" y="683" type="line"/>
      <point x="208" y="683" type="line"/>
    </contour>
    <contour>
      <point x="118" y="788" type="line"/>
      <point x="118" y="-160" type="line"/>
      <point x="261" y="-160" type="line"/>
      <point x="261" y="788" type="line"/>
    </contour>
    <contour>
      <point x="211" y="-55" type="line"/>
      <point x="23" y="-55" type="line"/>
      <point x="23" y="-160" type="line"/>
      <point x="211" y="-160" type="line"/>
    </contour>
  </outline>
</glyph>
<glyph name="asciicircum" format="1">
  <advance width="626"/>
  <unicode hex="005E"/>
  <outline>
    <contour>
      <point x="204" y="670" type="line"/>
      <point x="78" y="294" type="line"/>
      <point x="223" y="294" type="line"/>
      <point x="297" y="549" type="line"/>
      <point x="372" y="294" type="line"/>
      <point x="517" y="294" type="line"/>
      <point x="391" y="670" type="line"/>
    </contour>
  </outline>
</glyph>
<glyph name="underscore" format="1">
  <advance width="474"/>
  <unicode hex="005F"/>
  <outline>
    <contour>
      <point x="0" y="-139" type="line"/>
      <point x="474" y="-139" type="line"/>
      <point x="474" y="-41" type="line"/>
      <point x="0" y="-41" type="line"/>
    </contour>
  </outline>
</glyph>
<glyph name="grave" format="1">
  <advance width="470"/>
  <unicode hex="0060"/>
  <outline>
    <contour>
      <point x="247" y="670" type="line"/>
      <point x="104" y="670" type="line"/>
      <point x="226" y="527" type="line"/>
      <point x="338" y="527" type="line"/>
    </contour>
  </outline>
</glyph>
<glyph name="e" format="1">
  <advance width="429"/>
  <unicode hex="0065"/>
  <outline>
    <contour>
      <point x="168" y="371" type="line"/>
      <point x="168" y="389"/>
      <point x="175" y="395"/>
      <point x="195" y="395" type="curve" smooth="yes"/>
      <point x="224" y="395" type="line"/>
      <point x="224" y="495" type="line"/>
      <point x="161" y="495" type="line" smooth="yes"/>
      <point x="70" y="495"/>
      <point x="35" y="453"/>
      <point x="35" y="384" type="curve" smooth="yes"/>
      <point x="35" y="111" type="line" smooth="yes"/>
      <point x="35" y="42"/>
      <point x="70" y="0"/>
      <point x="161" y="0" type="curve"/>
      <point x="222" y="0" type="line"/>
      <point x="222" y="100" type="line"/>
      <point x="195" y="100" type="line" smooth="yes"/>
      <point x="175" y="100"/>
      <point x="168" y="106"/>
      <point x="168" y="124" type="curve" smooth="yes"/>
    </contour>
    <contour>
      <point x="267" y="228" type="line"/>
      <point x="401" y="228" type="line"/>
      <point x="401" y="384" type="line" smooth="yes"/>
      <point x="401" y="453"/>
      <point x="365" y="495"/>
      <point x="274" y="495" type="curve" smooth="yes"/>
      <point x="216" y="495" type="line"/>
      <point x="216" y="395" type="line"/>
      <point x="241" y="395" type="line" smooth="yes"/>
      <point x="260" y="395"/>
      <point x="267" y="389"/>
      <point x="267" y="371" type="curve" smooth="yes"/>
    </contour>
    <contour>
      <point x="266" y="126" type="line"/>
      <point x="266" y="107"/>
      <point x="259" y="100"/>
      <point x="240" y="100" type="curve" smooth="yes"/>
      <point x="216" y="100" type="line"/>
      <point x="216" y="0" type="line"/>
      <point x="273" y="0" type="line" smooth="yes"/>
      <point x="364" y="0"/>
      <point x="400" y="42"/>
      <point x="400" y="111" type="curve" smooth="yes"/>
      <point x="400" y="159" type="line"/>
      <point x="266" y="159" type="line"/>
    </contour>
    <contour>
      <point x="401" y="291" type="line"/>
      <point x="72" y="291" type="line"/>
      <point x="72" y="209" type="line"/>
      <point x="401" y="209" type="line"/>
    </contour>
  </outline>
</glyph>
<glyph name="f" format="1">
  <advance width="279"/>
  <unicode hex="0066"/>
  <outline>
    <contour>
      <point x="198" y="541" type="line"/>
      <point x="198" y="559"/>
      <point x="205" y="566"/>
      <point x="225" y="566" type="curve" smooth="yes"/>
      <point x="274" y="566" type="line"/>
      <point x="274" y="669" type="line"/>
      <point x="185" y="669" type="line" smooth="yes"/>
      <point x="94" y="669"/>
      <point x="59" y="627"/>
      <point x="59" y="559" type="curve" smooth="yes"/>
      <point x="59" y="0" type="line"/>
      <point x="198" y="0" type="line"/>
    </contour>
    <contour>
      <point x="274" y="495" type="line"/>
      <point x="9" y="495" type="line"/>
      <point x="9" y="390" type="line"/>
      <point x="274" y="390" type="line"/>
    </contour>
  </outline>
</glyph>
<glyph name="g" format="1">
  <advance width="434"/>
  <unicode hex="0067"/>
  <outline>
    <contour>
      <point x="33" y="260" type="line"/>
      <point x="33" y="132" type="line" smooth="yes"/>
      <point x="33" y="63"/>
      <point x="67" y="21"/>
      <point x="150" y="21" type="curve" smooth="yes"/>
      <point x="174" y="21" type="line" smooth="yes"/>
      <point x="229" y="21"/>
      <point x="258" y="51"/>
      <point x="258" y="104" type="curve" smooth="yes"/>
      <point x="258" y="184" type="line"/>
      <point x="253" y="184" type="line"/>
      <point x="253" y="158" type="line" smooth="yes"/>
      <point x="253" y="135"/>
      <point x="243" y="126"/>
      <point x="223" y="126" type="curve" smooth="yes"/>
      <point x="200" y="126" type="line" smooth="yes"/>
      <point x="180" y="126"/>
      <point x="173" y="133"/>
      <point x="173" y="151" type="curve" smooth="yes"/>
      <point x="173" y="260" type="line"/>
    </contour>
    <contour>
      <point x="173" y="235" type="line"/>
      <point x="173" y="365" type="line" smooth="yes"/>
      <point x="173" y="383"/>
      <point x="180" y="390"/>
      <point x="200" y="390" type="curve" smooth="yes"/>
      <point x="223" y="390" type="line" smooth="yes"/>
      <point x="243" y="390"/>
      <point x="253" y="381"/>
      <point x="253" y="358" type="curve" smooth="yes"/>
      <point x="253" y="329" type="line"/>
      <point x="258" y="329" type="line"/>
      <point x="258" y="412" type="line" smooth="yes"/>
      <point x="258" y="465"/>
      <point x="229" y="495"/>
      <point x="174" y="495" type="curve" smooth="yes"/>
      <point x="150" y="495" type="line" smooth="yes"/>
      <point x="67" y="495"/>
      <point x="33" y="453"/>
      <point x="33" y="384" type="curve" smooth="yes"/>
      <point x="33" y="235" type="line"/>
    </contour>
    <contour>
      <point x="253" y="-6" type="line"/>
      <point x="253" y="-25"/>
      <point x="245" y="-31"/>
      <point x="226" y="-31" type="curve" smooth="yes"/>
      <point x="54" y="-31" type="line"/>
      <point x="54" y="-133" type="line"/>
      <point x="266" y="-133" type="line" smooth="yes"/>
      <point x="356" y="-133"/>
      <point x="392" y="-91"/>
      <point x="392" y="-22" type="curve" smooth="yes"/>
      <point x="392" y="32" type="line"/>
      <point x="253" y="32" type="line"/>
    </contour>
    <contour>
      <point x="392" y="20" type="line"/>
      <point x="392" y="495" type="line"/>
      <point x="255" y="495" type="line"/>
      <point x="255" y="413" type="line"/>
      <point x="253" y="412" type="line"/>
      <point x="253" y="20" type="line"/>
    </contour>
  </outline>
</glyph>
<glyph name="h" format="1">
  <advance width="439"/>
  <unicode hex="0068"/>
  <outline>
    <contour>
      <point x="401" y="0" type="line"/>
      <point x="401" y="384" type="line" smooth="yes"/>
      <point x="401" y="453"/>
      <point x="366" y="495"/>
      <point x="284" y="495" type="curve" smooth="yes"/>
      <point x="259" y="495" type="line" smooth="yes"/>
      <point x="205" y="495"/>
      <point x="176" y="465"/>
      <point x="176" y="412" type="curve" smooth="yes"/>
      <point x="176" y="330" type="line"/>
      <point x="181" y="330" type="line"/>
      <point x="181" y="358" type="line" smooth="yes"/>
      <point x="181" y="381"/>
      <point x="191" y="390"/>
      <point x="210" y="390" type="curve" smooth="yes"/>
      <point x="234" y="390" type="line" smooth="yes"/>
      <point x="254" y="390"/>
      <point x="261" y="383"/>
      <point x="261" y="365" type="curve" smooth="yes"/>
      <point x="261" y="0" type="line"/>
    </contour>
    <contour>
      <point x="181" y="0" type="line"/>
      <point x="181" y="669" type="line"/>
      <point x="42" y="669" type="line"/>
      <point x="42" y="0" type="line"/>
    </contour>
  </outline>
</glyph>
<glyph name="i" format="1">
  <advance width="223"/>
  <unicode hex="0069"/>
  <outline>
    <contour>
      <point x="181" y="0" type="line"/>
      <point x="181" y="495" type="line"/>
      <point x="42" y="495" type="line"/>
      <point x="42" y="0" type="line"/>
    </contour>
    <contour>
      <point x="39" y="561" type="line"/>
      <point x="184" y="561" type="line"/>
      <point x="184" y="669" type="line"/>
      <point x="39" y="669" type="line"/>
    </contour>
  </outline>
</glyph>
<glyph name="j" format="1">
  <advance width="223"/>
  <unicode hex="006A"/>
  <outline>
    <contour>
      <point x="42" y="-6" type="line"/>
      <point x="42" y="-25"/>
      <point x="34" y="-31"/>
      <point x="15" y="-31" type="curve" smooth="yes"/>
      <point x="-13" y="-31" type="line"/>
      <point x="-13" y="-133" type="line"/>
      <point x="55" y="-133" type="line" smooth="yes"/>
      <point x="145" y="-133"/>
      <point x="181" y="-91"/>
      <point x="181" y="-22" type="curve" smooth="yes"/>
      <point x="181" y="495" type="line"/>
      <point x="42" y="495" type="line"/>
    </contour>
    <contour>
      <point x="39" y="561" type="line"/>
      <point x="184" y="561" type="line"/>
      <point x="184" y="669" type="line"/>
      <point x="39" y="669" type="line"/>
    </contour>
  </outline>
</glyph>
<glyph name="k" format="1">
  <advance width="430"/>
  <unicode hex="006B"/>
  <outline>
    <contour>
      <point x="181" y="0" type="line"/>
      <point x="181" y="669" type="line"/>
      <point x="42" y="669" type="line"/>
      <point x="42" y="0" type="line"/>
    </contour>
    <contour>
      <point x="182" y="254" type="line"/>
      <point x="286" y="0" type="line"/>
      <point x="432" y="0" type="line"/>
      <point x="323" y="254" type="line"/>
    </contour>
    <contour>
      <point x="323" y="254" type="line"/>
      <point x="432" y="495" type="line"/>
      <point x="287" y="495" type="line"/>
      <point x="182" y="254" type="line"/>
    </contour>
  </outline>
</glyph>
<glyph name="l" format="1">
  <advance width="223"/>
  <unicode hex="006C"/>
  <outline>
    <contour>
      <point x="181" y="0" type="line"/>
      <point x="181" y="669" type="line"/>
      <point x="42" y="669" type="line"/>
      <point x="42" y="0" type="line"/>
    </contour>
  </outline>
</glyph>
<glyph name="m" format="1">
  <advance width="657"/>
  <unicode hex="006D"/>
  <outline>
    <contour>
      <point x="401" y="0" type="line"/>
      <point x="401" y="384" type="line" smooth="yes"/>
      <point x="401" y="453"/>
      <point x="366" y="495"/>
      <point x="284" y="495" type="curve" smooth="yes"/>
      <point x="259" y="495" type="line" smooth="yes"/>
      <point x="205" y="495"/>
      <point x="176" y="465"/>
      <point x="176" y="412" type="curve" smooth="yes"/>
      <point x="176" y="329" type="line"/>
      <point x="181" y="329" type="line"/>
      <point x="181" y="358" type="line" smooth="yes"/>
      <point x="181" y="381"/>
      <point x="191" y="390"/>
      <point x="210" y="390" type="curve" smooth="yes"/>
      <point x="234" y="390" type="line" smooth="yes"/>
      <point x="254" y="390"/>
      <point x="261" y="383"/>
      <point x="261" y="365" type="curve" smooth="yes"/>
      <point x="261" y="0" type="line"/>
    </contour>
    <contour>
      <point x="181" y="0" type="line"/>
      <point x="181" y="411" type="line"/>
      <point x="179" y="413" type="line"/>
      <point x="179" y="495" type="line"/>
      <point x="42" y="495" type="line"/>
      <point x="42" y="0" type="line"/>
    </contour>
    <contour>
      <point x="620" y="0" type="line"/>
      <point x="620" y="384" type="line" smooth="yes"/>
      <point x="620" y="453"/>
      <point x="586" y="495"/>
      <point x="503" y="495" type="curve" smooth="yes"/>
      <point x="479" y="495" type="line" smooth="yes"/>
      <point x="423" y="495"/>
      <point x="385" y="462"/>
      <point x="388" y="410" type="curve" smooth="yes"/>
      <point x="394" y="329" type="line"/>
      <point x="401" y="329" type="line"/>
      <point x="401" y="358" type="line" smooth="yes"/>
      <point x="401" y="381"/>
      <point x="410" y="390"/>
      <point x="430" y="390" type="curve" smooth="yes"/>
      <point x="454" y="390" type="line" smooth="yes"/>
      <point x="473" y="390"/>
      <point x="481" y="383"/>
      <point x="481" y="365" type="curve" smooth="yes"/>
      <point x="481" y="0" type="line"/>
    </contour>
  </outline>
</glyph>
<glyph name="o" format="1">
  <advance width="439"/>
  <unicode hex="006F"/>
  <outline>
    <contour>
      <point x="265" y="204" type="line"/>
      <point x="402" y="204" type="line"/>
      <point x="402" y="384" type="line" smooth="yes"/>
      <point x="402" y="453"/>
      <point x="370" y="495"/>
      <point x="279" y="495" type="curve" smooth="yes"/>
      <point x="217" y="495" type="line"/>
      <point x="217" y="395" type="line"/>
      <point x="238" y="395" type="line" smooth="yes"/>
      <point x="258" y="395"/>
      <point x="265" y="388"/>
      <point x="265" y="370" type="curve" smooth="yes"/>
    </contour>
    <contour>
      <point x="265" y="125" type="line"/>
      <point x="265" y="107"/>
      <point x="258" y="100"/>
      <point x="238" y="100" type="curve" smooth="yes"/>
      <point x="215" y="100" type="line"/>
      <point x="215" y="0" type="line"/>
      <point x="279" y="0" type="line" smooth="yes"/>
      <point x="370" y="0"/>
      <point x="402" y="42"/>
      <point x="402" y="111" type="curve" smooth="yes"/>
      <point x="402" y="228" type="line"/>
      <point x="265" y="228" type="line"/>
    </contour>
    <contour>
      <point x="174" y="370" type="line"/>
      <point x="174" y="388"/>
      <point x="181" y="395"/>
      <point x="201" y="395" type="curve" smooth="yes"/>
      <point x="221" y="395" type="line"/>
      <point x="221" y="495" type="line"/>
      <point x="160" y="495" type="line" smooth="yes"/>
      <point x="69" y="495"/>
      <point x="37" y="453"/>
      <point x="37" y="384" type="curve" smooth="yes"/>
      <point x="37" y="204" type="line"/>
      <point x="174" y="204" type="line"/>
    </contour>
    <contour>
      <point x="174" y="231" type="line"/>
      <point x="37" y="231" type="line"/>
      <point x="37" y="111" type="line" smooth="yes"/>
      <point x="37" y="42"/>
      <point x="69" y="0"/>
      <point x="160" y="0" type="curve" smooth="yes"/>
      <point x="220" y="0" type="line"/>
      <point x="220" y="100" type="line"/>
      <point x="201" y="100" type="line" smooth="yes"/>
      <point x="181" y="100"/>
      <point x="174" y="107"/>
      <point x="174" y="125" type="curve" smooth="yes"/>
    </contour>
  </outline>
</glyph>
<glyph name="p" format="1">
  <advance width="434"/>
  <unicode hex="0070"/>
  <outline>
    <contour>
      <point x="401" y="235" type="line"/>
      <point x="401" y="384" type="line" smooth="yes"/>
      <point x="401" y="453"/>
      <point x="366" y="495"/>
      <point x="284" y="495" type="curve" smooth="yes"/>
      <point x="259" y="495" type="line" smooth="yes"/>
      <point x="205" y="495"/>
      <point x="176" y="465"/>
      <point x="176" y="412" type="curve" smooth="yes"/>
      <point x="176" y="329" type="line"/>
      <point x="181" y="329" type="line"/>
      <point x="181" y="358" type="line" smooth="yes"/>
      <point x="181" y="381"/>
      <point x="191" y="390"/>
      <point x="210" y="390" type="curve" smooth="yes"/>
      <point x="234" y="390" type="line" smooth="yes"/>
      <point x="254" y="390"/>
      <point x="261" y="383"/>
      <point x="261" y="365" type="curve" smooth="yes"/>
      <point x="261" y="235" type="line"/>
    </contour>
    <contour>
      <point x="181" y="-133" type="line"/>
      <point x="181" y="410" type="line"/>
      <point x="179" y="414" type="line"/>
      <point x="179" y="495" type="line"/>
      <point x="42" y="495" type="line"/>
      <point x="42" y="-133" type="line"/>
    </contour>
    <contour>
      <point x="261" y="260" type="line"/>
      <point x="261" y="130" type="line" smooth="yes"/>
      <point x="261" y="112"/>
      <point x="254" y="105"/>
      <point x="234" y="105" type="curve" smooth="yes"/>
      <point x="210" y="105" type="line" smooth="yes"/>
      <point x="191" y="105"/>
      <point x="181" y="114"/>
      <point x="181" y="137" type="curve" smooth="yes"/>
      <point x="181" y="163" type="line"/>
      <point x="176" y="163" type="line"/>
      <point x="176" y="83" type="line" smooth="yes"/>
      <point x="176" y="30"/>
      <point x="205" y="0"/>
      <point x="259" y="0" type="curve" smooth="yes"/>
      <point x="284" y="0" type="line" smooth="yes"/>
      <point x="366" y="0"/>
      <point x="401" y="42"/>
      <point x="401" y="111" type="curve" smooth="yes"/>
      <point x="401" y="260" type="line"/>
    </contour>
  </outline>
</glyph>
<glyph name="q" format="1">
  <advance width="434"/>
  <unicode hex="0071"/>
  <outline>
    <contour>
      <point x="173" y="235" type="line"/>
      <point x="173" y="365" type="line" smooth="yes"/>
      <point x="173" y="383"/>
      <point x="180" y="390"/>
      <point x="200" y="390" type="curve" smooth="yes"/>
      <point x="223" y="390" type="line" smooth="yes"/>
      <point x="243" y="390"/>
      <point x="253" y="381"/>
      <point x="253" y="358" type="curve" smooth="yes"/>
      <point x="253" y="329" type="line"/>
      <point x="258" y="329" type="line"/>
      <point x="258" y="412" type="line" smooth="yes"/>
      <point x="258" y="465"/>
      <point x="229" y="495"/>
      <point x="174" y="495" type="curve" smooth="yes"/>
      <point x="150" y="495" type="line" smooth="yes"/>
      <point x="67" y="495"/>
      <point x="33" y="453"/>
      <point x="33" y="384" type="curve" smooth="yes"/>
      <point x="33" y="235" type="line"/>
    </contour>
    <contour>
      <point x="392" y="-133" type="line"/>
      <point x="392" y="495" type="line"/>
      <point x="255" y="495" type="line"/>
      <point x="255" y="414" type="line"/>
      <point x="253" y="410" type="line"/>
      <point x="253" y="-133" type="line"/>
    </contour>
    <contour>
      <point x="33" y="260" type="line"/>
      <point x="33" y="111" type="line" smooth="yes"/>
      <point x="33" y="42"/>
      <point x="67" y="0"/>
      <point x="150" y="0" type="curve" smooth="yes"/>
      <point x="174" y="0" type="line" smooth="yes"/>
      <point x="229" y="0"/>
      <point x="258" y="30"/>
      <point x="258" y="83" type="curve" smooth="yes"/>
      <point x="258" y="163" type="line"/>
      <point x="253" y="163" type="line"/>
      <point x="253" y="137" type="line" smooth="yes"/>
      <point x="253" y="114"/>
      <point x="243" y="105"/>
      <point x="223" y="105" type="curve" smooth="yes"/>
      <point x="200" y="105" type="line" smooth="yes"/>
      <point x="180" y="105"/>
      <point x="173" y="112"/>
      <point x="173" y="130" type="curve" smooth="yes"/>
      <point x="173" y="260" type="line"/>
    </contour>
  </outline>
</glyph>
<glyph name="s" format="1">
  <advance width="401"/>
  <unicode hex="0073"/>
  <outline>
    <contour>
      <point x="237" y="119" type="line"/>
      <point x="237" y="101"/>
      <point x="230" y="94"/>
      <point x="210" y="94" type="curve"/>
      <point x="193" y="94" type="line" smooth="yes"/>
      <point x="174" y="94"/>
      <point x="167" y="101"/>
      <point x="167" y="119" type="curve" smooth="yes"/>
      <point x="167" y="154" type="line"/>
      <point x="31" y="154" type="line"/>
      <point x="31" y="111" type="line" smooth="yes"/>
      <point x="31" y="42"/>
      <point x="67" y="0"/>
      <point x="157" y="0" type="curve" smooth="yes"/>
      <point x="246" y="0" type="line" smooth="yes"/>
      <point x="337" y="0"/>
      <point x="373" y="42"/>
      <point x="373" y="111" type="curve" smooth="yes"/>
      <point x="373" y="183" type="line" smooth="yes"/>
      <point x="373" y="251"/>
      <point x="339" y="292"/>
      <point x="248" y="292" type="curve" smooth="yes"/>
      <point x="191" y="292" type="line" smooth="yes"/>
      <point x="171" y="292"/>
      <point x="164" y="298"/>
      <point x="164" y="316" type="curve" smooth="yes"/>
      <point x="164" y="376" type="line" smooth="yes"/>
      <point x="164" y="394"/>
      <point x="171" y="400"/>
      <point x="191" y="400" type="curve" smooth="yes"/>
      <point x="206" y="400" type="line" smooth="yes"/>
      <point x="226" y="400"/>
      <point x="233" y="394"/>
      <point x="233" y="376" type="curve" smooth="yes"/>
      <point x="233" y="340" type="line"/>
      <point x="367" y="340" type="line"/>
      <point x="367" y="384" type="line" smooth="yes"/>
      <point x="367" y="453"/>
      <point x="331" y="495"/>
      <point x="240" y="495" type="curve" smooth="yes"/>
      <point x="155" y="495" type="line" smooth="yes"/>
      <point x="64" y="495"/>
      <point x="28" y="453"/>
      <point x="28" y="384" type="curve" smooth="yes"/>
      <point x="28" y="309" type="line" smooth="yes"/>
      <point x="28" y="241"/>
      <point x="62" y="199"/>
      <point x="153" y="199" type="curve" smooth="yes"/>
      <point x="210" y="199" type="line" smooth="yes"/>
      <point x="230" y="199"/>
      <point x="237" y="193"/>
      <point x="237" y="175" type="curve" smooth="yes"/>
    </contour>
  </outline>
</glyph>
<glyph name="t" format="1">
  <advance width="271"/>
  <unicode hex="0074"/>
  <outline>
    <contour>
      <point x="196" y="587" type="line"/>
      <point x="57" y="587" type="line"/>
      <point x="57" y="111" type="line" smooth="yes"/>
      <point x="57" y="42"/>
      <point x="93" y="0"/>
      <point x="183" y="0" type="curve" smooth="yes"/>
      <point x="261" y="0" type="line"/>
      <point x="261" y="107" type="line"/>
      <point x="223" y="107" type="line" smooth="yes"/>
      <point x="204" y="107"/>
      <point x="196" y="113"/>
      <point x="196" y="131" type="curve" smooth="yes"/>
    </contour>
    <contour>
      <point x="261" y="495" type="line"/>
      <point x="5" y="495" type="line"/>
      <point x="5" y="390" type="line"/>
      <point x="261" y="390" type="line"/>
    </contour>
  </outline>
</glyph>
<glyph name="u" format="1">
  <advance width="439"/>
  <unicode hex="0075"/>
  <outline>
    <contour>
      <point x="38" y="495" type="line"/>
      <point x="38" y="111" type="line" smooth="yes"/>
      <point x="38" y="42"/>
      <point x="72" y="0"/>
      <point x="155" y="0" type="curve" smooth="yes"/>
      <point x="179" y="0" type="line" smooth="yes"/>
      <point x="234" y="0"/>
      <point x="263" y="30"/>
      <point x="263" y="83" type="curve" smooth="yes"/>
      <point x="263" y="166" type="line"/>
      <point x="258" y="166" type="line"/>
      <point x="258" y="137" type="line" smooth="yes"/>
      <point x="258" y="114"/>
      <point x="248" y="105"/>
      <point x="228" y="105" type="curve" smooth="yes"/>
      <point x="205" y="105" type="line" smooth="yes"/>
      <point x="185" y="105"/>
      <point x="178" y="112"/>
      <point x="178" y="130" type="curve" smooth="yes"/>
      <point x="178" y="495" type="line"/>
    </contour>
    <contour>
      <point x="258" y="495" type="line"/>
      <point x="258" y="84" type="line"/>
      <point x="260" y="82" type="line"/>
      <point x="260" y="0" type="line"/>
      <point x="397" y="0" type="line"/>
      <point x="397" y="495" type="line"/>
    </contour>
  </outline>
</glyph>
<glyph name="v" format="1">
  <advance width="405"/>
  <unicode hex="0076"/>
  <outline>
    <contour>
      <point x="141" y="495" type="line"/>
      <point x="2" y="495" type="line"/>
      <point x="115" y="0" type="line"/>
      <point x="290" y="0" type="line"/>
      <point x="404" y="495" type="line"/>
      <point x="265" y="495" type="line"/>
      <point x="203" y="140" type="line"/>
    </contour>
  </outline>
</glyph>
<glyph name="w" format="1">
  <advance width="627"/>
  <unicode hex="0077"/>
  <outline>
    <contour>
      <point x="493" y="495" type="line"/>
      <point x="439" y="145" type="line"/>
      <point x="380" y="495" type="line"/>
      <point x="247" y="495" type="line"/>
      <point x="183" y="143" type="line"/>
      <point x="135" y="495" type="line"/>
      <point x="5" y="495" type="line"/>
      <point x="102" y="0" type="line"/>
      <point x="251" y="0" type="line"/>
      <point x="312" y="323" type="line"/>
      <point x="372" y="0" type="line"/>
      <point x="522" y="0" type="line"/>
      <point x="622" y="495" type="line"/>
    </contour>
  </outline>
</glyph>
<glyph name="x" format="1">
  <advance width="407"/>
  <unicode hex="0078"/>
  <outline>
    <contour>
      <point x="283" y="255" type="line"/>
      <point x="393" y="495" type="line"/>
      <point x="252" y="495" type="line"/>
      <point x="202" y="348" type="line"/>
      <point x="151" y="495" type="line"/>
      <point x="5" y="495" type="line"/>
      <point x="122" y="253" type="line"/>
      <point x="6" y="0" type="line"/>
      <point x="144" y="0" type="line"/>
      <point x="202" y="156" type="line"/>
      <point x="263" y="0" type="line"/>
      <point x="406" y="0" type="line"/>
    </contour>
  </outline>
</glyph>
<glyph name="y" format="1">
  <advance width="418"/>
  <unicode hex="0079"/>
  <outline>
    <contour>
      <point x="3" y="495" type="line"/>
      <point x="127" y="28" type="line"/>
      <point x="186" y="28" type="line"/>
      <point x="181" y="8" type="line" smooth="yes"/>
      <point x="171" y="-23"/>
      <point x="152" y="-29"/>
      <point x="124" y="-29" type="curve" smooth="yes"/>
      <point x="62" y="-29" type="line"/>
      <point x="62" y="-133" type="line"/>
      <point x="137" y="-133" type="line" smooth="yes"/>
      <point x="233" y="-133"/>
      <point x="277" y="-88"/>
      <point x="298" y="-12" type="curve" smooth="yes"/>
      <point x="415" y="495" type="line"/>
      <point x="274" y="495" type="line"/>
      <point x="214" y="151" type="line"/>
      <point x="148" y="495" type="line"/>
    </contour>
  </outline>
</glyph>
<glyph name="z" format="1">
  <advance width="354"/>
  <unicode hex="007A"/>
  <outline>
    <contour>
      <point x="335" y="495" type="line"/>
      <point x="24" y="495" type="line"/>
      <point x="24" y="394" type="line"/>
      <point x="335" y="394" type="line"/>
    </contour>
    <contour>
      <point x="187" y="394" type="line"/>
      <point x="12" y="101" type="line"/>
      <point x="158" y="101" type="line"/>
      <point x="335" y="394" type="line"/>
    </contour>
    <contour>
      <point x="342" y="101" type="line"/>
      <point x="12" y="101" type="line"/>
      <point x="12" y="0" type="line"/>
      <point x="342" y="0" type="line"/>
    </contour>
  </outline>
</glyph>
<glyph name="braceleft" format="1">
  <advance width="310"/>
  <unicode hex="007B"/>
  <outline>
    <contour>
      <point x="240" y="665" type="line"/>
      <point x="240" y="682"/>
      <point x="248" y="690"/>
      <point x="267" y="690" type="curve" smooth="yes"/>
      <point x="300" y="690" type="line"/>
      <point x="300" y="788" type="line"/>
      <point x="220" y="788" type="line" smooth="yes"/>
      <point x="129" y="788"/>
      <point x="97" y="737"/>
      <point x="97" y="671" type="curve" smooth="yes"/>
      <point x="97" y="456" type="line" smooth="yes"/>
      <point x="97" y="392"/>
      <point x="76" y="364"/>
      <point x="23" y="364" type="curve" smooth="yes"/>
      <point x="13" y="364" type="line"/>
      <point x="13" y="266" type="line"/>
      <point x="23" y="266" type="line" smooth="yes"/>
      <point x="76" y="266"/>
      <point x="97" y="237"/>
      <point x="97" y="175" type="curve"/>
      <point x="97" y="-42" type="line" smooth="yes"/>
      <point x="97" y="-109"/>
      <point x="129" y="-159"/>
      <point x="220" y="-159" type="curve" smooth="yes"/>
      <point x="300" y="-159" type="line"/>
      <point x="300" y="-61" type="line"/>
      <point x="267" y="-61" type="line" smooth="yes"/>
      <point x="248" y="-61"/>
      <point x="240" y="-53"/>
      <point x="240" y="-36" type="curve" smooth="yes"/>
      <point x="240" y="200" type="line" smooth="yes"/>
      <point x="240" y="270"/>
      <point x="210" y="311"/>
      <point x="162" y="315" type="curve"/>
      <point x="207" y="324"/>
      <point x="240" y="360"/>
      <point x="240" y="439" type="curve" smooth="yes"/>
    </contour>
  </outline>
</glyph>
<glyph name="bar" format="1">
  <advance width="240"/>
  <unicode hex="007C"/>
  <outline>
    <contour>
      <point x="52" y="799" type="line"/>
      <point x="52" y="-165" type="line"/>
      <point x="181" y="-165" type="line"/>
      <point x="181" y="799" type="line"/>
    </contour>
  </outline>
</glyph>
<glyph name="braceright" format="1">
  <advance width="310"/>
  <unicode hex="007D"/>
  <outline>
    <contour>
      <point x="70" y="439" type="line"/>
      <point x="70" y="360"/>
      <point x="102" y="324"/>
      <point x="147" y="315" type="curve"/>
      <point x="99" y="311"/>
      <point x="70" y="270"/>
      <point x="70" y="200" type="curve" smooth="yes"/>
      <point x="70" y="-36" type="line" smooth="yes"/>
      <point x="70" y="-53"/>
      <point x="62" y="-61"/>
      <point x="42" y="-61" type="curve" smooth="yes"/>
      <point x="9" y="-61" type="line"/>
      <point x="9" y="-159" type="line"/>
      <point x="89" y="-159" type="line" smooth="yes"/>
      <point x="181" y="-159"/>
      <point x="213" y="-109"/>
      <point x="213" y="-42" type="curve" smooth="yes"/>
      <point x="213" y="175" type="line"/>
      <point x="213" y="237"/>
      <point x="233" y="266"/>
      <point x="286" y="266" type="curve" smooth="yes"/>
      <point x="297" y="266" type="line"/>
      <point x="297" y="364" type="line"/>
      <point x="286" y="364" type="line" smooth="yes"/>
      <point x="233" y="364"/>
      <point x="213" y="392"/>
      <point x="213" y="456" type="curve" smooth="yes"/>
      <point x="213" y="671" type="line" smooth="yes"/>
      <point x="213" y="737"/>
      <point x="181" y="788"/>
      <point x="89" y="788" type="curve" smooth="yes"/>
      <point x="9" y="788" type="line"/>
      <point x="9" y="690" type="line"/>
      <point x="42" y="690" type="line" smooth="yes"/>
      <point x="62" y="690"/>
      <point x="70" y="682"/>
      <point x="70" y="665" type="curve"/>
    </contour>
  </outline>
</glyph>
<glyph name="asciitilde" format="1">
  <advance width="645"/>
  <unicode hex="007E"/>
  <outline>
    <contour>
      <point x="404" y="208" type="curve" smooth="yes"/>
      <point x="459" y="208" type="line"/>
      <point x="532" y="208"/>
      <point x="560" y="238"/>
      <point x="560" y="300" type="curve" smooth="yes"/>
      <point x="560" y="378" type="line"/>
      <point x="432" y="378" type="line"/>
      <point x="432" y="333" type="line" smooth="yes"/>
      <point x="432" y="310"/>
      <point x="428" y="300"/>
      <point x="405" y="300" type="curve" smooth="yes"/>
      <point x="356" y="300"/>
      <point x="325" y="378"/>
      <point x="239" y="378" type="curve" smooth="yes"/>
      <point x="184" y="378" type="line" smooth="yes"/>
      <point x="111" y="378"/>
      <point x="83" y="348"/>
      <point x="83" y="285" type="curve" smooth="yes"/>
      <point x="83" y="208" type="line"/>
      <point x="211" y="208" type="line"/>
      <point x="211" y="254" type="line" smooth="yes"/>
      <point x="211" y="276"/>
      <point x="216" y="286"/>
      <point x="239" y="286" type="curve" smooth="yes"/>
      <point x="294" y="286"/>
      <point x="325" y="208"/>
    </contour>
  </outline>
</glyph>
<glyph name="cent" format="1">
  <advance width="413"/>
  <unicode hex="00A2"/>
  <outline>
    <contour>
      <point x="173" y="365" type="line"/>
      <point x="173" y="383"/>
      <point x="180" y="390"/>
      <point x="200" y="390" type="curve" smooth="yes"/>
      <point x="222" y="390" type="line"/>
      <point x="222" y="495" type="line"/>
      <point x="160" y="495" type="line" smooth="yes"/>
      <point x="69" y="495"/>
      <point x="33" y="453"/>
      <point x="33" y="384" type="curve" smooth="yes"/>
      <point x="33" y="111" type="line" smooth="yes"/>
      <point x="33" y="42"/>
      <point x="69" y="0"/>
      <point x="160" y="0" type="curve"/>
      <point x="221" y="0" type="line"/>
      <point x="221" y="105" type="line"/>
      <point x="200" y="105" type="line" smooth="yes"/>
      <point x="180" y="105"/>
      <point x="173" y="112"/>
      <point x="173" y="130" type="curve" smooth="yes"/>
    </contour>
    <contour>
      <point x="253" y="317" type="line"/>
      <point x="389" y="317" type="line"/>
      <point x="389" y="384" type="line" smooth="yes"/>
      <point x="389" y="453"/>
      <point x="353" y="495"/>
      <point x="262" y="495" type="curve" smooth="yes"/>
      <point x="208" y="495" type="line"/>
      <point x="208" y="390" type="line"/>
      <point x="226" y="390" type="line" smooth="yes"/>
      <point x="246" y="390"/>
      <point x="253" y="383"/>
      <point x="253" y="365" type="curve" smooth="yes"/>
    </contour>
    <contour>
      <point x="253" y="130" type="line"/>
      <point x="253" y="112"/>
      <point x="246" y="105"/>
      <point x="226" y="105" type="curve" smooth="yes"/>
      <point x="208" y="105" type="line"/>
      <point x="208" y="0" type="line"/>
      <point x="262" y="0" type="line" smooth="yes"/>
      <point x="353" y="0"/>
      <point x="389" y="42"/>
      <point x="389" y="111" type="curve" smooth="yes"/>
      <point x="389" y="178" type="line"/>
      <point x="253" y="178" type="line"/>
    </contour>
    <contour>
      <point x="281" y="446" type="line"/>
      <point x="281" y="574" type="line"/>
      <point x="146" y="574" type="line"/>
      <point x="146" y="446" type="line"/>
    </contour>
    <contour>
      <point x="281" y="-79" type="line"/>
      <point x="281" y="53" type="line"/>
      <point x="146" y="53" type="line"/>
      <point x="146" y="-79" type="line"/>
    </contour>
  </outline>
</glyph>
<glyph name="sterling" format="1">
  <advance width="461"/>
  <unicode hex="00A3"/>
  <outline>
    <contour>
      <point x="213" y="506" type="line"/>
      <point x="213" y="524"/>
      <point x="220" y="531"/>
      <point x="240" y="531" type="curve"/>
      <point x="269" y="531" type="line" smooth="yes"/>
      <point x="289" y="531"/>
      <point x="296" y="524"/>
      <point x="296" y="506" type="curve" smooth="yes"/>
      <point x="296" y="433" type="line"/>
      <point x="439" y="433" type="line"/>
      <point x="439" y="526" type="line" smooth="yes"/>
      <point x="439" y="594"/>
      <point x="403" y="636"/>
      <point x="312" y="636" type="curve" smooth="yes"/>
      <point x="197" y="636" type="line" smooth="yes"/>
      <point x="106" y="636"/>
      <point x="70" y="594"/>
      <point x="70" y="526" type="curve" smooth="yes"/>
      <point x="70" y="186" type="line" smooth="yes"/>
      <point x="70" y="130"/>
      <point x="65" y="103"/>
      <point x="25" y="99" type="curve"/>
      <point x="25" y="0" type="line"/>
      <point x="443" y="0" type="line"/>
      <point x="443" y="105" type="line"/>
      <point x="187" y="105" type="line"/>
      <point x="208" y="120"/>
      <point x="213" y="147"/>
      <point x="213" y="181" type="curve" smooth="yes"/>
    </contour>
    <contour>
      <point x="25" y="253" type="line"/>
      <point x="355" y="253" type="line"/>
      <point x="355" y="351" type="line"/>
      <point x="25" y="351" type="line"/>
    </contour>
  </outline>
</glyph>
<glyph name="currency" format="1">
  <advance width="553"/>
  <unicode hex="00A4"/>
  <outline>
    <contour>
      <point x="466" y="350" type="line"/>
      <point x="466" y="446"/>
      <point x="432" y="504"/>
      <point x="315" y="504" type="curve" smooth="yes"/>
      <point x="232" y="504" type="line" smooth="yes"/>
      <point x="114" y="504"/>
      <point x="81" y="446"/>
      <point x="81" y="350" type="curve" smooth="yes"/>
      <point x="81" y="249" type="line" smooth="yes"/>
      <point x="81" y="154"/>
      <point x="114" y="96"/>
      <point x="232" y="96" type="curve" smooth="yes"/>
      <point x="315" y="96" type="line" smooth="yes"/>
      <point x="432" y="96"/>
      <point x="466" y="154"/>
      <point x="466" y="249" type="curve" smooth="yes"/>
    </contour>
    <contour>
      <point x="258" y="190" type="line"/>
      <point x="214" y="190"/>
      <point x="195" y="197"/>
      <point x="195" y="252" type="curve" smooth="yes"/>
      <point x="195" y="346" type="line" smooth="yes"/>
      <point x="195" y="401"/>
      <point x="214" y="410"/>
      <point x="258" y="410" type="curve" smooth="yes"/>
      <point x="287" y="410" type="line" smooth="yes"/>
      <point x="331" y="410"/>
      <point x="350" y="401"/>
      <point x="350" y="346" type="curve" smooth="yes"/>
      <point x="350" y="252" type="line" smooth="yes"/>
      <point x="350" y="197"/>
      <point x="331" y="190"/>
      <point x="287" y="190" type="curve" smooth="yes"/>
    </contour>
    <contour>
      <point x="226" y="472" type="line"/>
      <point x="126" y="571" type="line"/>
      <point x="42" y="485" type="line"/>
      <point x="140" y="387" type="line"/>
    </contour>
    <contour>
      <point x="400" y="387" type="line"/>
      <point x="499" y="485" type="line"/>
      <point x="414" y="571" type="line"/>
      <point x="315" y="472" type="line"/>
    </contour>
    <contour>
      <point x="140" y="227" type="line"/>
      <point x="42" y="128" type="line"/>
      <point x="126" y="43" type="line"/>
      <point x="226" y="142" type="line"/>
    </contour>
    <contour>
      <point x="315" y="142" type="line"/>
      <point x="414" y="43" type="line"/>
      <point x="499" y="128" type="line"/>
      <point x="400" y="227" type="line"/>
    </contour>
  </outline>
</glyph>
<glyph name="yen" format="1">
  <advance width="474"/>
  <unicode hex="00A5"/>
  <outline>
    <contour>
      <point x="169" y="360" type="line"/>
      <point x="35" y="360" type="line"/>
      <point x="35" y="269" type="line"/>
      <point x="169" y="269" type="line"/>
    </contour>
    <contour>
      <point x="443" y="360" type="line"/>
      <point x="312" y="360" type="line"/>
      <point x="312" y="269" type="line"/>
      <point x="443" y="269" type="line"/>
    </contour>
    <contour>
      <point x="443" y="226" type="line"/>
      <point x="35" y="226" type="line"/>
      <point x="35" y="135" type="line"/>
      <point x="443" y="135" type="line"/>
    </contour>
    <contour>
      <point x="303" y="182" type="line"/>
      <point x="466" y="636" type="line"/>
      <point x="321" y="636" type="line"/>
      <point x="239" y="342" type="line"/>
      <point x="154" y="636" type="line"/>
      <point x="8" y="636" type="line"/>
      <point x="177" y="182" type="line"/>
    </contour>
    <contour>
      <point x="169" y="259" type="line"/>
      <point x="169" y="0" type="line"/>
      <point x="312" y="0" type="line"/>
      <point x="312" y="259" type="line"/>
    </contour>
  </outline>
</glyph>
<glyph name="brokenbar" format="1">
  <advance width="240"/>
  <unicode hex="00A6"/>
  <outline>
    <contour>
      <point x="45" y="258" type="line"/>
      <point x="45" y="-95" type="line"/>
      <point x="188" y="-95" type="line"/>
      <point x="188" y="258" type="line"/>
    </contour>
    <contour>
      <point x="188" y="377" type="line"/>
      <point x="188" y="729" type="line"/>
      <point x="45" y="729" type="line"/>
      <point x="45" y="377" type="line"/>
    </contour>
  </outline>
</glyph>
<glyph name="section" format="1">
  <advance width="494"/>
  <unicode hex="00A7"/>
  <outline>
    <contour>
      <point x="243" y="168" type="line"/>
      <point x="314" y="168" type="line" smooth="yes"/>
      <point x="405" y="168"/>
      <point x="432" y="211"/>
      <point x="432" y="284" type="curve" smooth="yes"/>
      <point x="432" y="358" type="line" smooth="yes"/>
      <point x="432" y="427"/>
      <point x="396" y="469"/>
      <point x="305" y="469" type="curve" smooth="yes"/>
      <point x="242" y="469" type="line" smooth="yes"/>
      <point x="222" y="469"/>
      <point x="215" y="475"/>
      <point x="215" y="493" type="curve" smooth="yes"/>
      <point x="215" y="549" type="line" smooth="yes"/>
      <point x="215" y="568"/>
      <point x="222" y="574"/>
      <point x="242" y="574" type="curve" smooth="yes"/>
      <point x="270" y="574" type="line" smooth="yes"/>
      <point x="290" y="574"/>
      <point x="297" y="568"/>
      <point x="297" y="549" type="curve" smooth="yes"/>
      <point x="297" y="520" type="line"/>
      <point x="437" y="520" type="line"/>
      <point x="437" y="558" type="line" smooth="yes"/>
      <point x="437" y="627"/>
      <point x="401" y="669"/>
      <point x="310" y="669" type="curve" smooth="yes"/>
      <point x="202" y="669" type="line" smooth="yes"/>
      <point x="111" y="669"/>
      <point x="75" y="627"/>
      <point x="75" y="558" type="curve" smooth="yes"/>
      <point x="75" y="481" type="line" smooth="yes"/>
      <point x="75" y="413"/>
      <point x="111" y="371"/>
      <point x="202" y="371" type="curve" smooth="yes"/>
      <point x="272" y="371" type="line" smooth="yes"/>
      <point x="292" y="371"/>
      <point x="299" y="364"/>
      <point x="299" y="346" type="curve" smooth="yes"/>
      <point x="299" y="260" type="line" smooth="yes"/>
      <point x="299" y="241"/>
      <point x="292" y="235"/>
      <point x="272" y="235" type="curve" smooth="yes"/>
      <point x="243" y="235" type="line"/>
    </contour>
    <contour>
      <point x="251" y="427" type="line"/>
      <point x="180" y="427" type="line" smooth="yes"/>
      <point x="89" y="427"/>
      <point x="63" y="385"/>
      <point x="63" y="312" type="curve" smooth="yes"/>
      <point x="63" y="247" type="line" smooth="yes"/>
      <point x="63" y="179"/>
      <point x="98" y="137"/>
      <point x="189" y="137" type="curve" smooth="yes"/>
      <point x="252" y="137" type="line" smooth="yes"/>
      <point x="272" y="137"/>
      <point x="279" y="130"/>
      <point x="279" y="112" type="curve" smooth="yes"/>
      <point x="279" y="56" type="line" smooth="yes"/>
      <point x="279" y="38"/>
      <point x="272" y="32"/>
      <point x="252" y="32" type="curve" smooth="yes"/>
      <point x="224" y="32" type="line" smooth="yes"/>
      <point x="204" y="32"/>
      <point x="197" y="38"/>
      <point x="197" y="56" type="curve" smooth="yes"/>
      <point x="197" y="85" type="line"/>
      <point x="57" y="85" type="line"/>
      <point x="57" y="47" type="line" smooth="yes"/>
      <point x="57" y="-21"/>
      <point x="93" y="-63"/>
      <point x="184" y="-63" type="curve" smooth="yes"/>
      <point x="292" y="-63" type="line" smooth="yes"/>
      <point x="383" y="-63"/>
      <point x="419" y="-21"/>
      <point x="419" y="47" type="curve" smooth="yes"/>
      <point x="419" y="125" type="line" smooth="yes"/>
      <point x="419" y="193"/>
      <point x="383" y="235"/>
      <point x="292" y="235" type="curve" smooth="yes"/>
      <point x="222" y="235" type="line" smooth="yes"/>
      <point x="202" y="235"/>
      <point x="195" y="241"/>
      <point x="195" y="260" type="curve" smooth="yes"/>
      <point x="195" y="346" type="line" smooth="yes"/>
      <point x="195" y="364"/>
      <point x="202" y="371"/>
      <point x="222" y="371" type="curve" smooth="yes"/>
      <point x="251" y="371" type="line"/>
    </contour>
  </outline>
</glyph>
<glyph name="dieresis" format="1">
  <advance width="470"/>
  <unicode hex="00A8"/>
  <outline>
    <contour>
      <point x="58" y="542" type="line"/>
      <point x="191" y="542" type="line"/>
      <point x="191" y="658" type="line"/>
      <point x="58" y="658" type="line"/>
    </contour>
    <contour>
      <point x="279" y="542" type="line"/>
      <point x="412" y="542" type="line"/>
      <point x="412" y="658" type="line"/>
      <point x="279" y="658" type="line"/>
    </contour>
  </outline>
</glyph>
<glyph name="copyright" format="1">
  <advance width="745"/>
  <unicode hex="00A9"/>
  <outline>
    <contour>
      <point x="715" y="339" type="line"/>
      <point x="715" y="521"/>
      <point x="659" y="636"/>
      <point x="472" y="636" type="curve" smooth="yes"/>
      <point x="278" y="636" type="line" smooth="yes"/>
      <point x="92" y="636"/>
      <point x="36" y="521"/>
      <point x="36" y="339" type="curve" smooth="yes"/>
      <point x="36" y="294" type="line" smooth="yes"/>
      <point x="36" y="112"/>
      <point x="92" y="0"/>
      <point x="278" y="0" type="curve" smooth="yes"/>
      <point x="472" y="0" type="line" smooth="yes"/>
      <point x="659" y="0"/>
      <point x="715" y="112"/>
      <point x="715" y="294" type="curve" smooth="yes"/>
    </contour>
    <contour>
      <point x="302" y="87" type="line"/>
      <point x="192" y="87"/>
      <point x="147" y="135"/>
      <point x="147" y="281" type="curve" smooth="yes"/>
      <point x="147" y="352" type="line" smooth="yes"/>
      <point x="147" y="499"/>
      <point x="192" y="549"/>
      <point x="302" y="549" type="curve" smooth="yes"/>
      <point x="449" y="549" type="line" smooth="yes"/>
      <point x="558" y="549"/>
      <point x="604" y="499"/>
      <point x="604" y="352" type="curve" smooth="yes"/>
      <point x="604" y="281" type="line" smooth="yes"/>
      <point x="604" y="135"/>
      <point x="558" y="87"/>
      <point x="449" y="87" type="curve" smooth="yes"/>
    </contour>
    <contour>
      <point x="411" y="254" type="line"/>
      <point x="411" y="239"/>
      <point x="405" y="234"/>
      <point x="390" y="234" type="curve" smooth="yes"/>
      <point x="362" y="234" type="line" smooth="yes"/>
      <point x="346" y="234"/>
      <point x="341" y="239"/>
      <point x="341" y="254" type="curve" smooth="yes"/>
      <point x="341" y="387" type="line" smooth="yes"/>
      <point x="341" y="401"/>
      <point x="346" y="406"/>
      <point x="362" y="406" type="curve" smooth="yes"/>
      <point x="390" y="406" type="line" smooth="yes"/>
      <point x="405" y="406"/>
      <point x="411" y="401"/>
      <point x="411" y="387" type="curve" smooth="yes"/>
      <point x="411" y="356" type="line"/>
      <point x="514" y="356" type="line"/>
      <point x="514" y="404" type="line" smooth="yes"/>
      <point x="514" y="456"/>
      <point x="486" y="487"/>
      <point x="419" y="487" type="curve" smooth="yes"/>
      <point x="333" y="487" type="line" smooth="yes"/>
      <point x="265" y="487"/>
      <point x="238" y="456"/>
      <point x="238" y="404" type="curve" smooth="yes"/>
      <point x="238" y="237" type="line" smooth="yes"/>
      <point x="238" y="185"/>
      <point x="265" y="154"/>
      <point x="333" y="154" type="curve" smooth="yes"/>
      <point x="419" y="154" type="line" smooth="yes"/>
      <point x="486" y="154"/>
      <point x="514" y="185"/>
      <point x="514" y="237" type="curve" smooth="yes"/>
      <point x="514" y="285" type="line"/>
      <point x="411" y="285" type="line"/>
    </contour>
  </outline>
</glyph>
<glyph name="ordfeminine" format="1">
  <advance width="307"/>
  <unicode hex="00AA"/>
  <outline>
    <contour>
      <point x="113" y="453" type="line"/>
      <point x="113" y="547" type="line" smooth="yes"/>
      <point x="113" y="560"/>
      <point x="118" y="565"/>
      <point x="132" y="565" type="curve" smooth="yes"/>
      <point x="168" y="565" type="line" smooth="yes"/>
      <point x="182" y="565"/>
      <point x="189" y="558"/>
      <point x="189" y="542" type="curve" smooth="yes"/>
      <point x="189" y="522" type="line"/>
      <point x="193" y="522" type="line"/>
      <point x="193" y="577" type="line" smooth="yes"/>
      <point x="193" y="615"/>
      <point x="177" y="636"/>
      <point x="138" y="636" type="curve" smooth="yes"/>
      <point x="108" y="636" type="line" smooth="yes"/>
      <point x="49" y="636"/>
      <point x="25" y="607"/>
      <point x="25" y="558" type="curve" smooth="yes"/>
      <point x="25" y="453" type="line"/>
    </contour>
    <contour>
      <point x="277" y="286" type="line"/>
      <point x="277" y="636" type="line"/>
      <point x="191" y="636" type="line"/>
      <point x="191" y="577" type="line"/>
      <point x="189" y="576" type="line"/>
      <point x="189" y="286" type="line"/>
    </contour>
    <contour>
      <point x="25" y="470" type="line"/>
      <point x="25" y="365" type="line" smooth="yes"/>
      <point x="25" y="316"/>
      <point x="49" y="286"/>
      <point x="108" y="286" type="curve" smooth="yes"/>
      <point x="140" y="286" type="line" smooth="yes"/>
      <point x="179" y="286"/>
      <point x="193" y="307"/>
      <point x="193" y="345" type="curve" smooth="yes"/>
      <point x="193" y="401" type="line"/>
      <point x="189" y="401" type="line"/>
      <point x="189" y="382" type="line" smooth="yes"/>
      <point x="189" y="366"/>
      <point x="182" y="359"/>
      <point x="168" y="359" type="curve" smooth="yes"/>
      <point x="132" y="359" type="line" smooth="yes"/>
      <point x="118" y="359"/>
      <point x="113" y="364"/>
      <point x="113" y="377" type="curve" smooth="yes"/>
      <point x="113" y="470" type="line"/>
    </contour>
  </outline>
</glyph>
<glyph name="guillemotleft" format="1">
  <advance width="497"/>
  <unicode hex="00AB"/>
  <outline>
    <contour>
      <point x="137" y="99" type="line"/>
      <point x="271" y="99" type="line"/>
      <point x="159" y="253" type="line"/>
      <point x="271" y="405" type="line"/>
      <point x="137" y="405" type="line"/>
      <point x="23" y="253" type="line"/>
    </contour>
    <contour>
      <point x="345" y="99" type="line"/>
      <point x="480" y="99" type="line"/>
      <point x="367" y="253" type="line"/>
      <point x="480" y="405" type="line"/>
      <point x="345" y="405" type="line"/>
      <point x="232" y="253" type="line"/>
    </contour>
  </outline>
</glyph>
<glyph name="logicalnot" format="1">
  <advance width="527"/>
  <unicode hex="00AC"/>
  <outline>
    <contour>
      <point x="427" y="410" type="line"/>
      <point x="44" y="410" type="line"/>
      <point x="44" y="268" type="line"/>
      <point x="427" y="268" type="line"/>
    </contour>
    <contour>
      <point x="473" y="124" type="line"/>
      <point x="473" y="410" type="line"/>
      <point x="374" y="410" type="line"/>
      <point x="374" y="124" type="line"/>
    </contour>
  </outline>
</glyph>
<glyph name="softhyphen" format="1">
  <advance width="332"/>
  <unicode hex="00AD"/>
  <outline>
    <contour>
      <point x="31" y="250" type="line"/>
      <point x="301" y="250" type="line"/>
      <point x="301" y="348" type="line"/>
      <point x="31" y="348" type="line"/>
    </contour>
  </outline>
</glyph>
<glyph name="registered" format="1">
  <advance width="454"/>
  <unicode hex="00AE"/>
  <outline>
    <contour>
      <point x="422" y="548" type="line"/>
      <point x="422" y="653"/>
      <point x="390" y="719"/>
      <point x="282" y="719" type="curve" smooth="yes"/>
      <point x="171" y="719" type="line" smooth="yes"/>
      <point x="63" y="719"/>
      <point x="32" y="653"/>
      <point x="32" y="548" type="curve" smooth="yes"/>
      <point x="32" y="523" type="line" smooth="yes"/>
      <point x="32" y="419"/>
      <point x="63" y="354"/>
      <point x="171" y="354" type="curve" smooth="yes"/>
      <point x="282" y="354" type="line" smooth="yes"/>
      <point x="390" y="354"/>
      <point x="422" y="419"/>
      <point x="422" y="523" type="curve" smooth="yes"/>
    </contour>
    <contour>
      <point x="185" y="407" type="line"/>
      <point x="122" y="407"/>
      <point x="96" y="431"/>
      <point x="96" y="515" type="curve" smooth="yes"/>
      <point x="96" y="556" type="line" smooth="yes"/>
      <point x="96" y="640"/>
      <point x="122" y="666"/>
      <point x="185" y="666" type="curve" smooth="yes"/>
      <point x="269" y="666" type="line" smooth="yes"/>
      <point x="332" y="666"/>
      <point x="358" y="640"/>
      <point x="358" y="556" type="curve" smooth="yes"/>
      <point x="358" y="515" type="line" smooth="yes"/>
      <point x="358" y="431"/>
      <point x="332" y="407"/>
      <point x="269" y="407" type="curve" smooth="yes"/>
    </contour>
    <contour>
      <point x="164" y="635" type="line"/>
      <point x="164" y="439" type="line"/>
      <point x="213" y="439" type="line"/>
      <point x="213" y="511" type="line"/>
      <point x="220" y="511" type="line"/>
      <point x="252" y="439" type="line"/>
      <point x="305" y="439" type="line"/>
      <point x="268" y="513" type="line"/>
      <point x="286" y="518"/>
      <point x="293" y="531"/>
      <point x="293" y="549" type="curve"/>
      <point x="293" y="598" type="line" smooth="yes"/>
      <point x="293" y="622"/>
      <point x="281" y="635"/>
      <point x="250" y="635" type="curve" smooth="yes"/>
    </contour>
    <contour>
      <point x="244" y="555" type="line"/>
      <point x="244" y="550"/>
      <point x="242" y="548"/>
      <point x="237" y="548" type="curve" smooth="yes"/>
      <point x="213" y="548" type="line"/>
      <point x="213" y="600" type="line"/>
      <point x="237" y="600" type="line" smooth="yes"/>
      <point x="242" y="600"/>
      <point x="244" y="598"/>
      <point x="244" y="593" type="curve" smooth="yes"/>
    </contour>
  </outline>
</glyph>
<glyph name="macron" format="1">
  <advance width="470"/>
  <unicode hex="00AF"/>
  <outline>
    <contour>
      <point x="63" y="554" type="line"/>
      <point x="406" y="554" type="line"/>
      <point x="406" y="645" type="line"/>
      <point x="63" y="645" type="line"/>
    </contour>
  </outline>
</glyph>
<glyph name="degree" format="1">
  <advance width="446"/>
  <unicode hex="00B0"/>
  <outline>
    <contour>
      <point x="398" y="526" type="line"/>
      <point x="398" y="594"/>
      <point x="366" y="636"/>
      <point x="276" y="636" type="curve" smooth="yes"/>
      <point x="168" y="636" type="line" smooth="yes"/>
      <point x="77" y="636"/>
      <point x="45" y="594"/>
      <point x="45" y="526" type="curve" smooth="yes"/>
      <point x="45" y="428" type="line" smooth="yes"/>
      <point x="45" y="360"/>
      <point x="77" y="318"/>
      <point x="168" y="318" type="curve" smooth="yes"/>
      <point x="276" y="318" type="line" smooth="yes"/>
      <point x="366" y="318"/>
      <point x="398" y="360"/>
      <point x="398" y="428" type="curve"/>
    </contour>
    <contour>
      <point x="269" y="433" type="line"/>
      <point x="269" y="415"/>
      <point x="262" y="408"/>
      <point x="242" y="408" type="curve" smooth="yes"/>
      <point x="202" y="408" type="line" smooth="yes"/>
      <point x="182" y="408"/>
      <point x="175" y="415"/>
      <point x="175" y="433" type="curve" smooth="yes"/>
      <point x="175" y="521" type="line" smooth="yes"/>
      <point x="175" y="539"/>
      <point x="182" y="546"/>
      <point x="202" y="546" type="curve" smooth="yes"/>
      <point x="242" y="546" type="line" smooth="yes"/>
      <point x="262" y="546"/>
      <point x="269" y="539"/>
      <point x="269" y="521" type="curve"/>
    </contour>
  </outline>
</glyph>
<glyph name="plusminus" format="1">
  <advance width="490"/>
  <unicode hex="00B1"/>
  <outline>
    <contour>
      <point x="27" y="364" type="line"/>
      <point x="464" y="364" type="line"/>
      <point x="464" y="467" type="line"/>
      <point x="27" y="467" type="line"/>
    </contour>
    <contour>
      <point x="178" y="544" type="line"/>
      <point x="178" y="288" type="line"/>
      <point x="313" y="288" type="line"/>
      <point x="313" y="544" type="line"/>
    </contour>
    <contour>
      <point x="27" y="151" type="line"/>
      <point x="464" y="151" type="line"/>
      <point x="464" y="257" type="line"/>
      <point x="27" y="257" type="line"/>
    </contour>
  </outline>
</glyph>
<glyph name="twosuperior" format="1">
  <advance width="255"/>
  <unicode hex="00B2"/>
  <outline>
    <contour>
      <point x="102" y="562" type="line"/>
      <point x="102" y="571"/>
      <point x="105" y="575"/>
      <point x="117" y="575" type="curve"/>
      <point x="130" y="575" type="line" smooth="yes"/>
      <point x="141" y="575"/>
      <point x="144" y="571"/>
      <point x="144" y="562" type="curve" smooth="yes"/>
      <point x="144" y="532" type="line" smooth="yes"/>
      <point x="144" y="502"/>
      <point x="142" y="489"/>
      <point x="125" y="469" type="curve"/>
      <point x="15" y="344" type="line"/>
      <point x="15" y="286" type="line"/>
      <point x="233" y="286" type="line"/>
      <point x="233" y="351" type="line"/>
      <point x="122" y="351" type="line"/>
      <point x="197" y="440" type="line" smooth="yes"/>
      <point x="220" y="465"/>
      <point x="232" y="494"/>
      <point x="232" y="537" type="curve" smooth="yes"/>
      <point x="232" y="576" type="line" smooth="yes"/>
      <point x="232" y="613"/>
      <point x="213" y="636"/>
      <point x="163" y="636" type="curve" smooth="yes"/>
      <point x="83" y="636" type="line" smooth="yes"/>
      <point x="33" y="636"/>
      <point x="13" y="613"/>
      <point x="13" y="576" type="curve" smooth="yes"/>
      <point x="13" y="511" type="line"/>
      <point x="102" y="511" type="line"/>
    </contour>
  </outline>
</glyph>
<glyph name="threesuperior" format="1">
  <advance width="257"/>
  <unicode hex="00B3"/>
  <outline>
    <contour>
      <point x="103" y="562" type="line"/>
      <point x="103" y="571"/>
      <point x="106" y="575"/>
      <point x="117" y="575" type="curve" smooth="yes"/>
      <point x="132" y="575" type="line" smooth="yes"/>
      <point x="143" y="575"/>
      <point x="147" y="571"/>
      <point x="147" y="562" type="curve" smooth="yes"/>
      <point x="147" y="503" type="line" smooth="yes"/>
      <point x="147" y="493"/>
      <point x="143" y="490"/>
      <point x="132" y="490" type="curve" smooth="yes"/>
      <point x="97" y="490" type="line"/>
      <point x="97" y="432" type="line"/>
      <point x="132" y="432" type="line" smooth="yes"/>
      <point x="143" y="432"/>
      <point x="147" y="429"/>
      <point x="147" y="419" type="curve" smooth="yes"/>
      <point x="147" y="361" type="line" smooth="yes"/>
      <point x="147" y="351"/>
      <point x="143" y="347"/>
      <point x="132" y="347" type="curve" smooth="yes"/>
      <point x="117" y="347" type="line" smooth="yes"/>
      <point x="106" y="347"/>
      <point x="103" y="351"/>
      <point x="103" y="361" type="curve" smooth="yes"/>
      <point x="103" y="399" type="line"/>
      <point x="14" y="399" type="line"/>
      <point x="14" y="347" type="line" smooth="yes"/>
      <point x="14" y="309"/>
      <point x="34" y="286"/>
      <point x="84" y="286" type="curve" smooth="yes"/>
      <point x="165" y="286" type="line" smooth="yes"/>
      <point x="215" y="286"/>
      <point x="234" y="309"/>
      <point x="234" y="347" type="curve" smooth="yes"/>
      <point x="234" y="414" type="line" smooth="yes"/>
      <point x="234" y="438"/>
      <point x="229" y="454"/>
      <point x="210" y="462" type="curve"/>
      <point x="229" y="470"/>
      <point x="234" y="488"/>
      <point x="234" y="513" type="curve" smooth="yes"/>
      <point x="234" y="576" type="line" smooth="yes"/>
      <point x="234" y="613"/>
      <point x="215" y="636"/>
      <point x="165" y="636" type="curve"/>
      <point x="84" y="636" type="line" smooth="yes"/>
      <point x="34" y="636"/>
      <point x="14" y="613"/>
      <point x="14" y="576" type="curve" smooth="yes"/>
      <point x="14" y="524" type="line"/>
      <point x="103" y="524" type="line"/>
    </contour>
  </outline>
</glyph>
<glyph name="acute" format="1">
  <advance width="470"/>
  <unicode hex="00B4"/>
  <outline>
    <contour>
      <point x="117" y="527" type="line"/>
      <point x="229" y="527" type="line"/>
      <point x="352" y="670" type="line"/>
      <point x="208" y="670" type="line"/>
    </contour>
  </outline>
</glyph>
<glyph name="mu.math" format="1">
  <advance width="444"/>
  <unicode hex="00B5"/>
  <outline>
    <contour>
      <point x="40" y="495" type="line"/>
      <point x="40" y="111" type="line" smooth="yes"/>
      <point x="40" y="42"/>
      <point x="74" y="0"/>
      <point x="157" y="0" type="curve" smooth="yes"/>
      <point x="181" y="0" type="line" smooth="yes"/>
      <point x="236" y="0"/>
      <point x="265" y="30"/>
      <point x="265" y="83" type="curve" smooth="yes"/>
      <point x="265" y="166" type="line"/>
      <point x="260" y="166" type="line"/>
      <point x="260" y="137" type="line" smooth="yes"/>
      <point x="260" y="114"/>
      <point x="250" y="105"/>
      <point x="230" y="105" type="curve" smooth="yes"/>
      <point x="207" y="105" type="line" smooth="yes"/>
      <point x="187" y="105"/>
      <point x="180" y="112"/>
      <point x="180" y="130" type="curve" smooth="yes"/>
      <point x="180" y="495" type="line"/>
    </contour>
    <contour>
      <point x="260" y="495" type="line"/>
      <point x="260" y="84" type="line"/>
      <point x="262" y="82" type="line"/>
      <point x="262" y="0" type="line"/>
      <point x="399" y="0" type="line"/>
      <point x="399" y="495" type="line"/>
    </contour>
    <contour>
      <point x="40" y="445" type="line"/>
      <point x="40" y="-133" type="line"/>
      <point x="180" y="-133" type="line"/>
      <point x="180" y="445" type="line"/>
    </contour>
  </outline>
</glyph>
<glyph name="paragraph" format="1">
  <advance width="545"/>
  <unicode hex="00B6"/>
  <outline>
    <contour>
      <point x="278" y="636" type="line"/>
      <point x="162" y="636" type="line" smooth="yes"/>
      <point x="71" y="636"/>
      <point x="35" y="594"/>
      <point x="35" y="526" type="curve" smooth="yes"/>
      <point x="35" y="327" type="line" smooth="yes"/>
      <point x="35" y="258"/>
      <point x="71" y="216"/>
      <point x="162" y="216" type="curve" smooth="yes"/>
      <point x="278" y="216" type="line"/>
    </contour>
    <contour>
      <point x="199" y="636" type="line"/>
      <point x="199" y="-133" type="line"/>
      <point x="314" y="-133" type="line"/>
      <point x="314" y="636" type="line"/>
    </contour>
    <contour>
      <point x="376" y="636" type="line"/>
      <point x="376" y="-133" type="line"/>
      <point x="491" y="-133" type="line"/>
      <point x="491" y="636" type="line"/>
    </contour>
  </outline>
</glyph>
<glyph name="periodcentered" format="1">
  <advance width="251"/>
  <unicode hex="00B7"/>
  <outline>
    <contour>
      <point x="43" y="258" type="line"/>
      <point x="188" y="258" type="line"/>
      <point x="188" y="400" type="line"/>
      <point x="43" y="400" type="line"/>
    </contour>
  </outline>
</glyph>
<glyph name="cedilla" format="1">
  <advance width="470"/>
  <unicode hex="00B8"/>
  <outline>
    <contour>
      <point x="202" y="-108" type="line"/>
      <point x="202" y="-126"/>
      <point x="193" y="-135"/>
      <point x="174" y="-135" type="curve" smooth="yes"/>
      <point x="126" y="-135" type="line"/>
      <point x="126" y="-232" type="line"/>
      <point x="204" y="-232" type="line" smooth="yes"/>
      <point x="295" y="-232"/>
      <point x="333" y="-190"/>
      <point x="333" y="-119" type="curve" smooth="yes"/>
      <point x="333" y="-48" type="line"/>
      <point x="202" y="-48" type="line"/>
    </contour>
  </outline>
</glyph>
<glyph name="onesuperior" format="1">
  <advance width="190"/>
  <unicode hex="00B9"/>
  <outline>
    <contour>
      <point x="105" y="636" type="line"/>
      <point x="10" y="636" type="line"/>
      <point x="10" y="575" type="line"/>
      <point x="105" y="575" type="line"/>
    </contour>
    <contour>
      <point x="56" y="636" type="line"/>
      <point x="56" y="286" type="line"/>
      <point x="147" y="286" type="line"/>
      <point x="147" y="636" type="line"/>
    </contour>
  </outline>
</glyph>
<glyph name="ordmasculine" format="1">
  <advance width="300"/>
  <unicode hex="00BA"/>
  <outline>
    <contour>
      <point x="186" y="431" type="line"/>
      <point x="274" y="431" type="line"/>
      <point x="274" y="558" type="line" smooth="yes"/>
      <point x="274" y="607"/>
      <point x="251" y="636"/>
      <point x="187" y="636" type="curve" smooth="yes"/>
      <point x="153" y="636" type="line"/>
      <point x="153" y="575" type="line"/>
      <point x="167" y="575" type="line" smooth="yes"/>
      <point x="181" y="575"/>
      <point x="186" y="571"/>
      <point x="186" y="557" type="curve" smooth="yes"/>
    </contour>
    <contour>
      <point x="186" y="364" type="line"/>
      <point x="186" y="351"/>
      <point x="181" y="347"/>
      <point x="167" y="347" type="curve" smooth="yes"/>
      <point x="151" y="347" type="line"/>
      <point x="151" y="286" type="line"/>
      <point x="187" y="286" type="line" smooth="yes"/>
      <point x="251" y="286"/>
      <point x="274" y="316"/>
      <point x="274" y="365" type="curve" smooth="yes"/>
      <point x="274" y="448" type="line"/>
      <point x="186" y="448" type="line"/>
    </contour>
    <contour>
      <point x="113" y="557" type="line"/>
      <point x="113" y="571"/>
      <point x="118" y="575"/>
      <point x="132" y="575" type="curve" smooth="yes"/>
      <point x="158" y="575" type="line"/>
      <point x="158" y="636" type="line"/>
      <point x="112" y="636" type="line" smooth="yes"/>
      <point x="48" y="636"/>
      <point x="25" y="607"/>
      <point x="25" y="558" type="curve" smooth="yes"/>
      <point x="25" y="431" type="line"/>
      <point x="113" y="431" type="line"/>
    </contour>
    <contour>
      <point x="113" y="449" type="line"/>
      <point x="25" y="449" type="line"/>
      <point x="25" y="365" type="line" smooth="yes"/>
      <point x="25" y="316"/>
      <point x="48" y="286"/>
      <point x="112" y="286" type="curve" smooth="yes"/>
      <point x="158" y="286" type="line"/>
      <point x="158" y="347" type="line"/>
      <point x="132" y="347" type="line" smooth="yes"/>
      <point x="118" y="347"/>
      <point x="113" y="351"/>
      <point x="113" y="364" type="curve" smooth="yes"/>
    </contour>
  </outline>
</glyph>
<glyph name="guillemotright" format="1">
  <advance width="497"/>
  <unicode hex="00BB"/>
  <outline>
    <contour>
      <point x="271" y="253" type="line"/>
      <point x="158" y="405" type="line"/>
      <point x="23" y="405" type="line"/>
      <point x="136" y="253" type="line"/>
      <point x="23" y="99" type="line"/>
      <point x="158" y="99" type="line"/>
    </contour>
    <contour>
      <point x="480" y="253" type="line"/>
      <point x="366" y="405" type="line"/>
      <point x="232" y="405" type="line"/>
      <point x="344" y="253" type="line"/>
      <point x="232" y="99" type="line"/>
      <point x="366" y="99" type="line"/>
    </contour>
  </outline>
</glyph>
<glyph name="AE" format="1">
  <advance width="697"/>
  <unicode hex="00C6"/>
  <outline>
    <contour>
      <point x="378" y="636" type="line"/>
      <point x="251" y="636" type="line"/>
      <point x="4" y="0" type="line"/>
      <point x="145" y="0" type="line"/>
    </contour>
    <contour>
      <point x="387" y="230" type="line"/>
      <point x="110" y="230" type="line"/>
      <point x="110" y="128" type="line"/>
      <point x="387" y="128" type="line"/>
    </contour>
    <contour>
      <point x="338" y="636" type="line"/>
      <point x="338" y="0" type="line"/>
      <point x="474" y="0" type="line"/>
      <point x="474" y="636" type="line"/>
    </contour>
    <contour>
      <point x="678" y="105" type="line"/>
      <point x="389" y="105" type="line"/>
      <point x="389" y="0" type="line"/>
      <point x="678" y="0" type="line"/>
    </contour>
    <contour>
      <point x="641" y="376" type="line"/>
      <point x="398" y="376" type="line"/>
      <point x="398" y="271" type="line"/>
      <point x="641" y="271" type="line"/>
    </contour>
    <contour>
      <point x="670" y="636" type="line"/>
      <point x="389" y="636" type="line"/>
      <point x="389" y="531" type="line"/>
      <point x="670" y="531" type="line"/>
    </contour>
  </outline>
</glyph>
<glyph name="multiply" format="1">
  <advance width="442"/>
  <unicode hex="00D7"/>
  <outline>
    <contour>
      <point x="421" y="193" type="line"/>
      <point x="103" y="511" type="line"/>
      <point x="22" y="429" type="line"/>
      <point x="340" y="111" type="line"/>
    </contour>
    <contour>
      <point x="340" y="511" type="line"/>
      <point x="22" y="193" type="line"/>
      <point x="103" y="111" type="line"/>
      <point x="421" y="429" type="line"/>
    </contour>
  </outline>
</glyph>
<glyph name="Oslash" format="1">
  <advance width="472"/>
  <unicode hex="00D8"/>
  <outline>
    <contour>
      <point x="430" y="526" type="line"/>
      <point x="430" y="594"/>
      <point x="394" y="636"/>
      <point x="303" y="636" type="curve" smooth="yes"/>
      <point x="169" y="636" type="line" smooth="yes"/>
      <point x="78" y="636"/>
      <point x="42" y="594"/>
      <point x="42" y="526" type="curve" smooth="yes"/>
      <point x="42" y="111" type="line" smooth="yes"/>
      <point x="42" y="42"/>
      <point x="78" y="0"/>
      <point x="169" y="0" type="curve" smooth="yes"/>
      <point x="303" y="0" type="line" smooth="yes"/>
      <point x="394" y="0"/>
      <point x="430" y="42"/>
      <point x="430" y="111" type="curve" smooth="yes"/>
    </contour>
    <contour>
      <point x="294" y="122" type="line"/>
      <point x="294" y="104"/>
      <point x="287" y="97"/>
      <point x="267" y="97" type="curve" smooth="yes"/>
      <point x="205" y="97" type="line" smooth="yes"/>
      <point x="185" y="97"/>
      <point x="178" y="104"/>
      <point x="178" y="122" type="curve" smooth="yes"/>
      <point x="178" y="514" type="line" smooth="yes"/>
      <point x="178" y="532"/>
      <point x="185" y="539"/>
      <point x="205" y="539" type="curve" smooth="yes"/>
      <point x="267" y="539" type="line"/>
      <point x="287" y="539"/>
      <point x="294" y="532"/>
      <point x="294" y="514" type="curve" smooth="yes"/>
    </contour>
    <contour>
      <point x="373" y="656" type="line"/>
      <point x="38" y="-20" type="line"/>
      <point x="104" y="-20" type="line"/>
      <point x="439" y="656" type="line"/>
    </contour>
  </outline>
</glyph>
<glyph name="Thorn" format="1">
  <advance width="477"/>
  <unicode hex="00DE"/>
  <outline>
    <contour>
      <point x="287" y="244" type="line"/>
      <point x="287" y="226"/>
      <point x="280" y="220"/>
      <point x="260" y="220" type="curve" smooth="yes"/>
      <point x="101" y="220" type="line"/>
      <point x="101" y="118" type="line"/>
      <point x="303" y="118" type="line" smooth="yes"/>
      <point x="394" y="118"/>
      <point x="430" y="160"/>
      <point x="430" y="229" type="curve" smooth="yes"/>
      <point x="430" y="407" type="line" smooth="yes"/>
      <point x="430" y="475"/>
      <point x="394" y="517"/>
      <point x="303" y="517" type="curve" smooth="yes"/>
      <point x="98" y="517" type="line"/>
      <point x="98" y="416" type="line"/>
      <point x="260" y="416" type="line" smooth="yes"/>
      <point x="280" y="416"/>
      <point x="287" y="409"/>
      <point x="287" y="391" type="curve" smooth="yes"/>
    </contour>
    <contour>
      <point x="48" y="636" type="line"/>
      <point x="48" y="0" type="line"/>
      <point x="191" y="0" type="line"/>
      <point x="191" y="636" type="line"/>
    </contour>
  </outline>
</glyph>
<glyph name="germandbls" format="1">
  <advance width="601"/>
  <unicode hex="00DF"/>
  <outline>
    <contour>
      <point x="239" y="159" type="line"/>
      <point x="239" y="111" type="line" smooth="yes"/>
      <point x="239" y="43"/>
      <point x="272" y="1"/>
      <point x="360" y="0" type="curve" smooth="yes"/>
      <point x="463" y="0" type="line" smooth="yes"/>
      <point x="553" y="0"/>
      <point x="582" y="42"/>
      <point x="582" y="111" type="curve" smooth="yes"/>
      <point x="582" y="186" type="line" smooth="yes"/>
      <point x="582" y="255"/>
      <point x="546" y="297"/>
      <point x="456" y="297" type="curve" smooth="yes"/>
      <point x="405" y="297" type="line" smooth="yes"/>
      <point x="385" y="297"/>
      <point x="378" y="303"/>
      <point x="378" y="321" type="curve" smooth="yes"/>
      <point x="378" y="340" type="line" smooth="yes"/>
      <point x="378" y="358"/>
      <point x="385" y="364"/>
      <point x="405" y="364" type="curve" smooth="yes"/>
      <point x="427" y="364" type="line"/>
      <point x="515" y="364"/>
      <point x="537" y="392"/>
      <point x="537" y="457" type="curve" smooth="yes"/>
      <point x="537" y="521" type="line" smooth="yes"/>
      <point x="537" y="585"/>
      <point x="501" y="626"/>
      <point x="416" y="626" type="curve" smooth="yes"/>
      <point x="165" y="626" type="line" smooth="yes"/>
      <point x="74" y="626"/>
      <point x="45" y="584"/>
      <point x="45" y="516" type="curve" smooth="yes"/>
      <point x="45" y="0" type="line"/>
      <point x="188" y="0" type="line"/>
      <point x="188" y="495" type="line" smooth="yes"/>
      <point x="188" y="513"/>
      <point x="195" y="520"/>
      <point x="215" y="520" type="curve" smooth="yes"/>
      <point x="363" y="520" type="line" smooth="yes"/>
      <point x="382" y="520"/>
      <point x="387" y="513"/>
      <point x="387" y="495" type="curve" smooth="yes"/>
      <point x="387" y="473" type="line" smooth="yes"/>
      <point x="387" y="456"/>
      <point x="382" y="450"/>
      <point x="360" y="450" type="curve" smooth="yes"/>
      <point x="277" y="450"/>
      <point x="242" y="417"/>
      <point x="242" y="348" type="curve"/>
      <point x="242" y="313" type="line" smooth="yes"/>
      <point x="242" y="245"/>
      <point x="270" y="203"/>
      <point x="361" y="203" type="curve" smooth="yes"/>
      <point x="416" y="203" type="line" smooth="yes"/>
      <point x="436" y="203"/>
      <point x="443" y="197"/>
      <point x="443" y="178" type="curve" smooth="yes"/>
      <point x="443" y="123" type="line" smooth="yes"/>
      <point x="443" y="104"/>
      <point x="436" y="98"/>
      <point x="416" y="98" type="curve" smooth="yes"/>
      <point x="401" y="98" type="line" smooth="yes"/>
      <point x="383" y="99"/>
      <point x="378" y="105"/>
      <point x="378" y="123" type="curve" smooth="yes"/>
      <point x="378" y="159" type="line"/>
    </contour>
  </outline>
</glyph>
<glyph name="ae" format="1">
  <advance width="668"/>
  <unicode hex="00E6"/>
  <outline>
    <contour>
      <point x="289" y="309" type="line"/>
      <point x="38" y="206" type="line"/>
      <point x="178" y="172" type="line"/>
      <point x="323" y="232" type="line"/>
    </contour>
    <contour>
      <point x="38" y="206" type="line"/>
      <point x="38" y="111" type="line" smooth="yes"/>
      <point x="38" y="42"/>
      <point x="72" y="0"/>
      <point x="155" y="0" type="curve" smooth="yes"/>
      <point x="223" y="0" type="line" smooth="yes"/>
      <point x="266" y="0"/>
      <point x="305" y="21"/>
      <point x="320" y="51" type="curve"/>
      <point x="336" y="21"/>
      <point x="371" y="0"/>
      <point x="428" y="0" type="curve" smooth="yes"/>
      <point x="496" y="0" type="line" smooth="yes"/>
      <point x="587" y="0"/>
      <point x="623" y="42"/>
      <point x="623" y="111" type="curve" smooth="yes"/>
      <point x="623" y="157" type="line"/>
      <point x="487" y="157" type="line"/>
      <point x="487" y="126" type="line" smooth="yes"/>
      <point x="487" y="108"/>
      <point x="480" y="102"/>
      <point x="460" y="102" type="curve" smooth="yes"/>
      <point x="421" y="102" type="line" smooth="yes"/>
      <point x="401" y="102"/>
      <point x="394" y="108"/>
      <point x="394" y="126" type="curve" smooth="yes"/>
      <point x="394" y="368" type="line" smooth="yes"/>
      <point x="394" y="387"/>
      <point x="401" y="393"/>
      <point x="421" y="393" type="curve" smooth="yes"/>
      <point x="461" y="393" type="line" smooth="yes"/>
      <point x="480" y="393"/>
      <point x="488" y="387"/>
      <point x="488" y="368" type="curve" smooth="yes"/>
      <point x="488" y="222" type="line"/>
      <point x="624" y="222" type="line"/>
      <point x="624" y="384" type="line" smooth="yes"/>
      <point x="624" y="453"/>
      <point x="588" y="495"/>
      <point x="497" y="495" type="curve" smooth="yes"/>
      <point x="429" y="495" type="line" smooth="yes"/>
      <point x="372" y="495"/>
      <point x="337" y="474"/>
      <point x="321" y="444" type="curve"/>
      <point x="306" y="474"/>
      <point x="267" y="495"/>
      <point x="224" y="495" type="curve" smooth="yes"/>
      <point x="155" y="495" type="line" smooth="yes"/>
      <point x="72" y="495"/>
      <point x="38" y="453"/>
      <point x="38" y="384" type="curve" smooth="yes"/>
      <point x="38" y="310" type="line"/>
      <point x="178" y="310" type="line"/>
      <point x="178" y="365" type="line" smooth="yes"/>
      <point x="178" y="383"/>
      <point x="185" y="390"/>
      <point x="205" y="390" type="curve" smooth="yes"/>
      <point x="228" y="390" type="line" smooth="yes"/>
      <point x="248" y="390"/>
      <point x="257" y="381"/>
      <point x="258" y="360" type="curve"/>
      <point x="258" y="135" type="line"/>
      <point x="257" y="114"/>
      <point x="248" y="105"/>
      <point x="228" y="105" type="curve" smooth="yes"/>
      <point x="205" y="105" type="line" smooth="yes"/>
      <point x="185" y="105"/>
      <point x="178" y="112"/>
      <point x="178" y="130" type="curve" smooth="yes"/>
      <point x="178" y="172" type="line"/>
    </contour>
    <contour>
      <point x="620" y="293" type="line"/>
      <point x="295" y="293" type="line"/>
      <point x="295" y="206" type="line"/>
      <point x="620" y="206" type="line"/>
    </contour>
  </outline>
</glyph>
<glyph name="igrave" format="1">
  <advance width="223"/>
  <unicode hex="00EC"/>
  <outline>
    <contour>
      <point x="181" y="0" type="line"/>
      <point x="181" y="495" type="line"/>
      <point x="42" y="495" type="line"/>
      <point x="42" y="0" type="line"/>
    </contour>
    <component base="grave" xOffset="-169"/>
  </outline>
</glyph>
<glyph name="iacute" format="1">
  <advance width="223"/>
  <unicode hex="00ED"/>
  <outline>
    <contour>
      <point x="181" y="0" type="line"/>
      <point x="181" y="495" type="line"/>
      <point x="42" y="495" type="line"/>
      <point x="42" y="0" type="line"/>
    </contour>
    <component base="acute" xOffset="-65"/>
  </outline>
</glyph>
<glyph name="idieresis" format="1">
  <advance width="223"/>
  <unicode hex="00EF"/>
  <outline>
    <contour>
      <point x="181" y="0" type="line"/>
      <point x="181" y="495" type="line"/>
      <point x="42" y="495" type="line"/>
      <point x="42" y="0" type="line"/>
    </contour>
    <component base="dieresis" xOffset="-126"/>
  </outline>
</glyph>
<glyph name="eth" format="1">
  <advance width="450"/>
  <unicode hex="00F0"/>
  <outline>
    <contour>
      <point x="173" y="130" type="curve"/>
      <point x="173" y="300" type="line" smooth="yes"/>
      <point x="173" y="318"/>
      <point x="180" y="325"/>
      <point x="200" y="325" type="curve" smooth="yes"/>
      <point x="307" y="325" type="line"/>
      <point x="307" y="423" type="line"/>
      <point x="160" y="423" type="line" smooth="yes"/>
      <point x="69" y="423"/>
      <point x="33" y="381"/>
      <point x="33" y="312" type="curve" smooth="yes"/>
      <point x="33" y="111" type="line" smooth="yes"/>
      <point x="33" y="42"/>
      <point x="69" y="0"/>
      <point x="160" y="0" type="curve" smooth="yes"/>
      <point x="226" y="0" type="line"/>
      <point x="226" y="105" type="line"/>
      <point x="200" y="105" type="line" smooth="yes"/>
      <point x="180" y="105"/>
      <point x="173" y="112"/>
    </contour>
    <contour>
      <point x="271" y="306" type="curve" smooth="yes"/>
      <point x="271" y="130" type="line" smooth="yes"/>
      <point x="271" y="112"/>
      <point x="264" y="105"/>
      <point x="245" y="105" type="curve" smooth="yes"/>
      <point x="217" y="105" type="line"/>
      <point x="217" y="0" type="line"/>
      <point x="282" y="0" type="line" smooth="yes"/>
      <point x="373" y="0"/>
      <point x="409" y="42"/>
      <point x="409" y="111" type="curve" smooth="yes"/>
      <point x="409" y="308" type="line" smooth="yes"/>
      <point x="409" y="482"/>
      <point x="313" y="592"/>
      <point x="261" y="636" type="curve"/>
      <point x="68" y="636" type="line"/>
      <point x="130" y="592"/>
      <point x="271" y="480"/>
    </contour>
    <contour>
      <point x="101" y="465" type="line"/>
      <point x="386" y="556" type="line"/>
      <point x="386" y="629" type="line"/>
      <point x="101" y="538" type="line"/>
    </contour>
  </outline>
</glyph>
<glyph name="divide" format="1">
  <advance width="487"/>
  <unicode hex="00F7"/>
  <outline>
    <contour>
      <point x="25" y="264" type="line"/>
      <point x="462" y="264" type="line"/>
      <point x="462" y="370" type="line"/>
      <point x="25" y="370" type="line"/>
    </contour>
    <contour>
      <point x="176" y="523" type="line"/>
      <point x="176" y="419" type="line"/>
      <point x="311" y="419" type="line"/>
      <point x="311" y="523" type="line"/>
    </contour>
    <contour>
      <point x="176" y="215" type="line"/>
      <point x="176" y="111" type="line"/>
      <point x="311" y="111" type="line"/>
      <point x="311" y="215" type="line"/>
    </contour>
  </outline>
</glyph>
<glyph name="oslash" format="1">
  <advance width="442"/>
  <unicode hex="00F8"/>
  <outline>
    <contour>
      <point x="404" y="384" type="line"/>
      <point x="404" y="453"/>
      <point x="371" y="495"/>
      <point x="281" y="495" type="curve" smooth="yes"/>
      <point x="161" y="495" type="line" smooth="yes"/>
      <point x="70" y="495"/>
      <point x="38" y="453"/>
      <point x="38" y="384" type="curve" smooth="yes"/>
      <point x="38" y="111" type="line" smooth="yes"/>
      <point x="38" y="42"/>
      <point x="70" y="0"/>
      <point x="161" y="0" type="curve" smooth="yes"/>
      <point x="281" y="0" type="line" smooth="yes"/>
      <point x="371" y="0"/>
      <point x="404" y="42"/>
      <point x="404" y="111" type="curve" smooth="yes"/>
    </contour>
    <contour>
      <point x="271" y="120" type="line"/>
      <point x="271" y="101"/>
      <point x="263" y="95"/>
      <point x="243" y="95" type="curve" smooth="yes"/>
      <point x="198" y="95" type="line" smooth="yes"/>
      <point x="178" y="95"/>
      <point x="171" y="101"/>
      <point x="171" y="120" type="curve" smooth="yes"/>
      <point x="171" y="375" type="line" smooth="yes"/>
      <point x="171" y="393"/>
      <point x="178" y="400"/>
      <point x="198" y="400" type="curve" smooth="yes"/>
      <point x="243" y="400" type="line"/>
      <point x="263" y="400"/>
      <point x="271" y="393"/>
      <point x="271" y="375" type="curve" smooth="yes"/>
    </contour>
    <contour>
      <point x="345" y="515" type="line"/>
      <point x="31" y="-20" type="line"/>
      <point x="97" y="-20" type="line"/>
      <point x="411" y="515" type="line"/>
    </contour>
  </outline>
</glyph>
<glyph name="thorn" format="1">
  <advance width="441"/>
  <unicode hex="00FE"/>
  <outline>
    <contour>
      <point x="397" y="235" type="line"/>
      <point x="397" y="384" type="line" smooth="yes"/>
      <point x="397" y="453"/>
      <point x="362" y="495"/>
      <point x="280" y="495" type="curve" smooth="yes"/>
      <point x="255" y="495" type="line" smooth="yes"/>
      <point x="201" y="495"/>
      <point x="172" y="465"/>
      <point x="172" y="412" type="curve" smooth="yes"/>
      <point x="172" y="329" type="line"/>
      <point x="177" y="329" type="line"/>
      <point x="177" y="358" type="line" smooth="yes"/>
      <point x="177" y="381"/>
      <point x="186" y="390"/>
      <point x="206" y="390" type="curve" smooth="yes"/>
      <point x="230" y="390" type="line" smooth="yes"/>
      <point x="250" y="390"/>
      <point x="257" y="383"/>
      <point x="257" y="365" type="curve" smooth="yes"/>
      <point x="257" y="235" type="line"/>
    </contour>
    <contour>
      <point x="177" y="-133" type="line"/>
      <point x="177" y="410" type="line"/>
      <point x="175" y="414" type="line"/>
      <point x="175" y="669" type="line"/>
      <point x="37" y="669" type="line"/>
      <point x="37" y="-133" type="line"/>
    </contour>
    <contour>
      <point x="257" y="260" type="line"/>
      <point x="257" y="130" type="line" smooth="yes"/>
      <point x="257" y="112"/>
      <point x="250" y="105"/>
      <point x="230" y="105" type="curve" smooth="yes"/>
      <point x="206" y="105" type="line" smooth="yes"/>
      <point x="186" y="105"/>
      <point x="177" y="114"/>
      <point x="177" y="137" type="curve" smooth="yes"/>
      <point x="177" y="163" type="line"/>
      <point x="172" y="163" type="line"/>
      <point x="172" y="83" type="line" smooth="yes"/>
      <point x="172" y="30"/>
      <point x="201" y="0"/>
      <point x="255" y="0" type="curve" smooth="yes"/>
      <point x="280" y="0" type="line" smooth="yes"/>
      <point x="362" y="0"/>
      <point x="397" y="42"/>
      <point x="397" y="111" type="curve" smooth="yes"/>
      <point x="397" y="260" type="line"/>
    </contour>
  </outline>
</glyph>
<glyph name="dcaron" format="1">
  <advance width="470"/>
  <unicode hex="010F"/>
  <outline>
    <contour>
      <point x="434" y="669" type="line"/>
      <point x="434" y="472" type="line"/>
      <point x="470" y="472" type="line"/>
      <point x="534" y="603" type="line"/>
      <point x="534" y="669" type="line"/>
    </contour>
    <component base="d"/>
  </outline>
</glyph>
<glyph name="Dcroat" format="1">
  <advance width="490"/>
  <unicode hex="0110"/>
  <outline>
    <contour>
      <point x="301" y="381" type="line"/>
      <point x="444" y="381" type="line"/>
      <point x="444" y="526" type="line" smooth="yes"/>
      <point x="444" y="594"/>
      <point x="408" y="636"/>
      <point x="317" y="636" type="curve" smooth="yes"/>
      <point x="104" y="636" type="line"/>
      <point x="104" y="531" type="line"/>
      <point x="274" y="531" type="line" smooth="yes"/>
      <point x="293" y="531"/>
      <point x="301" y="524"/>
      <point x="301" y="506" type="curve" smooth="yes"/>
    </contour>
    <contour>
      <point x="301" y="130" type="line"/>
      <point x="301" y="112"/>
      <point x="293" y="105"/>
      <point x="274" y="105" type="curve" smooth="yes"/>
      <point x="104" y="105" type="line"/>
      <point x="104" y="0" type="line"/>
      <point x="317" y="0" type="line" smooth="yes"/>
      <point x="408" y="0"/>
      <point x="444" y="42"/>
      <point x="444" y="111" type="curve" smooth="yes"/>
      <point x="444" y="398" type="line"/>
      <point x="301" y="398" type="line"/>
    </contour>
    <contour>
      <point x="52" y="636" type="line"/>
      <point x="52" y="0" type="line"/>
      <point x="195" y="0" type="line"/>
      <point x="195" y="636" type="line"/>
    </contour>
    <contour>
      <point x="257" y="371" type="line"/>
      <point x="-2" y="371" type="line"/>
      <point x="-2" y="273" type="line"/>
      <point x="257" y="273" type="line"/>
    </contour>
  </outline>
</glyph>
<glyph name="dcroat" format="1">
  <advance width="439"/>
  <unicode hex="0111"/>
  <outline>
    <contour>
      <point x="178" y="235" type="line"/>
      <point x="178" y="365" type="line" smooth="yes"/>
      <point x="178" y="383"/>
      <point x="185" y="390"/>
      <point x="205" y="390" type="curve" smooth="yes"/>
      <point x="228" y="390" type="line" smooth="yes"/>
      <point x="248" y="390"/>
      <point x="258" y="381"/>
      <point x="258" y="358" type="curve" smooth="yes"/>
      <point x="258" y="329" type="line"/>
      <point x="263" y="329" type="line"/>
      <point x="263" y="412" type="line" smooth="yes"/>
      <point x="263" y="465"/>
      <point x="234" y="495"/>
      <point x="179" y="495" type="curve" smooth="yes"/>
      <point x="155" y="495" type="line" smooth="yes"/>
      <point x="72" y="495"/>
      <point x="38" y="453"/>
      <point x="38" y="384" type="curve" smooth="yes"/>
      <point x="38" y="235" type="line"/>
    </contour>
    <contour>
      <point x="258" y="669" type="line"/>
      <point x="258" y="85" type="line"/>
      <point x="260" y="82" type="line"/>
      <point x="260" y="0" type="line"/>
      <point x="397" y="0" type="line"/>
      <point x="397" y="669" type="line"/>
    </contour>
    <contour>
      <point x="38" y="260" type="line"/>
      <point x="38" y="111" type="line" smooth="yes"/>
      <point x="38" y="42"/>
      <point x="72" y="0"/>
      <point x="155" y="0" type="curve" smooth="yes"/>
      <point x="179" y="0" type="line" smooth="yes"/>
      <point x="234" y="0"/>
      <point x="263" y="30"/>
      <point x="263" y="83" type="curve" smooth="yes"/>
      <point x="263" y="163" type="line"/>
      <point x="258" y="163" type="line"/>
      <point x="258" y="137" type="line" smooth="yes"/>
      <point x="258" y="114"/>
      <point x="248" y="105"/>
      <point x="228" y="105" type="curve" smooth="yes"/>
      <point x="205" y="105" type="line" smooth="yes"/>
      <point x="185" y="105"/>
      <point x="178" y="112"/>
      <point x="178" y="130" type="curve" smooth="yes"/>
      <point x="178" y="260" type="line"/>
    </contour>
    <contour>
      <point x="446" y="616" type="line"/>
      <point x="190" y="616" type="line"/>
      <point x="190" y="546" type="line"/>
      <point x="446" y="546" type="line"/>
    </contour>
  </outline>
</glyph>
<glyph name="gcommaaccent" format="1">
  <advance width="434"/>
  <unicode hex="0123"/>
  <outline>
    <contour>
      <point x="298" y="527" type="line"/>
      <point x="298" y="752" type="line"/>
      <point x="253" y="752" type="line"/>
      <point x="157" y="599" type="line"/>
      <point x="157" y="527" type="line"/>
    </contour>
    <component base="g"/>
  </outline>
</glyph>
<glyph name="imacron" format="1">
  <advance width="223"/>
  <unicode hex="012B"/>
  <outline>
    <contour>
      <point x="181" y="0" type="line"/>
      <point x="181" y="495" type="line"/>
      <point x="42" y="495" type="line"/>
      <point x="42" y="0" type="line"/>
    </contour>
    <component base="macron" xOffset="-124"/>
  </outline>
</glyph>
<glyph name="dotlessi" format="1">
  <advance width="223"/>
  <unicode hex="0131"/>
  <outline>
    <contour>
      <point x="181" y="0" type="line"/>
      <point x="181" y="495" type="line"/>
      <point x="42" y="495" type="line"/>
      <point x="42" y="0" type="line"/>
    </contour>
  </outline>
</glyph>
<glyph name="Kcommaaccent" format="1">
  <advance width="475"/>
  <unicode hex="0136"/>
  <outline>
    <contour>
      <point x="190" y="322" type="line"/>
      <point x="313" y="0" type="line"/>
      <point x="467" y="0" type="line"/>
      <point x="339" y="322" type="line"/>
    </contour>
    <contour>
      <point x="339" y="322" type="line"/>
      <point x="467" y="636" type="line"/>
      <point x="313" y="636" type="line"/>
      <point x="190" y="322" type="line"/>
    </contour>
    <contour>
      <point x="45" y="636" type="line"/>
      <point x="45" y="0" type="line"/>
      <point x="187" y="0" type="line"/>
      <point x="187" y="636" type="line"/>
    </contour>
    <contour>
      <point x="163" y="-48" type="line"/>
      <point x="163" y="-273" type="line"/>
      <point x="208" y="-273" type="line"/>
      <point x="304" y="-120" type="line"/>
      <point x="304" y="-48" type="line"/>
    </contour>
  </outline>
</glyph>
<glyph name="kcommaaccent" format="1">
  <advance width="430"/>
  <unicode hex="0137"/>
  <outline>
    <contour>
      <point x="181" y="0" type="line"/>
      <point x="181" y="669" type="line"/>
      <point x="42" y="669" type="line"/>
      <point x="42" y="0" type="line"/>
    </contour>
    <contour>
      <point x="182" y="254" type="line"/>
      <point x="286" y="0" type="line"/>
      <point x="432" y="0" type="line"/>
      <point x="323" y="254" type="line"/>
    </contour>
    <contour>
      <point x="323" y="254" type="line"/>
      <point x="432" y="495" type="line"/>
      <point x="287" y="495" type="line"/>
      <point x="182" y="254" type="line"/>
    </contour>
    <contour>
      <point x="154" y="-48" type="line"/>
      <point x="154" y="-273" type="line"/>
      <point x="198" y="-273" type="line"/>
      <point x="295" y="-120" type="line"/>
      <point x="295" y="-48" type="line"/>
    </contour>
  </outline>
</glyph>
<glyph name="Lcommaaccent" format="1">
  <advance width="371"/>
  <unicode hex="013B"/>
  <outline>
    <contour>
      <point x="45" y="636" type="line"/>
      <point x="45" y="0" type="line"/>
      <point x="187" y="0" type="line"/>
      <point x="187" y="636" type="line"/>
    </contour>
    <contour>
      <point x="97" y="0" type="line"/>
      <point x="370" y="0" type="line"/>
      <point x="370" y="105" type="line"/>
      <point x="97" y="105" type="line"/>
    </contour>
    <contour>
      <point x="135" y="-48" type="line"/>
      <point x="135" y="-273" type="line"/>
      <point x="180" y="-273" type="line"/>
      <point x="276" y="-120" type="line"/>
      <point x="276" y="-48" type="line"/>
    </contour>
  </outline>
</glyph>
<glyph name="lcommaaccent" format="1">
  <advance width="223"/>
  <unicode hex="013C"/>
  <outline>
    <contour>
      <point x="181" y="0" type="line"/>
      <point x="181" y="669" type="line"/>
      <point x="42" y="669" type="line"/>
      <point x="42" y="0" type="line"/>
    </contour>
    <contour>
      <point x="41" y="-48" type="line"/>
      <point x="41" y="-273" type="line"/>
      <point x="85" y="-273" type="line"/>
      <point x="182" y="-120" type="line"/>
      <point x="182" y="-48" type="line"/>
    </contour>
  </outline>
</glyph>
<glyph name="lcaron" format="1">
  <advance width="266"/>
  <unicode hex="013E"/>
  <outline>
    <contour>
      <point x="223" y="669" type="line"/>
      <point x="223" y="472" type="line"/>
      <point x="259" y="472" type="line"/>
      <point x="323" y="603" type="line"/>
      <point x="323" y="669" type="line"/>
    </contour>
    <component base="l"/>
  </outline>
</glyph>
<glyph name="Lslash" format="1">
  <advance width="387"/>
  <unicode hex="0141"/>
  <outline>
    <contour>
      <point x="301" y="460" type="line"/>
      <point x="-33" y="301" type="line"/>
      <point x="-33" y="203" type="line"/>
      <point x="301" y="362" type="line"/>
    </contour>
    <component base="L" xOffset="7"/>
  </outline>
</glyph>
<glyph name="lslash" format="1">
  <advance width="233"/>
  <unicode hex="0142"/>
  <outline>
    <contour>
      <point x="286" y="503" type="line"/>
      <point x="-47" y="344" type="line"/>
      <point x="-47" y="246" type="line"/>
      <point x="286" y="405" type="line"/>
    </contour>
    <component base="l" xOffset="5"/>
  </outline>
</glyph>
<glyph name="Ncommaaccent" format="1">
  <advance width="486"/>
  <unicode hex="0145"/>
  <outline>
    <contour>
      <point x="311" y="636" type="line"/>
      <point x="311" y="256" type="line"/>
      <point x="174" y="636" type="line"/>
      <point x="45" y="636" type="line"/>
      <point x="45" y="0" type="line"/>
      <point x="175" y="0" type="line"/>
      <point x="175" y="381" type="line"/>
      <point x="314" y="0" type="line"/>
      <point x="442" y="0" type="line"/>
      <point x="442" y="636" type="line"/>
    </contour>
    <contour>
      <point x="164" y="-48" type="line"/>
      <point x="164" y="-273" type="line"/>
      <point x="209" y="-273" type="line"/>
      <point x="305" y="-120" type="line"/>
      <point x="305" y="-48" type="line"/>
    </contour>
  </outline>
</glyph>
<glyph name="OE" format="1">
  <advance width="673"/>
  <unicode hex="0152"/>
  <outline>
    <contour>
      <point x="305" y="304" type="line"/>
      <point x="376" y="304" type="line"/>
      <point x="376" y="491" type="line" smooth="yes"/>
      <point x="376" y="566"/>
      <point x="355" y="636"/>
      <point x="265" y="636" type="curve" smooth="yes"/>
      <point x="245" y="636" type="line"/>
      <point x="245" y="538" type="line"/>
      <point x="278" y="538" type="line" smooth="yes"/>
      <point x="298" y="538"/>
      <point x="305" y="531"/>
      <point x="305" y="513" type="curve" smooth="yes"/>
    </contour>
    <contour>
      <point x="305" y="123" type="line"/>
      <point x="305" y="105"/>
      <point x="298" y="98"/>
      <point x="278" y="98" type="curve" smooth="yes"/>
      <point x="243" y="98" type="line"/>
      <point x="243" y="0" type="line"/>
      <point x="265" y="0" type="line" smooth="yes"/>
      <point x="356" y="0"/>
      <point x="376" y="70"/>
      <point x="376" y="146" type="curve" smooth="yes"/>
      <point x="376" y="328" type="line"/>
      <point x="305" y="328" type="line"/>
    </contour>
    <contour>
      <point x="203" y="513" type="line"/>
      <point x="203" y="531"/>
      <point x="211" y="538"/>
      <point x="230" y="538" type="curve" smooth="yes"/>
      <point x="250" y="538" type="line"/>
      <point x="250" y="636" type="line"/>
      <point x="187" y="636" type="line" smooth="yes"/>
      <point x="96" y="636"/>
      <point x="61" y="594"/>
      <point x="61" y="526" type="curve" smooth="yes"/>
      <point x="61" y="304" type="line"/>
      <point x="203" y="304" type="line"/>
    </contour>
    <contour>
      <point x="203" y="331" type="line"/>
      <point x="61" y="331" type="line"/>
      <point x="61" y="111" type="line" smooth="yes"/>
      <point x="61" y="42"/>
      <point x="96" y="0"/>
      <point x="187" y="0" type="curve" smooth="yes"/>
      <point x="249" y="0" type="line"/>
      <point x="249" y="98" type="line"/>
      <point x="230" y="98" type="line" smooth="yes"/>
      <point x="211" y="98"/>
      <point x="203" y="105"/>
      <point x="203" y="123" type="curve" smooth="yes"/>
    </contour>
    <contour>
      <point x="332" y="636" type="line"/>
      <point x="332" y="0" type="line"/>
      <point x="437" y="0" type="line"/>
      <point x="437" y="636" type="line"/>
    </contour>
    <contour>
      <point x="604" y="373" type="line"/>
      <point x="360" y="373" type="line"/>
      <point x="360" y="274" type="line"/>
      <point x="604" y="274" type="line"/>
    </contour>
    <contour>
      <point x="633" y="636" type="line"/>
      <point x="351" y="636" type="line"/>
      <point x="351" y="538" type="line"/>
      <point x="633" y="538" type="line"/>
    </contour>
    <contour>
      <point x="642" y="98" type="line"/>
      <point x="351" y="98" type="line"/>
      <point x="351" y="0" type="line"/>
      <point x="642" y="0" type="line"/>
    </contour>
  </outline>
</glyph>
<glyph name="Rcommaaccent" format="1">
  <advance width="469"/>
  <unicode hex="0156"/>
  <outline>
    <contour>
      <point x="290" y="363" type="line"/>
      <point x="290" y="345"/>
      <point x="283" y="339"/>
      <point x="264" y="339" type="curve" smooth="yes"/>
      <point x="97" y="339" type="line"/>
      <point x="97" y="238" type="line"/>
      <point x="307" y="238" type="line" smooth="yes"/>
      <point x="398" y="238"/>
      <point x="433" y="280"/>
      <point x="433" y="348" type="curve" smooth="yes"/>
      <point x="433" y="526" type="line" smooth="yes"/>
      <point x="433" y="594"/>
      <point x="398" y="636"/>
      <point x="307" y="636" type="curve" smooth="yes"/>
      <point x="85" y="636" type="line"/>
      <point x="85" y="531" type="line"/>
      <point x="264" y="531" type="line" smooth="yes"/>
      <point x="283" y="531"/>
      <point x="290" y="524"/>
      <point x="290" y="506" type="curve" smooth="yes"/>
    </contour>
    <contour>
      <point x="45" y="636" type="line"/>
      <point x="45" y="0" type="line"/>
      <point x="187" y="0" type="line"/>
      <point x="187" y="636" type="line"/>
    </contour>
    <contour>
      <point x="188" y="294" type="line"/>
      <point x="312" y="0" type="line"/>
      <point x="465" y="0" type="line"/>
      <point x="329" y="294" type="line"/>
    </contour>
    <contour>
      <point x="159" y="-48" type="line"/>
      <point x="159" y="-273" type="line"/>
      <point x="204" y="-273" type="line"/>
      <point x="300" y="-120" type="line"/>
      <point x="300" y="-48" type="line"/>
    </contour>
  </outline>
</glyph>
<glyph name="rcommaaccent" format="1">
  <advance width="298"/>
  <unicode hex="0157"/>
  <outline>
    <contour>
      <point x="293" y="498" type="line"/>
      <point x="276" y="498" type="line" smooth="yes"/>
      <point x="212" y="498"/>
      <point x="176" y="453"/>
      <point x="176" y="396" type="curve"/>
      <point x="176" y="282" type="line"/>
      <point x="181" y="282" type="line"/>
      <point x="181" y="307" type="line"/>
      <point x="181" y="353"/>
      <point x="202" y="377"/>
      <point x="244" y="377" type="curve" smooth="yes"/>
      <point x="293" y="377" type="line"/>
    </contour>
    <contour>
      <point x="181" y="0" type="line"/>
      <point x="181" y="401" type="line"/>
      <point x="179" y="389" type="line"/>
      <point x="179" y="495" type="line"/>
      <point x="42" y="495" type="line"/>
      <point x="42" y="0" type="line"/>
    </contour>
    <contour>
      <point x="41" y="-48" type="line"/>
      <point x="41" y="-273" type="line"/>
      <point x="86" y="-273" type="line"/>
      <point x="182" y="-120" type="line"/>
      <point x="182" y="-48" type="line"/>
    </contour>
  </outline>
</glyph>
<glyph name="Tcedilla" format="1">
  <advance width="386"/>
  <unicode hex="0162"/>
  <outline>
    <contour>
      <point x="121" y="594" type="line"/>
      <point x="121" y="0" type="line"/>
      <point x="264" y="0" type="line"/>
      <point x="264" y="594" type="line"/>
    </contour>
    <contour>
      <point x="381" y="636" type="line"/>
      <point x="5" y="636" type="line"/>
      <point x="5" y="531" type="line"/>
      <point x="381" y="531" type="line"/>
    </contour>
    <contour>
      <point x="122" y="-48" type="line"/>
      <point x="122" y="-273" type="line"/>
      <point x="167" y="-273" type="line"/>
      <point x="263" y="-120" type="line"/>
      <point x="263" y="-48" type="line"/>
    </contour>
  </outline>
</glyph>
<glyph name="tcaron" format="1">
  <advance width="271"/>
  <unicode hex="0165"/>
  <outline>
    <contour>
      <point x="239" y="708" type="line"/>
      <point x="239" y="530" type="line"/>
      <point x="275" y="530" type="line"/>
      <point x="343" y="642" type="line"/>
      <point x="343" y="708" type="line"/>
    </contour>
    <component base="t"/>
  </outline>
</glyph>
<glyph name="florin" format="1">
  <advance width="413"/>
  <unicode hex="0192"/>
  <outline>
    <contour>
      <point x="296" y="538" type="line"/>
      <point x="298" y="556"/>
      <point x="303" y="562"/>
      <point x="323" y="562" type="curve" smooth="yes"/>
      <point x="374" y="562" type="line"/>
      <point x="374" y="669" type="line"/>
      <point x="283" y="669" type="line" smooth="yes"/>
      <point x="192" y="669"/>
      <point x="166" y="626"/>
      <point x="156" y="559" type="curve" smooth="yes"/>
      <point x="76" y="-14" type="line" smooth="yes"/>
      <point x="74" y="-32"/>
      <point x="69" y="-39"/>
      <point x="49" y="-39" type="curve" smooth="yes"/>
      <point x="-2" y="-39" type="line"/>
      <point x="-2" y="-145" type="line"/>
      <point x="89" y="-145" type="line" smooth="yes"/>
      <point x="180" y="-145"/>
      <point x="206" y="-102"/>
      <point x="216" y="-35" type="curve" smooth="yes"/>
    </contour>
    <contour>
      <point x="373" y="495" type="line"/>
      <point x="67" y="495" type="line"/>
      <point x="67" y="390" type="line"/>
      <point x="373" y="390" type="line"/>
    </contour>
  </outline>
</glyph>
<glyph name="circumflex" format="1">
  <advance width="470"/>
  <unicode hex="02C6"/>
  <outline>
    <contour>
      <point x="49" y="527" type="line"/>
      <point x="182" y="527" type="line"/>
      <point x="235" y="601" type="line"/>
      <point x="288" y="527" type="line"/>
      <point x="420" y="527" type="line"/>
      <point x="302" y="670" type="line"/>
      <point x="168" y="670" type="line"/>
    </contour>
  </outline>
</glyph>
<glyph name="caron" format="1">
  <advance width="470"/>
  <unicode hex="02C7"/>
  <outline>
    <contour>
      <point x="168" y="527" type="line"/>
      <point x="302" y="527" type="line"/>
      <point x="420" y="670" type="line"/>
      <point x="288" y="670" type="line"/>
      <point x="235" y="597" type="line"/>
      <point x="182" y="670" type="line"/>
      <point x="49" y="670" type="line"/>
    </contour>
  </outline>
</glyph>
<glyph name="macronmod" format="1">
  <advance width="470"/>
  <unicode hex="02C9"/>
  <outline>
    <contour>
      <point x="63" y="553" type="line"/>
      <point x="406" y="553" type="line"/>
      <point x="406" y="645" type="line"/>
      <point x="63" y="645" type="line"/>
    </contour>
  </outline>
</glyph>
<glyph name="breve" format="1">
  <advance width="470"/>
  <unicode hex="02D8"/>
  <outline>
    <contour>
      <point x="287" y="670" type="line"/>
      <point x="287" y="635" type="line" smooth="yes"/>
      <point x="287" y="617"/>
      <point x="280" y="611"/>
      <point x="260" y="611" type="curve" smooth="yes"/>
      <point x="227" y="611" type="line"/>
      <point x="227" y="527" type="line"/>
      <point x="285" y="527" type="line" smooth="yes"/>
      <point x="376" y="527"/>
      <point x="412" y="569"/>
      <point x="412" y="638" type="curve" smooth="yes"/>
      <point x="412" y="670" type="line"/>
    </contour>
    <contour>
      <point x="58" y="670" type="line"/>
      <point x="58" y="638" type="line" smooth="yes"/>
      <point x="58" y="569"/>
      <point x="94" y="527"/>
      <point x="185" y="527" type="curve" smooth="yes"/>
      <point x="244" y="527" type="line"/>
      <point x="244" y="611" type="line"/>
      <point x="210" y="611" type="line" smooth="yes"/>
      <point x="190" y="611"/>
      <point x="183" y="617"/>
      <point x="183" y="635" type="curve" smooth="yes"/>
      <point x="183" y="670" type="line"/>
    </contour>
  </outline>
</glyph>
<glyph name="dotaccent" format="1">
  <advance width="470"/>
  <unicode hex="02D9"/>
  <outline>
    <contour>
      <point x="165" y="540" type="line"/>
      <point x="306" y="540" type="line"/>
      <point x="306" y="657" type="line"/>
      <point x="165" y="657" type="line"/>
    </contour>
  </outline>
</glyph>
<glyph name="ring" format="1">
  <advance width="470"/>
  <unicode hex="02DA"/>
  <outline>
    <contour>
      <point x="365" y="607" type="line"/>
      <point x="365" y="658"/>
      <point x="341" y="689"/>
      <point x="274" y="689" type="curve" smooth="yes"/>
      <point x="196" y="689" type="line" smooth="yes"/>
      <point x="129" y="689"/>
      <point x="105" y="658"/>
      <point x="105" y="607" type="curve" smooth="yes"/>
      <point x="105" y="591" type="line" smooth="yes"/>
      <point x="105" y="539"/>
      <point x="129" y="509"/>
      <point x="196" y="509" type="curve" smooth="yes"/>
      <point x="274" y="509" type="line" smooth="yes"/>
      <point x="341" y="509"/>
      <point x="365" y="539"/>
      <point x="365" y="591" type="curve"/>
    </contour>
    <contour>
      <point x="276" y="593" type="line"/>
      <point x="276" y="577"/>
      <point x="271" y="572"/>
      <point x="253" y="572" type="curve" smooth="yes"/>
      <point x="217" y="572" type="line" smooth="yes"/>
      <point x="199" y="572"/>
      <point x="195" y="577"/>
      <point x="195" y="593" type="curve" smooth="yes"/>
      <point x="195" y="604" type="line" smooth="yes"/>
      <point x="195" y="620"/>
      <point x="199" y="626"/>
      <point x="217" y="626" type="curve" smooth="yes"/>
      <point x="253" y="626" type="line" smooth="yes"/>
      <point x="271" y="626"/>
      <point x="276" y="620"/>
      <point x="276" y="604" type="curve"/>
    </contour>
  </outline>
</glyph>
<glyph name="ogonek" format="1">
  <advance width="470"/>
  <unicode hex="02DB"/>
  <outline>
    <contour>
      <point x="135" y="-116" type="curve" smooth="yes"/>
      <point x="135" y="-158" type="line" smooth="yes"/>
      <point x="135" y="-219"/>
      <point x="161" y="-255"/>
      <point x="240" y="-255" type="curve" smooth="yes"/>
      <point x="348" y="-255" type="line"/>
      <point x="348" y="-171" type="line"/>
      <point x="261" y="-171" type="line" smooth="yes"/>
      <point x="242" y="-171"/>
      <point x="236" y="-166"/>
      <point x="236" y="-150" type="curve" smooth="yes"/>
      <point x="236" y="-125" type="line"/>
      <point x="236" y="-109"/>
      <point x="242" y="-103"/>
      <point x="261" y="-103" type="curve" smooth="yes"/>
      <point x="330" y="-103" type="line"/>
      <point x="330" y="-19" type="line"/>
      <point x="240" y="-19" type="line" smooth="yes"/>
      <point x="161" y="-19"/>
      <point x="135" y="-56"/>
    </contour>
    <contour>
      <point x="330" y="-24" type="line"/>
      <point x="330" y="14" type="line"/>
      <point x="246" y="14" type="line"/>
      <point x="246" y="-24" type="line"/>
    </contour>
  </outline>
</glyph>
<glyph name="tilde" format="1">
  <advance width="470"/>
  <unicode hex="02DC"/>
  <outline>
    <contour>
      <point x="304" y="533" type="curve" smooth="yes"/>
      <point x="318" y="533" type="line" smooth="yes"/>
      <point x="388" y="533"/>
      <point x="410" y="563"/>
      <point x="410" y="618" type="curve" smooth="yes"/>
      <point x="410" y="665" type="line"/>
      <point x="297" y="665" type="line"/>
      <point x="297" y="640" type="line" smooth="yes"/>
      <point x="297" y="624"/>
      <point x="291" y="618"/>
      <point x="278" y="618" type="curve" smooth="yes"/>
      <point x="256" y="618"/>
      <point x="219" y="665"/>
      <point x="166" y="665" type="curve" smooth="yes"/>
      <point x="151" y="665" type="line" smooth="yes"/>
      <point x="82" y="665"/>
      <point x="60" y="631"/>
      <point x="60" y="575" type="curve" smooth="yes"/>
      <point x="60" y="533" type="line"/>
      <point x="173" y="533" type="line"/>
      <point x="173" y="558" type="line" smooth="yes"/>
      <point x="173" y="572"/>
      <point x="178" y="580"/>
      <point x="190" y="580" type="curve" smooth="yes"/>
      <point x="213" y="580"/>
      <point x="251" y="533"/>
    </contour>
  </outline>
</glyph>
<glyph name="hungarumlaut" format="1">
  <advance width="470"/>
  <unicode hex="02DD"/>
  <outline>
    <contour>
      <point x="208" y="527" type="line"/>
      <point x="302" y="527" type="line"/>
      <point x="425" y="670" type="line"/>
      <point x="300" y="670" type="line"/>
    </contour>
    <contour>
      <point x="45" y="527" type="line"/>
      <point x="139" y="527" type="line"/>
      <point x="262" y="670" type="line"/>
      <point x="137" y="670" type="line"/>
    </contour>
  </outline>
</glyph>
<glyph name="pi" format="1">
  <advance width="519"/>
  <unicode hex="03C0"/>
  <outline>
    <contour>
      <point x="68" y="131" type="line"/>
      <point x="68" y="113"/>
      <point x="61" y="107"/>
      <point x="41" y="107" type="curve" smooth="yes"/>
      <point x="7" y="107" type="line"/>
      <point x="7" y="0" type="line"/>
      <point x="81" y="0" type="line" smooth="yes"/>
      <point x="172" y="0"/>
      <point x="207" y="42"/>
      <point x="207" y="111" type="curve" smooth="yes"/>
      <point x="207" y="438" type="line"/>
      <point x="68" y="438" type="line"/>
    </contour>
    <contour>
      <point x="298" y="444" type="line"/>
      <point x="298" y="0" type="line"/>
      <point x="441" y="0" type="line"/>
      <point x="441" y="444" type="line"/>
    </contour>
    <contour>
      <point x="512" y="495" type="line"/>
      <point x="68" y="495" type="line"/>
      <point x="68" y="397" type="line"/>
      <point x="512" y="397" type="line"/>
    </contour>
  </outline>
</glyph>
<glyph name="danda" format="1">
  <advance width="384"/>
  <unicode hex="0964"/>
  <outline>
    <contour>
      <point x="261" y="668" type="line"/>
      <point x="123" y="668" type="line"/>
      <point x="123" y="-32" type="line"/>
      <point x="261" y="-32" type="line"/>
    </contour>
  </outline>
</glyph>
<glyph name="emdash" format="1">
  <advance width="668"/>
  <unicode hex="2014"/>
  <outline>
    <contour>
      <point x="32" y="250" type="line"/>
      <point x="630" y="250" type="line"/>
      <point x="630" y="348" type="line"/>
      <point x="32" y="348" type="line"/>
    </contour>
  </outline>
</glyph>
<glyph name="quoteleft" format="1">
  <advance width="220"/>
  <unicode hex="2018"/>
  <outline>
    <contour>
      <point x="183" y="342" type="line"/>
      <point x="183" y="636" type="line"/>
      <point x="142" y="636" type="line"/>
      <point x="37" y="423" type="line"/>
      <point x="37" y="342" type="line"/>
    </contour>
  </outline>
</glyph>
<glyph name="quoteright" format="1">
  <advance width="220"/>
  <unicode hex="2019"/>
  <outline>
    <contour>
      <point x="37" y="636" type="line"/>
      <point x="37" y="342" type="line"/>
      <point x="78" y="342" type="line"/>
      <point x="183" y="556" type="line"/>
      <point x="183" y="636" type="line"/>
    </contour>
  </outline>
</glyph>
<glyph name="quotesinglbase" format="1">
  <advance width="219"/>
  <unicode hex="201A"/>
  <outline>
    <contour>
      <point x="37" y="148" type="line"/>
      <point x="37" y="-145" type="line"/>
      <point x="82" y="-145" type="line"/>
      <point x="182" y="68" type="line"/>
      <point x="182" y="148" type="line"/>
    </contour>
  </outline>
</glyph>
<glyph name="quotedblleft" format="1">
  <advance width="407"/>
  <unicode hex="201C"/>
  <outline>
    <contour>
      <point x="370" y="342" type="line"/>
      <point x="370" y="636" type="line"/>
      <point x="330" y="636" type="line"/>
      <point x="225" y="423" type="line"/>
      <point x="225" y="342" type="line"/>
    </contour>
    <contour>
      <point x="182" y="342" type="line"/>
      <point x="182" y="636" type="line"/>
      <point x="142" y="636" type="line"/>
      <point x="37" y="423" type="line"/>
      <point x="37" y="342" type="line"/>
    </contour>
  </outline>
</glyph>
<glyph name="quotedblright" format="1">
  <advance width="407"/>
  <unicode hex="201D"/>
  <outline>
    <contour>
      <point x="37" y="636" type="line"/>
      <point x="37" y="342" type="line"/>
      <point x="77" y="342" type="line"/>
      <point x="182" y="556" type="line"/>
      <point x="182" y="636" type="line"/>
    </contour>
    <contour>
      <point x="225" y="636" type="line"/>
      <point x="225" y="342" type="line"/>
      <point x="265" y="342" type="line"/>
      <point x="370" y="556" type="line"/>
      <point x="370" y="636" type="line"/>
    </contour>
  </outline>
</glyph>
<glyph name="quotedblbase" format="1">
  <advance width="407"/>
  <unicode hex="201E"/>
  <outline>
    <contour>
      <point x="37" y="148" type="line"/>
      <point x="37" y="-145" type="line"/>
      <point x="77" y="-145" type="line"/>
      <point x="182" y="68" type="line"/>
      <point x="182" y="148" type="line"/>
    </contour>
    <contour>
      <point x="225" y="148" type="line"/>
      <point x="225" y="-145" type="line"/>
      <point x="265" y="-145" type="line"/>
      <point x="370" y="68" type="line"/>
      <point x="370" y="148" type="line"/>
    </contour>
  </outline>
</glyph>
<glyph name="dagger" format="1">
  <advance width="419"/>
  <unicode hex="2020"/>
  <outline>
    <contour>
      <point x="138" y="636" type="line"/>
      <point x="138" y="-109" type="line"/>
      <point x="281" y="-109" type="line"/>
      <point x="281" y="636" type="line"/>
    </contour>
    <contour>
      <point x="411" y="480" type="line"/>
      <point x="9" y="480" type="line"/>
      <point x="9" y="382" type="line"/>
      <point x="411" y="382" type="line"/>
    </contour>
  </outline>
</glyph>
<glyph name="daggerdbl" format="1">
  <advance width="446"/>
  <unicode hex="2021"/>
  <outline>
    <contour>
      <point x="151" y="636" type="line"/>
      <point x="151" y="-143" type="line"/>
      <point x="294" y="-143" type="line"/>
      <point x="294" y="636" type="line"/>
    </contour>
    <contour>
      <point x="424" y="480" type="line"/>
      <point x="22" y="480" type="line"/>
      <point x="22" y="382" type="line"/>
      <point x="424" y="382" type="line"/>
    </contour>
    <contour>
      <point x="424" y="111" type="line"/>
      <point x="22" y="111" type="line"/>
      <point x="22" y="13" type="line"/>
      <point x="424" y="13" type="line"/>
    </contour>
  </outline>
</glyph>
<glyph name="bullet" format="1">
  <advance width="396"/>
  <unicode hex="2022"/>
  <outline>
    <contour>
      <point x="56" y="321" type="curve" smooth="yes"/>
      <point x="56" y="243"/>
      <point x="120" y="179"/>
      <point x="198" y="179" type="curve" smooth="yes"/>
      <point x="276" y="179"/>
      <point x="340" y="243"/>
      <point x="340" y="321" type="curve" smooth="yes"/>
      <point x="340" y="399"/>
      <point x="276" y="463"/>
      <point x="198" y="463" type="curve" smooth="yes"/>
      <point x="120" y="463"/>
      <point x="56" y="399"/>
    </contour>
  </outline>
</glyph>
<glyph name="ellipsis" format="1">
  <advance width="677"/>
  <unicode hex="2026"/>
  <outline>
    <contour>
      <point x="45" y="0" type="line"/>
      <point x="193" y="0" type="line"/>
      <point x="193" y="147" type="line"/>
      <point x="45" y="147" type="line"/>
    </contour>
    <contour>
      <point x="274" y="0" type="line"/>
      <point x="422" y="0" type="line"/>
      <point x="422" y="147" type="line"/>
      <point x="274" y="147" type="line"/>
    </contour>
    <contour>
      <point x="503" y="0" type="line"/>
      <point x="651" y="0" type="line"/>
      <point x="651" y="147" type="line"/>
      <point x="503" y="147" type="line"/>
    </contour>
  </outline>
</glyph>
<glyph name="perthousand" format="1">
  <advance width="1135"/>
  <unicode hex="2030"/>
  <outline>
    <contour>
      <point x="320" y="545" type="line"/>
      <point x="320" y="602"/>
      <point x="292" y="636"/>
      <point x="218" y="636" type="curve" smooth="yes"/>
      <point x="129" y="636" type="line" smooth="yes"/>
      <point x="55" y="636"/>
      <point x="27" y="602"/>
      <point x="27" y="545" type="curve" smooth="yes"/>
      <point x="27" y="361" type="line" smooth="yes"/>
      <point x="27" y="305"/>
      <point x="55" y="270"/>
      <point x="129" y="270" type="curve"/>
      <point x="218" y="270" type="line" smooth="yes"/>
      <point x="292" y="270"/>
      <point x="320" y="305"/>
      <point x="320" y="361" type="curve" smooth="yes"/>
    </contour>
    <contour>
      <point x="774" y="275" type="line"/>
      <point x="774" y="332"/>
      <point x="745" y="366"/>
      <point x="671" y="366" type="curve" smooth="yes"/>
      <point x="583" y="366" type="line"/>
      <point x="509" y="366"/>
      <point x="480" y="332"/>
      <point x="480" y="275" type="curve" smooth="yes"/>
      <point x="480" y="91" type="line" smooth="yes"/>
      <point x="480" y="35"/>
      <point x="509" y="0"/>
      <point x="583" y="0" type="curve" smooth="yes"/>
      <point x="671" y="0" type="line" smooth="yes"/>
      <point x="745" y="0"/>
      <point x="774" y="35"/>
      <point x="774" y="91" type="curve" smooth="yes"/>
    </contour>
    <contour>
      <point x="205" y="378" type="line"/>
      <point x="205" y="362"/>
      <point x="200" y="357"/>
      <point x="183" y="357" type="curve" smooth="yes"/>
      <point x="164" y="357" type="line" smooth="yes"/>
      <point x="147" y="357"/>
      <point x="142" y="362"/>
      <point x="142" y="378" type="curve" smooth="yes"/>
      <point x="142" y="528" type="line" smooth="yes"/>
      <point x="142" y="544"/>
      <point x="147" y="550"/>
      <point x="164" y="550" type="curve"/>
      <point x="183" y="550" type="line" smooth="yes"/>
      <point x="200" y="550"/>
      <point x="205" y="544"/>
      <point x="205" y="528" type="curve" smooth="yes"/>
    </contour>
    <contour>
      <point x="659" y="108" type="line"/>
      <point x="659" y="92"/>
      <point x="653" y="87"/>
      <point x="636" y="87" type="curve" smooth="yes"/>
      <point x="618" y="87" type="line"/>
      <point x="601" y="87"/>
      <point x="596" y="92"/>
      <point x="596" y="108" type="curve" smooth="yes"/>
      <point x="596" y="258" type="line" smooth="yes"/>
      <point x="596" y="274"/>
      <point x="601" y="280"/>
      <point x="618" y="280" type="curve" smooth="yes"/>
      <point x="636" y="280" type="line" smooth="yes"/>
      <point x="653" y="280"/>
      <point x="659" y="274"/>
      <point x="659" y="258" type="curve" smooth="yes"/>
    </contour>
    <contour>
      <point x="515" y="636" type="line"/>
      <point x="181" y="0" type="line"/>
      <point x="286" y="0" type="line"/>
      <point x="622" y="636" type="line"/>
    </contour>
    <contour>
      <point x="1109" y="275" type="line"/>
      <point x="1109" y="332"/>
      <point x="1080" y="366"/>
      <point x="1006" y="366" type="curve" smooth="yes"/>
      <point x="917" y="366" type="line"/>
      <point x="843" y="366"/>
      <point x="815" y="332"/>
      <point x="815" y="275" type="curve" smooth="yes"/>
      <point x="815" y="91" type="line" smooth="yes"/>
      <point x="815" y="35"/>
      <point x="843" y="0"/>
      <point x="917" y="0" type="curve" smooth="yes"/>
      <point x="1006" y="0" type="line" smooth="yes"/>
      <point x="1080" y="0"/>
      <point x="1109" y="35"/>
      <point x="1109" y="91" type="curve" smooth="yes"/>
    </contour>
    <contour>
      <point x="993" y="108" type="line"/>
      <point x="993" y="92"/>
      <point x="988" y="87"/>
      <point x="971" y="87" type="curve" smooth="yes"/>
      <point x="953" y="87" type="line"/>
      <point x="935" y="87"/>
      <point x="930" y="92"/>
      <point x="930" y="108" type="curve" smooth="yes"/>
      <point x="930" y="258" type="line" smooth="yes"/>
      <point x="930" y="274"/>
      <point x="935" y="280"/>
      <point x="953" y="280" type="curve" smooth="yes"/>
      <point x="971" y="280" type="line" smooth="yes"/>
      <point x="988" y="280"/>
      <point x="993" y="274"/>
      <point x="993" y="258" type="curve" smooth="yes"/>
    </contour>
  </outline>
</glyph>
<glyph name="guilsinglleft" format="1">
  <advance width="295"/>
  <unicode hex="2039"/>
  <outline>
    <contour>
      <point x="137" y="99" type="line"/>
      <point x="278" y="99" type="line"/>
      <point x="166" y="253" type="line"/>
      <point x="278" y="405" type="line"/>
      <point x="137" y="405" type="line"/>
      <point x="23" y="253" type="line"/>
    </contour>
  </outline>
</glyph>
<glyph name="guilsinglright" format="1">
  <advance width="296"/>
  <unicode hex="203A"/>
  <outline>
    <contour>
      <point x="278" y="253" type="line"/>
      <point x="165" y="405" type="line"/>
      <point x="23" y="405" type="line"/>
      <point x="136" y="253" type="line"/>
      <point x="23" y="99" type="line"/>
      <point x="165" y="99" type="line"/>
    </contour>
  </outline>
</glyph>
<glyph name="fraction" format="1">
  <advance width="403"/>
  <unicode hex="2044"/>
  <outline>
    <contour>
      <point x="283" y="701" type="line"/>
      <point x="-12" y="-83" type="line"/>
      <point x="110" y="-83" type="line"/>
      <point x="404" y="701" type="line"/>
    </contour>
  </outline>
</glyph>
<glyph name="Euro" format="1">
  <advance width="472"/>
  <unicode hex="20AC"/>
  <outline>
    <contour>
      <point x="204" y="513" type="line"/>
      <point x="204" y="531"/>
      <point x="211" y="538"/>
      <point x="231" y="538" type="curve" smooth="yes"/>
      <point x="260" y="538" type="line"/>
      <point x="260" y="636" type="line"/>
      <point x="188" y="636" type="line" smooth="yes"/>
      <point x="97" y="636"/>
      <point x="61" y="594"/>
      <point x="61" y="526" type="curve" smooth="yes"/>
      <point x="61" y="110" type="line" smooth="yes"/>
      <point x="61" y="42"/>
      <point x="97" y="0"/>
      <point x="188" y="0" type="curve"/>
      <point x="258" y="0" type="line"/>
      <point x="258" y="98" type="line"/>
      <point x="231" y="98" type="line" smooth="yes"/>
      <point x="211" y="98"/>
      <point x="204" y="104"/>
      <point x="204" y="123" type="curve" smooth="yes"/>
    </contour>
    <contour>
      <point x="299" y="413" type="line"/>
      <point x="442" y="413" type="line"/>
      <point x="442" y="526" type="line" smooth="yes"/>
      <point x="442" y="594"/>
      <point x="406" y="636"/>
      <point x="316" y="636" type="curve" smooth="yes"/>
      <point x="244" y="636" type="line"/>
      <point x="244" y="538" type="line"/>
      <point x="272" y="538" type="line" smooth="yes"/>
      <point x="292" y="538"/>
      <point x="299" y="531"/>
      <point x="299" y="513" type="curve" smooth="yes"/>
    </contour>
    <contour>
      <point x="299" y="123" type="line"/>
      <point x="299" y="104"/>
      <point x="292" y="98"/>
      <point x="272" y="98" type="curve" smooth="yes"/>
      <point x="244" y="98" type="line"/>
      <point x="244" y="0" type="line"/>
      <point x="316" y="0" type="line" smooth="yes"/>
      <point x="406" y="0"/>
      <point x="442" y="42"/>
      <point x="442" y="110" type="curve" smooth="yes"/>
      <point x="442" y="220" type="line"/>
      <point x="299" y="220" type="line"/>
    </contour>
    <contour>
      <point x="274" y="298" type="line"/>
      <point x="18" y="298" type="line"/>
      <point x="18" y="214" type="line"/>
      <point x="274" y="214" type="line"/>
    </contour>
    <contour>
      <point x="274" y="423" type="line"/>
      <point x="18" y="423" type="line"/>
      <point x="18" y="338" type="line"/>
      <point x="274" y="338" type="line"/>
    </contour>
  </outline>
</glyph>
<glyph name="trademark" format="1">
  <advance width="691"/>
  <unicode hex="2122"/>
  <outline>
    <contour>
      <point x="93" y="594" type="line"/>
      <point x="93" y="307" type="line"/>
      <point x="198" y="307" type="line"/>
      <point x="198" y="594" type="line"/>
    </contour>
    <contour>
      <point x="283" y="636" type="line"/>
      <point x="9" y="636" type="line"/>
      <point x="9" y="552" type="line"/>
      <point x="283" y="552" type="line"/>
    </contour>
    <contour>
      <point x="313" y="636" type="line"/>
      <point x="313" y="307" type="line"/>
      <point x="405" y="307" type="line"/>
      <point x="405" y="485" type="line"/>
      <point x="448" y="355" type="line"/>
      <point x="526" y="355" type="line"/>
      <point x="569" y="486" type="line"/>
      <point x="569" y="307" type="line"/>
      <point x="661" y="307" type="line"/>
      <point x="661" y="636" type="line"/>
      <point x="551" y="636" type="line"/>
      <point x="487" y="451" type="line"/>
      <point x="423" y="636" type="line"/>
    </contour>
  </outline>
</glyph>
<glyph name="Omega.math" format="1">
  <advance width="483"/>
  <unicode hex="2126"/>
  <outline>
    <contour>
      <point x="293" y="304" type="line"/>
      <point x="435" y="304" type="line"/>
      <point x="435" y="526" type="line" smooth="yes"/>
      <point x="435" y="594"/>
      <point x="400" y="636"/>
      <point x="309" y="636" type="curve" smooth="yes"/>
      <point x="232" y="636" type="line"/>
      <point x="232" y="531" type="line"/>
      <point x="266" y="531" type="line" smooth="yes"/>
      <point x="285" y="531"/>
      <point x="293" y="524"/>
      <point x="293" y="506" type="curve" smooth="yes"/>
    </contour>
    <contour>
      <point x="293" y="137" type="line"/>
      <point x="293" y="119"/>
      <point x="290" y="105"/>
      <point x="273" y="105" type="curve" smooth="yes"/>
      <point x="267" y="105" type="line"/>
      <point x="267" y="85" type="line"/>
      <point x="309" y="85" type="line" smooth="yes"/>
      <point x="400" y="85"/>
      <point x="435" y="114"/>
      <point x="435" y="183" type="curve" smooth="yes"/>
      <point x="435" y="328" type="line"/>
      <point x="293" y="328" type="line"/>
    </contour>
    <contour>
      <point x="191" y="506" type="line"/>
      <point x="191" y="524"/>
      <point x="198" y="531"/>
      <point x="218" y="531" type="curve" smooth="yes"/>
      <point x="251" y="531" type="line"/>
      <point x="251" y="636" type="line"/>
      <point x="175" y="636" type="line" smooth="yes"/>
      <point x="84" y="636"/>
      <point x="48" y="594"/>
      <point x="48" y="526" type="curve" smooth="yes"/>
      <point x="48" y="304" type="line"/>
      <point x="191" y="304" type="line"/>
    </contour>
    <contour>
      <point x="191" y="331" type="line"/>
      <point x="48" y="331" type="line"/>
      <point x="48" y="183" type="line" smooth="yes"/>
      <point x="48" y="114"/>
      <point x="84" y="85"/>
      <point x="175" y="85" type="curve" smooth="yes"/>
      <point x="216" y="85" type="line"/>
      <point x="216" y="105" type="line"/>
      <point x="211" y="105" type="line" smooth="yes"/>
      <point x="193" y="105"/>
      <point x="191" y="119"/>
      <point x="191" y="137" type="curve" smooth="yes"/>
    </contour>
    <contour>
      <point x="469" y="105" type="line"/>
      <point x="265" y="105" type="line"/>
      <point x="265" y="0" type="line"/>
      <point x="469" y="0" type="line"/>
    </contour>
    <contour>
      <point x="218" y="105" type="line"/>
      <point x="14" y="105" type="line"/>
      <point x="14" y="0" type="line"/>
      <point x="218" y="0" type="line"/>
    </contour>
  </outline>
</glyph>
<glyph name="product" format="1">
  <advance width="500"/>
  <unicode hex="220F"/>
  <outline>
    <contour>
      <point x="62" y="131" type="line"/>
      <point x="62" y="113"/>
      <point x="55" y="107"/>
      <point x="35" y="107" type="curve" smooth="yes"/>
      <point x="3" y="107" type="line"/>
      <point x="3" y="0" type="line"/>
      <point x="75" y="0" type="line" smooth="yes"/>
      <point x="166" y="0"/>
      <point x="201" y="42"/>
      <point x="201" y="111" type="curve" smooth="yes"/>
      <point x="201" y="579" type="line"/>
      <point x="62" y="579" type="line"/>
    </contour>
    <contour>
      <point x="312" y="585" type="line"/>
      <point x="312" y="0" type="line"/>
      <point x="455" y="0" type="line"/>
      <point x="455" y="585" type="line"/>
    </contour>
    <contour>
      <point x="455" y="636" type="line"/>
      <point x="62" y="636" type="line"/>
      <point x="62" y="538" type="line"/>
      <point x="455" y="538" type="line"/>
    </contour>
  </outline>
</glyph>
<glyph name="minus" format="1">
  <advance width="580"/>
  <unicode hex="2212"/>
  <outline>
    <contour>
      <point x="18" y="264" type="line"/>
      <point x="455" y="264" type="line"/>
      <point x="455" y="370" type="line"/>
      <point x="18" y="370" type="line"/>
    </contour>
  </outline>
</glyph>
<glyph name="radical" format="1">
  <advance width="777"/>
  <unicode hex="221A"/>
  <outline>
    <contour>
      <point x="129" y="280" type="line"/>
      <point x="266" y="-83" type="line"/>
      <point x="388" y="-83" type="line"/>
      <point x="682" y="701" type="line"/>
      <point x="561" y="701" type="line"/>
      <point x="327" y="44" type="line"/>
      <point x="251" y="280" type="line"/>
    </contour>
    <contour>
      <point x="227" y="280" type="line"/>
      <point x="81" y="280" type="line"/>
      <point x="81" y="182" type="line"/>
      <point x="227" y="182" type="line"/>
    </contour>
  </outline>
</glyph>
<glyph name="infinity" format="1">
  <advance width="601"/>
  <unicode hex="221E"/>
  <outline>
    <contour>
      <point x="140" y="178" type="line"/>
      <point x="165" y="178" type="line" smooth="yes"/>
      <point x="237" y="178"/>
      <point x="259" y="189"/>
      <point x="296" y="252" type="curve" smooth="yes"/>
      <point x="382" y="400" type="line"/>
      <point x="393" y="419"/>
      <point x="401" y="428"/>
      <point x="418" y="428" type="curve" smooth="yes"/>
      <point x="440" y="428" type="line"/>
      <point x="440" y="517" type="line"/>
      <point x="418" y="517" type="line" smooth="yes"/>
      <point x="353" y="517"/>
      <point x="340" y="501"/>
      <point x="304" y="441" type="curve" smooth="yes"/>
      <point x="218" y="297" type="line" smooth="yes"/>
      <point x="209" y="282"/>
      <point x="192" y="268"/>
      <point x="171" y="268" type="curve" smooth="yes"/>
      <point x="154" y="268" type="line"/>
    </contour>
    <contour>
      <point x="164" y="268" type="line"/>
      <point x="140" y="268" type="line" smooth="yes"/>
      <point x="114" y="268"/>
      <point x="111" y="276"/>
      <point x="111" y="301" type="curve" smooth="yes"/>
      <point x="111" y="394" type="line" smooth="yes"/>
      <point x="111" y="418"/>
      <point x="114" y="427"/>
      <point x="140" y="427" type="curve" smooth="yes"/>
      <point x="163" y="427" type="line"/>
      <point x="163" y="517" type="line"/>
      <point x="132" y="517" type="line" smooth="yes"/>
      <point x="41" y="517"/>
      <point x="6" y="474"/>
      <point x="6" y="408" type="curve" smooth="yes"/>
      <point x="6" y="288" type="line" smooth="yes"/>
      <point x="6" y="221"/>
      <point x="41" y="178"/>
      <point x="132" y="178" type="curve" smooth="yes"/>
      <point x="150" y="178" type="line"/>
    </contour>
    <contour>
      <point x="332" y="372" type="line"/>
      <point x="286" y="441" type="line" smooth="yes"/>
      <point x="252" y="491"/>
      <point x="229" y="517"/>
      <point x="170" y="517" type="curve" smooth="yes"/>
      <point x="154" y="517" type="line"/>
      <point x="154" y="427" type="line"/>
      <point x="165" y="427" type="line" smooth="yes"/>
      <point x="189" y="427"/>
      <point x="203" y="411"/>
      <point x="218" y="389" type="curve" smooth="yes"/>
      <point x="266" y="316" type="line"/>
    </contour>
    <contour>
      <point x="279" y="290" type="line"/>
      <point x="310" y="246" type="line" smooth="yes"/>
      <point x="348" y="193"/>
      <point x="373" y="178"/>
      <point x="434" y="178" type="curve" smooth="yes"/>
      <point x="445" y="178" type="line"/>
      <point x="445" y="268" type="line"/>
      <point x="425" y="268" type="line" smooth="yes"/>
      <point x="403" y="268"/>
      <point x="389" y="284"/>
      <point x="377" y="302" type="curve" smooth="yes"/>
      <point x="340" y="355" type="line"/>
    </contour>
    <contour>
      <point x="438" y="178" type="line"/>
      <point x="468" y="178" type="line" smooth="yes"/>
      <point x="560" y="178"/>
      <point x="594" y="221"/>
      <point x="594" y="288" type="curve"/>
      <point x="594" y="408" type="line" smooth="yes"/>
      <point x="594" y="474"/>
      <point x="560" y="517"/>
      <point x="468" y="517" type="curve" smooth="yes"/>
      <point x="433" y="517" type="line"/>
      <point x="433" y="428" type="line"/>
      <point x="460" y="428" type="line" smooth="yes"/>
      <point x="487" y="428"/>
      <point x="490" y="418"/>
      <point x="490" y="395" type="curve" smooth="yes"/>
      <point x="490" y="301" type="line" smooth="yes"/>
      <point x="490" y="276"/>
      <point x="487" y="268"/>
      <point x="460" y="268" type="curve" smooth="yes"/>
      <point x="433" y="268" type="line"/>
    </contour>
  </outline>
</glyph>
<glyph name="integral" format="1">
  <advance width="411"/>
  <unicode hex="222B"/>
  <outline>
    <contour>
      <point x="282" y="571" type="line"/>
      <point x="283" y="589"/>
      <point x="289" y="596"/>
      <point x="309" y="596" type="curve" smooth="yes"/>
      <point x="360" y="596" type="line"/>
      <point x="360" y="703" type="line"/>
      <point x="269" y="703" type="line" smooth="yes"/>
      <point x="178" y="703"/>
      <point x="142" y="660"/>
      <point x="142" y="592" type="curve" smooth="yes"/>
      <point x="142" y="-7" type="line" smooth="yes"/>
      <point x="140" y="-25"/>
      <point x="135" y="-32"/>
      <point x="116" y="-32" type="curve" smooth="yes"/>
      <point x="65" y="-32" type="line"/>
      <point x="65" y="-138" type="line"/>
      <point x="155" y="-138" type="line" smooth="yes"/>
      <point x="246" y="-138"/>
      <point x="282" y="-96"/>
      <point x="282" y="-28" type="curve"/>
    </contour>
  </outline>
</glyph>
<glyph name="approxequal" format="1">
  <advance width="536"/>
  <unicode hex="2248"/>
  <outline>
    <contour>
      <point x="347" y="350" type="curve" smooth="yes"/>
      <point x="402" y="350" type="line"/>
      <point x="475" y="350"/>
      <point x="503" y="381"/>
      <point x="503" y="443" type="curve" smooth="yes"/>
      <point x="503" y="507" type="line"/>
      <point x="375" y="507" type="line"/>
      <point x="375" y="475" type="line" smooth="yes"/>
      <point x="375" y="452"/>
      <point x="371" y="442"/>
      <point x="348" y="442" type="curve" smooth="yes"/>
      <point x="299" y="442"/>
      <point x="275" y="507"/>
      <point x="189" y="507" type="curve" smooth="yes"/>
      <point x="134" y="507" type="line" smooth="yes"/>
      <point x="61" y="507"/>
      <point x="33" y="477"/>
      <point x="33" y="414" type="curve" smooth="yes"/>
      <point x="33" y="351" type="line"/>
      <point x="161" y="351" type="line"/>
      <point x="161" y="382" type="line" smooth="yes"/>
      <point x="161" y="405"/>
      <point x="166" y="415"/>
      <point x="189" y="415" type="curve" smooth="yes"/>
      <point x="244" y="415"/>
      <point x="268" y="350"/>
    </contour>
    <contour>
      <point x="347" y="162" type="curve" smooth="yes"/>
      <point x="402" y="162" type="line"/>
      <point x="475" y="162"/>
      <point x="503" y="193"/>
      <point x="503" y="255" type="curve"/>
      <point x="503" y="318" type="line"/>
      <point x="375" y="318" type="line"/>
      <point x="375" y="287" type="line"/>
      <point x="375" y="264"/>
      <point x="371" y="254"/>
      <point x="348" y="254" type="curve" smooth="yes"/>
      <point x="299" y="254"/>
      <point x="275" y="319"/>
      <point x="189" y="319" type="curve" smooth="yes"/>
      <point x="134" y="319" type="line"/>
      <point x="61" y="319"/>
      <point x="33" y="288"/>
      <point x="33" y="226" type="curve"/>
      <point x="33" y="162" type="line"/>
      <point x="161" y="162" type="line"/>
      <point x="161" y="194" type="line"/>
      <point x="161" y="216"/>
      <point x="166" y="227"/>
      <point x="189" y="227" type="curve" smooth="yes"/>
      <point x="244" y="227"/>
      <point x="268" y="162"/>
    </contour>
  </outline>
</glyph>
<glyph name="notequal" format="1">
  <advance width="515"/>
  <unicode hex="2260"/>
  <outline>
    <contour>
      <point x="483" y="167" type="line"/>
      <point x="483" y="274" type="line"/>
      <point x="33" y="274" type="line"/>
      <point x="33" y="167" type="line"/>
    </contour>
    <contour>
      <point x="483" y="362" type="line"/>
      <point x="483" y="470" type="line"/>
      <point x="33" y="470" type="line"/>
      <point x="33" y="362" type="line"/>
    </contour>
    <contour>
      <point x="187" y="95" type="line"/>
      <point x="421" y="540" type="line"/>
      <point x="329" y="540" type="line"/>
      <point x="94" y="95" type="line"/>
    </contour>
  </outline>
</glyph>
<glyph name="lessequal" format="1">
  <advance width="503"/>
  <unicode hex="2264"/>
  <outline>
    <contour>
      <point x="468" y="454" type="line"/>
      <point x="468" y="561" type="line"/>
      <point x="30" y="469" type="line"/>
      <point x="30" y="349" type="line"/>
      <point x="468" y="249" type="line"/>
      <point x="468" y="358" type="line"/>
      <point x="137" y="407" type="line"/>
    </contour>
    <contour>
      <point x="468" y="229" type="line"/>
      <point x="30" y="229" type="line"/>
      <point x="30" y="130" type="line"/>
      <point x="468" y="130" type="line"/>
    </contour>
  </outline>
</glyph>
<glyph name="greaterequal" format="1">
  <advance width="503"/>
  <unicode hex="2265"/>
  <outline>
    <contour>
      <point x="364" y="407" type="line"/>
      <point x="33" y="358" type="line"/>
      <point x="33" y="249" type="line"/>
      <point x="471" y="349" type="line"/>
      <point x="471" y="469" type="line"/>
      <point x="33" y="561" type="line"/>
      <point x="33" y="454" type="line"/>
    </contour>
    <contour>
      <point x="33" y="130" type="line"/>
      <point x="471" y="130" type="line"/>
      <point x="471" y="229" type="line"/>
      <point x="33" y="229" type="line"/>
    </contour>
  </outline>
</glyph>
<glyph name="lozenge" format="1">
  <advance width="623"/>
  <unicode hex="25CA"/>
  <outline>
    <contour>
      <point x="552" y="319" type="line"/>
      <point x="373" y="636" type="line"/>
      <point x="235" y="636" type="line"/>
      <point x="61" y="319" type="line"/>
      <point x="200" y="319" type="line"/>
      <point x="304" y="528" type="line"/>
      <point x="413" y="319" type="line"/>
    </contour>
    <contour>
      <point x="413" y="319" type="line"/>
      <point x="304" y="109" type="line"/>
      <point x="200" y="319" type="line"/>
      <point x="61" y="319" type="line"/>
      <point x="235" y="1" type="line"/>
      <point x="373" y="1" type="line"/>
      <point x="552" y="319" type="line"/>
    </contour>
  </outline>
</glyph>
<glyph name="fl" format="1">
  <advance width="459"/>
  <unicode hex="FB02"/>
  <outline>
    <contour>
      <point x="196" y="543" type="line"/>
      <point x="196" y="561"/>
      <point x="203" y="567"/>
      <point x="223" y="567" type="curve" smooth="yes"/>
      <point x="241" y="567" type="line"/>
      <point x="241" y="669" type="line"/>
      <point x="185" y="669" type="line" smooth="yes"/>
      <point x="94" y="669"/>
      <point x="59" y="627"/>
      <point x="59" y="559" type="curve" smooth="yes"/>
      <point x="59" y="0" type="line"/>
      <point x="196" y="0" type="line"/>
    </contour>
    <contour>
      <point x="350" y="495" type="line"/>
      <point x="9" y="495" type="line"/>
      <point x="9" y="390" type="line"/>
      <point x="350" y="390" type="line"/>
    </contour>
    <contour>
      <point x="418" y="0" type="line"/>
      <point x="418" y="669" type="line"/>
      <point x="281" y="669" type="line"/>
      <point x="281" y="0" type="line"/>
    </contour>
  </outline>
</glyph>
<glyph name="Delta.math" format="1">
  <advance width="607"/>
  <outline>
    <contour>
      <point x="43" y="103" type="line"/>
      <point x="237" y="636" type="line"/>
      <point x="376" y="636" type="line"/>
      <point x="561" y="106" type="line"/>
      <point x="561" y="0" type="line"/>
      <point x="43" y="0" type="line"/>
    </contour>
    <contour>
      <point x="302" y="483" type="line"/>
      <point x="289" y="415"/>
      <point x="269" y="344"/>
      <point x="243" y="266" type="curve" smooth="yes"/>
      <point x="188" y="98" type="line"/>
      <point x="412" y="98" type="line"/>
      <point x="362" y="264" type="line" smooth="yes"/>
      <point x="338" y="341"/>
      <point x="317" y="419"/>
      <point x="305" y="483" type="curve"/>
    </contour>
  </outline>
</glyph>
